<svg width="40" height="40" viewBox="0 0 40 40" fill="none" xmlns="http://www.w3.org/2000/svg">
<path fill-rule="evenodd" clip-rule="evenodd" d="M0 20C0 31.0457 8.95431 40 20 40C31.0457 40 40 31.0457 40 20C40 8.95431 31.0457 0 20 0C8.95431 0 0 8.95431 0 20ZM16.5657 25.3821L16.819 21.6557L16.8188 21.6556L23.7227 15.5383C24.0257 15.2743 23.6565 15.1455 23.2543 15.385L14.7339 20.6629L11.0536 19.5351C10.2588 19.2961 10.2531 18.7599 11.232 18.3744L25.5735 12.9446C26.2285 12.6527 26.8607 13.0991 26.6107 14.0835L24.1683 25.384C23.9978 26.187 23.5036 26.3791 22.8189 26.0082L19.0984 23.3093L17.3101 25.0167C17.3045 25.022 17.2989 25.0274 17.2933 25.0327C17.0933 25.2239 16.9278 25.3821 16.5657 25.3821Z" fill="#E9E8E5"/>
</svg>
