<svg width="40" height="40" viewBox="0 0 40 40" fill="none" xmlns="http://www.w3.org/2000/svg">
<path fill-rule="evenodd" clip-rule="evenodd" d="M0 20C0 31.0457 8.9543 40 20 40C31.0457 40 40 31.0457 40 20C40 8.9543 31.0457 0 20 0C8.9543 0 0 8.9543 0 20ZM29.9969 18.7704C29.9946 24.3895 25.4236 28.9617 19.8033 28.964H19.799C18.093 28.9634 16.4166 28.5354 14.9277 27.7232L9.52393 29.1408L10.9701 23.8585C10.078 22.3126 9.60863 20.559 9.60939 18.7624C9.61163 13.142 14.1845 8.56934 19.8032 8.56934C22.5301 8.57051 25.0895 9.6321 27.0141 11.5589C28.9386 13.4856 29.998 16.0467 29.9969 18.7704Z" fill="#E9E8E5"/>
<path fill-rule="evenodd" clip-rule="evenodd" d="M11.9727 26.7209L15.1794 25.8797L15.4888 26.0633C16.7896 26.8353 18.2808 27.2437 19.8011 27.2443H19.8046C24.4744 27.2443 28.2752 23.4435 28.277 18.7717C28.2779 16.5078 27.3975 14.3791 25.7979 12.7776C24.1982 11.1762 22.0709 10.2938 19.8079 10.293C15.1345 10.293 11.3336 14.0934 11.3318 18.7648C11.3311 20.3658 11.7791 21.9249 12.6272 23.2738L12.8286 23.5944L11.9727 26.7209ZM24.5911 20.9649C24.7688 21.0508 24.8887 21.1087 24.9399 21.1942C25.0036 21.3004 25.0036 21.8104 24.7915 22.4055C24.5791 23.0004 23.5616 23.5434 23.0722 23.6165C22.6334 23.6821 22.0781 23.7095 21.4679 23.5156C21.098 23.3982 20.6236 23.2415 20.0159 22.9791C17.6281 21.948 16.0144 19.6337 15.7094 19.1963C15.6881 19.1657 15.6731 19.1442 15.6648 19.1331L15.6627 19.1304C15.5279 18.9505 14.6248 17.7455 14.6248 16.4983C14.6248 15.325 15.2011 14.7101 15.4663 14.427C15.4845 14.4076 15.5012 14.3898 15.5162 14.3734C15.7497 14.1184 16.0256 14.0547 16.1954 14.0547C16.3652 14.0547 16.5352 14.0563 16.6836 14.0637C16.7019 14.0646 16.7209 14.0645 16.7406 14.0644C16.8891 14.0635 17.0741 14.0624 17.2567 14.5009C17.3269 14.6697 17.4297 14.9199 17.538 15.1837C17.7572 15.7173 17.9994 16.3068 18.042 16.3922C18.1057 16.5197 18.1481 16.6683 18.0632 16.8384C18.0505 16.8639 18.0387 16.888 18.0274 16.911C17.9636 17.0411 17.9167 17.1369 17.8085 17.2633C17.7659 17.313 17.722 17.3665 17.678 17.4201C17.5903 17.5268 17.5027 17.6335 17.4264 17.7095C17.2989 17.8365 17.1662 17.9743 17.3148 18.2293C17.4633 18.4843 17.9745 19.3184 18.7317 19.9938C19.5457 20.7198 20.2531 21.0266 20.6117 21.1822C20.6817 21.2126 20.7384 21.2372 20.78 21.258C21.0346 21.3855 21.1832 21.3642 21.3318 21.1942C21.4804 21.0243 21.9685 20.4505 22.1383 20.1955C22.3081 19.9406 22.4779 19.9831 22.7113 20.068C22.9449 20.1531 24.1971 20.7692 24.4518 20.8967C24.5015 20.9216 24.548 20.9441 24.5911 20.9649Z" fill="#E9E8E5"/>
</svg>
