<svg width="40" height="40" viewBox="0 0 40 40" fill="none" xmlns="http://www.w3.org/2000/svg">
<path fill-rule="evenodd" clip-rule="evenodd" d="M20 0C8.9543 0 0 8.9543 0 20C0 31.0457 8.9543 40 20 40C31.0457 40 40 31.0457 40 20C40 8.9543 31.0457 0 20 0ZM26.5933 13.2545C27.3719 13.4735 27.9851 14.1189 28.1932 14.9385C28.5713 16.4239 28.5713 19.5231 28.5713 19.5231C28.5713 19.5231 28.5713 22.6223 28.1932 24.1077C27.9851 24.9273 27.3719 25.5727 26.5933 25.7918C25.1823 26.1898 19.5237 26.1898 19.5237 26.1898C19.5237 26.1898 13.8651 26.1898 12.454 25.7918C11.6754 25.5727 11.0622 24.9273 10.8541 24.1077C10.4761 22.6223 10.4761 19.5231 10.4761 19.5231C10.4761 19.5231 10.4761 16.4239 10.8541 14.9385C11.0622 14.1189 11.6754 13.4735 12.454 13.2545C13.8651 12.8564 19.5237 12.8564 19.5237 12.8564C19.5237 12.8564 25.1823 12.8564 26.5933 13.2545Z" fill="#E9E8E5"/>
<path d="M18.0957 22.3862V16.6719L22.8576 19.5291L18.0957 22.3862Z" fill="#E9E8E5"/>
</svg>
