<svg width="24" height="24" viewBox="0 0 24 24" fill="none" xmlns="http://www.w3.org/2000/svg">
<circle cx="12" cy="12" r="12" fill="#5B8388"/>
<path fill-rule="evenodd" clip-rule="evenodd" d="M16.3117 7.76133C15.724 7.17362 14.7711 7.17362 14.1834 7.76133L7.32055 14.6242V16.7524H9.44881L16.3117 9.88959C16.8994 9.30188 16.8994 8.34903 16.3117 7.76133ZM13.3831 6.961C14.4128 5.93129 16.0823 5.93129 17.112 6.961C18.1417 7.99071 18.1417 9.6602 17.112 10.6899L10.0834 17.7185C9.97725 17.8246 9.83331 17.8843 9.68322 17.8843H6.75463C6.44209 17.8843 6.18872 17.6309 6.18872 17.3184V14.3898C6.18872 14.2397 6.24834 14.0957 6.35447 13.9896L13.3831 6.961Z" fill="#383636"/>
</svg>
