<svg width="63" height="63" viewBox="0 0 63 63" fill="none" xmlns="http://www.w3.org/2000/svg">
<path d="M58.5293 38.4521V31.7926C58.5293 21.1028 52.9936 11.2601 42.3759 10.0208C39.5591 9.69203 36.329 9.48755 32.6517 9.48755C28.9744 9.48755 25.7443 9.69203 22.9275 10.0208C12.3098 11.2601 6.77411 21.1028 6.77411 31.7926V38.4521C6.77411 49.6842 12.8471 59.8402 24.0322 60.8675C26.5805 61.1016 29.4462 61.2427 32.6517 61.2427C35.8572 61.2427 38.7229 61.1016 41.2713 60.8675C52.4563 59.8402 58.5293 49.6842 58.5293 38.4521Z" fill="#655D5D"/>
<path d="M58.5293 38.4521V31.7926C58.5293 21.1028 52.9936 11.2601 42.3759 10.0208C39.5591 9.69203 36.329 9.48755 32.6517 9.48755C28.9744 9.48755 25.7443 9.69203 22.9275 10.0208C12.3098 11.2601 6.77411 21.1028 6.77411 31.7926V38.4521C6.77411 49.6842 12.8471 59.8402 24.0322 60.8675C26.5805 61.1016 29.4462 61.2427 32.6517 61.2427C35.8572 61.2427 38.7229 61.1016 41.2713 60.8675C52.4563 59.8402 58.5293 49.6842 58.5293 38.4521Z" fill="url(#paint0_linear_1_18329)"/>
<path d="M62.1062 38.349V23.369C62.1062 12.6792 56.6436 2.79667 46.0886 1.1045C41.9876 0.447031 37.0092 0 31.0531 0C25.097 0 20.1186 0.447033 16.0176 1.10451C5.46262 2.79667 0 12.6792 0 23.369V38.349C0 49.5811 6.00635 59.7913 17.1422 61.2587C21.0194 61.7697 25.6312 62.1062 31.0531 62.1062C36.4751 62.1062 41.0868 61.7697 44.9641 61.2587C56.0999 59.7913 62.1062 49.5811 62.1062 38.349Z" fill="#E9E8E5"/>
<path opacity="0.5" d="M12.3531 18.6372C10.1758 22.2353 9.00951 26.4983 9.22766 31.0149C9.37165 33.9959 10.1053 36.8089 11.3103 39.3465M50.0215 18.9259C51.7415 21.87 52.7971 25.2606 52.973 28.902C53.1408 32.3754 52.4898 35.6988 51.1898 38.6851" stroke="white" stroke-width="0.862587" stroke-linecap="round" stroke-linejoin="round"/>
<g opacity="0.5" clip-path="url(#clip0_1_18329)">
<path d="M11.6817 46.3826C11.378 45.9145 11.2399 45.4187 11.2123 44.8955C11.1847 44.3723 11.3227 43.8765 11.5712 43.4084C11.8198 42.9402 12.2063 42.5547 12.6757 42.2793C13.4213 41.8386 14.1668 41.7009 14.9676 41.8662C15.7683 42.0314 16.3758 42.4996 16.8452 43.2156C17.2318 43.8215 17.3698 44.4549 17.2594 45.1158C17.1489 45.7768 16.8728 46.3551 16.3482 46.8233L15.6855 45.7492C15.8236 45.5564 15.934 45.3637 16.0168 45.1434C16.0721 44.923 16.0997 44.7027 16.0721 44.4824C16.0445 44.2621 15.9616 44.0418 15.8236 43.849C15.575 43.4359 15.1885 43.1881 14.7191 43.0779C14.2496 42.9953 13.7802 43.0779 13.3384 43.3533C12.8966 43.6287 12.6205 43.9867 12.4825 44.4549C12.372 44.923 12.4272 45.3637 12.6757 45.7768C12.869 46.1072 13.1452 46.3275 13.4765 46.4377C13.8078 46.5479 14.1668 46.5754 14.5258 46.4652L15.1885 47.5393C14.4982 47.8147 13.8355 47.8422 13.2004 47.6219C12.5653 47.4016 12.0683 46.9885 11.6817 46.3826Z" fill="white"/>
<path d="M16.4029 50.0177L18.0597 51.5048L17.2865 52.386L14.691 50.0727L18.5567 45.7766L19.4955 46.6028L16.4029 50.0177Z" fill="white"/>
<path d="M22.4517 54.6994C21.8442 54.8921 21.2368 54.8095 20.6293 54.5066C20.0218 54.2037 19.6076 53.7355 19.3867 53.1572C19.1658 52.5788 19.2211 51.973 19.5248 51.3671L21.1539 48.145L22.286 48.7233L20.6845 51.8904C20.5188 52.1933 20.4912 52.4962 20.5741 52.7992C20.6569 53.0745 20.8502 53.2949 21.1539 53.4601C21.4577 53.6253 21.7614 53.6529 22.0375 53.5427C22.3137 53.4601 22.5346 53.2398 22.7002 52.9369L24.3017 49.7698L25.4062 50.3206L23.7771 53.5427C23.501 54.121 23.0592 54.5066 22.4517 54.6994Z" fill="white"/>
<path d="M29.0223 53.7355C29.2432 53.9007 29.4089 54.121 29.5193 54.3964C29.6298 54.6443 29.6298 54.9472 29.5745 55.2501C29.4917 55.7183 29.2432 56.0763 28.8566 56.3242C28.4424 56.572 28.0006 56.6822 27.5036 56.5996L25.0737 56.1865L26.0678 50.4858L28.4424 50.8989C28.9395 50.9815 29.326 51.2019 29.6022 51.5323C29.8783 51.8628 29.9887 52.2484 29.9059 52.6614C29.8507 52.9093 29.7678 53.1296 29.6022 53.3224C29.4365 53.4601 29.2432 53.6253 29.0223 53.7355ZM27.5865 55.4154C27.7797 55.4429 27.973 55.4154 28.1111 55.3328C28.2492 55.2226 28.3596 55.0849 28.3872 54.8921C28.4148 54.6994 28.3872 54.5341 28.2768 54.3964C28.1663 54.2587 28.0283 54.1761 27.8074 54.121L26.7029 53.9283L26.482 55.1951L27.5865 55.4154ZM28.6357 52.6064C28.6633 52.5238 28.6633 52.4411 28.6357 52.3585C28.6081 52.2759 28.5805 52.2208 28.5529 52.1382C28.4977 52.0831 28.4424 52.028 28.3872 51.973C28.3044 51.9179 28.2215 51.8903 28.1387 51.8903L27.117 51.7251L26.8961 52.9368L27.9178 53.1021C28.1111 53.1296 28.2768 53.1021 28.4148 53.0195C28.5253 52.9093 28.6081 52.7716 28.6357 52.6064Z" fill="white"/>
<path d="M40.814 54.8087L39.5991 55.1667L37.9699 51.6967L37.3901 55.8001L37.0863 55.8827L34.3527 52.7708L34.8773 56.5437L33.6348 56.9017L32.8616 51.0909L34.0766 50.7329L36.5893 53.6796L37.0863 49.8241L38.3013 49.4661L40.814 54.8087Z" fill="white"/>
<path d="M45.8101 51.1741L44.8161 50.5407L42.9937 51.9452L43.3526 53.0468L42.3034 53.8454L40.5638 47.8969L41.5026 47.1809L46.9146 50.3204L45.8101 51.1741ZM41.972 48.7507L42.6347 50.8436L43.822 49.9073L41.972 48.7507Z" fill="white"/>
<path d="M45.368 42.6369L46.0583 41.6179L50.8629 44.84L50.283 45.6937L45.8098 45.859L48.8196 47.8693L48.1293 48.8883L43.3247 45.6662L43.9598 44.7299L48.3225 44.5922L45.368 42.6369Z" fill="white"/>
<path d="M16.1548 13.5002L18.6951 11.7377C19.2198 12.4813 19.413 13.2799 19.3026 14.0785C19.1921 14.8772 18.778 15.5381 18.06 16.0063C17.3697 16.502 16.5966 16.6672 15.8234 16.5295C15.0227 16.3918 14.3876 15.9512 13.8906 15.2627C13.3935 14.5467 13.2003 13.8031 13.3383 13.0045C13.4764 12.2059 13.8906 11.5725 14.5809 11.0768C15.1883 10.6637 15.8234 10.4709 16.4861 10.4984C17.1764 10.526 17.7563 10.7738 18.2257 11.242L17.1764 11.9856C16.9832 11.8479 16.7899 11.7928 16.569 11.7377C16.3481 11.6826 16.1272 11.7102 15.9063 11.7652C15.6854 11.8203 15.4645 11.9029 15.2712 12.0406C14.857 12.3436 14.6085 12.7016 14.5257 13.1697C14.4704 13.6379 14.5809 14.0785 14.8846 14.5192C15.0779 14.8221 15.3264 15.0149 15.6025 15.1801C15.8787 15.3178 16.1548 15.3729 16.4585 15.3729C16.7623 15.3453 17.066 15.2352 17.3421 15.0424C17.5354 14.9047 17.7287 14.7395 17.8391 14.5467C17.9772 14.3539 18.06 14.1612 18.1153 13.9408C18.1705 13.7205 18.1429 13.5278 18.1153 13.3074L16.707 14.2989L16.1548 13.5002Z" fill="white"/>
<path d="M23.6389 13.2255C22.8105 13.5009 22.0098 13.4734 21.2642 13.1153C20.5187 12.7573 20.0217 12.179 19.7456 11.3528C19.4694 10.5267 19.5247 9.75555 19.8836 9.03953C20.2426 8.29597 20.85 7.80026 21.706 7.52487C22.2583 7.3321 22.7829 7.30456 23.3352 7.38718C23.8598 7.46979 24.3292 7.71765 24.7434 8.04812C25.13 8.40613 25.4337 8.84676 25.627 9.37C25.9031 10.1962 25.8755 10.9673 25.4889 11.6833C25.0747 12.4269 24.4673 12.9226 23.6389 13.2255ZM23.2523 12.0964C23.5837 11.9862 23.8322 11.821 24.0531 11.5731C24.274 11.3253 24.3844 11.0499 24.4673 10.747C24.5225 10.444 24.4949 10.1136 24.3844 9.78309C24.2188 9.28739 23.915 8.92938 23.4732 8.70906C23.0314 8.48875 22.562 8.46121 22.0926 8.62644C21.5956 8.79168 21.2366 9.09461 21.0433 9.53524C20.8224 9.97587 20.7948 10.444 20.9605 10.9397C21.1262 11.4355 21.4299 11.7935 21.8717 12.0138C22.3135 12.2341 22.7553 12.2616 23.2523 12.0964Z" fill="white"/>
<path d="M28.3603 10.8564L30.5693 10.6361L30.6798 11.7928L27.2282 12.1508L26.676 6.39507L27.9185 6.28491L28.3603 10.8564Z" fill="white"/>
<path d="M34.1309 6.31299C34.9869 6.42315 35.6496 6.78116 36.119 7.38702C36.5884 7.99289 36.7817 8.70891 36.6989 9.53509C36.5884 10.3613 36.2294 11.0222 35.622 11.4904C35.0145 11.9585 34.269 12.1513 33.4406 12.0412L31.2592 11.7658L31.9495 6.0376L34.1309 6.31299ZM33.5234 10.8845C34.0205 10.9396 34.4346 10.8294 34.7936 10.554C35.1526 10.2786 35.3458 9.86556 35.4287 9.36985C35.4839 8.87414 35.4011 8.43352 35.1249 8.07551C34.8488 7.71749 34.4623 7.49718 33.9652 7.4421L33.0816 7.33194L32.6398 10.7468L33.5234 10.8845Z" fill="white"/>
<path d="M38.576 12.0417L40.7574 12.8403L40.3432 13.9419L37.0021 12.7302L38.9902 7.30493L42.2484 8.48912L41.8619 9.56315L39.7633 8.79205L39.3767 9.86609L41.2544 10.5546L40.8678 11.6286L38.9902 10.9401L38.576 12.0417Z" fill="white"/>
<path d="M47.3015 11.3529L48.3231 12.0139L45.1753 16.8883L44.2917 16.31L44.0708 11.8487L42.1103 14.878L41.0887 14.217L44.2365 9.37012L45.1753 9.97598L45.3686 14.3272L47.3015 11.3529Z" fill="white"/>
</g>
<g filter="url(#filter0_d_1_18329)">
<path d="M39.197 32.3182H35.7591L34.4081 33.8147H37.8461L39.197 32.3182Z" fill="white"/>
<path d="M30.5901 36.4545L22.8375 27.9648H25.9984L30.5901 32.9931L35.1819 27.9648H38.3428L30.5901 36.4545Z" fill="white"/>
<path d="M41.0865 30.0731H37.6486L36.2976 31.5696H39.7356L41.0865 30.0731Z" fill="white"/>
<path d="M22.1377 32.3182H25.5757L26.9266 33.8147H23.4887L22.1377 32.3182Z" fill="white"/>
<path d="M20.2482 30.0731H23.6862L25.0371 31.5696H21.5992L20.2482 30.0731Z" fill="white"/>
<path d="M37.3811 34.4931H33.9432L32.5923 35.9896H36.0302L37.3811 34.4931Z" fill="white"/>
<path d="M24.0272 34.4931H27.4652L28.8161 35.9896H25.3782L24.0272 34.4931Z" fill="white"/>
</g>
<g filter="url(#filter1_d_1_18329)">
<path fill-rule="evenodd" clip-rule="evenodd" d="M30.6662 25.6497L27.965 28.3509L30.6662 31.0522L33.3675 28.3509L30.6662 25.6497ZM30.6662 27.1884L29.5038 28.3508L30.6662 29.5132L31.8286 28.3508L30.6662 27.1884Z" fill="white"/>
</g>
<g filter="url(#filter2_d_1_18329)">
<path fill-rule="evenodd" clip-rule="evenodd" d="M31.052 16.3879C22.9533 16.3879 16.3881 22.9532 16.3881 31.0519C16.3881 39.1506 22.9533 45.7159 31.052 45.7159C39.1507 45.7159 45.716 39.1506 45.716 31.0519C45.716 22.9532 39.1507 16.3879 31.052 16.3879ZM17.36 31.0519C17.36 28.98 17.8202 27.0155 18.644 25.2552L19.3949 25.5902C18.6167 27.2483 18.1818 29.0994 18.1818 31.0522C18.1818 33.0036 18.6161 34.8536 19.3933 36.5108L18.6427 36.8458C17.8197 35.0862 17.36 33.1227 17.36 31.0519ZM25.3878 42.2199L19.8845 36.7165C19.02 35.0156 18.5328 33.0908 18.5328 31.0522C18.5328 29.0104 19.0216 27.0827 19.8885 25.3799L25.3798 19.8886C27.0827 19.0216 29.0103 18.5328 31.0522 18.5328C33.0937 18.5328 35.0212 19.0215 36.7239 19.8882L42.2161 25.3805C43.0829 27.0832 43.5715 29.0106 43.5715 31.0522C43.5715 33.0906 43.0844 35.0152 42.2202 36.7159L36.7159 42.2202C35.0151 43.0844 33.0905 43.5716 31.0522 43.5716C29.0135 43.5716 27.0887 43.0843 25.3878 42.2199ZM25.5908 42.7098L25.2559 43.4602C27.0161 44.2838 28.9803 44.744 31.052 44.744C33.1237 44.744 35.0879 44.2839 36.848 43.4603L36.5131 42.7099C34.8554 43.4879 33.0045 43.9226 31.0522 43.9226C29.0997 43.9226 27.2487 43.4878 25.5908 42.7098ZM42.7109 36.511L43.4614 36.8459C44.2843 35.0863 44.7441 33.1228 44.7441 31.0519C44.7441 28.9799 44.2838 27.0154 43.46 25.2551L42.7094 25.59C43.4876 27.2481 43.9225 29.0994 43.9225 31.0522C43.9225 33.0037 43.4882 34.8538 42.7109 36.511ZM36.5116 19.3937L36.8466 18.6429C35.0869 17.8197 33.1231 17.3599 31.052 17.3599C28.9809 17.3599 27.0171 17.8197 25.2573 18.643L25.5924 19.3939C27.2499 18.6163 29.1003 18.1818 31.0522 18.1818C33.0039 18.1818 34.8542 18.6163 36.5116 19.3937Z" fill="white"/>
</g>
<defs>
<filter id="filter0_d_1_18329" x="19.8623" y="27.9648" width="21.61" height="9.26153" filterUnits="userSpaceOnUse" color-interpolation-filters="sRGB">
<feFlood flood-opacity="0" result="BackgroundImageFix"/>
<feColorMatrix in="SourceAlpha" type="matrix" values="0 0 0 0 0 0 0 0 0 0 0 0 0 0 0 0 0 0 127 0" result="hardAlpha"/>
<feOffset dy="0.385894"/>
<feGaussianBlur stdDeviation="0.192947"/>
<feColorMatrix type="matrix" values="0 0 0 0 0 0 0 0 0 0 0 0 0 0 0 0 0 0 0.18 0"/>
<feBlend mode="normal" in2="BackgroundImageFix" result="effect1_dropShadow_1_18329"/>
<feBlend mode="normal" in="SourceGraphic" in2="effect1_dropShadow_1_18329" result="shape"/>
</filter>
<filter id="filter1_d_1_18329" x="27.5791" y="25.6497" width="6.17431" height="6.17438" filterUnits="userSpaceOnUse" color-interpolation-filters="sRGB">
<feFlood flood-opacity="0" result="BackgroundImageFix"/>
<feColorMatrix in="SourceAlpha" type="matrix" values="0 0 0 0 0 0 0 0 0 0 0 0 0 0 0 0 0 0 127 0" result="hardAlpha"/>
<feOffset dy="0.385894"/>
<feGaussianBlur stdDeviation="0.192947"/>
<feColorMatrix type="matrix" values="0 0 0 0 0 0 0 0 0 0 0 0 0 0 0 0 0 0 0.18 0"/>
<feBlend mode="normal" in2="BackgroundImageFix" result="effect1_dropShadow_1_18329"/>
<feBlend mode="normal" in="SourceGraphic" in2="effect1_dropShadow_1_18329" result="shape"/>
</filter>
<filter id="filter2_d_1_18329" x="16.0022" y="16.3879" width="30.0997" height="30.0997" filterUnits="userSpaceOnUse" color-interpolation-filters="sRGB">
<feFlood flood-opacity="0" result="BackgroundImageFix"/>
<feColorMatrix in="SourceAlpha" type="matrix" values="0 0 0 0 0 0 0 0 0 0 0 0 0 0 0 0 0 0 127 0" result="hardAlpha"/>
<feOffset dy="0.385894"/>
<feGaussianBlur stdDeviation="0.192947"/>
<feColorMatrix type="matrix" values="0 0 0 0 0 0 0 0 0 0 0 0 0 0 0 0 0 0 0.18 0"/>
<feBlend mode="normal" in2="BackgroundImageFix" result="effect1_dropShadow_1_18329"/>
<feBlend mode="normal" in="SourceGraphic" in2="effect1_dropShadow_1_18329" result="shape"/>
</filter>
<linearGradient id="paint0_linear_1_18329" x1="58.5293" y1="-10.2113" x2="11.9637" y2="63.7856" gradientUnits="userSpaceOnUse">
<stop stop-color="#FFECEA"/>
<stop offset="0.297056" stop-color="#EEA69F"/>
<stop offset="0.706" stop-color="#BE6459"/>
<stop offset="1" stop-color="#451918"/>
</linearGradient>
<clipPath id="clip0_1_18329">
<rect width="39.679" height="50.8926" fill="white" transform="translate(11.2131 6.03735)"/>
</clipPath>
</defs>
</svg>
