<svg width="200" height="34" viewBox="0 0 200 34" fill="none" xmlns="http://www.w3.org/2000/svg">
<path d="M109.872 33.3732C109.782 33.1762 109.798 32.9857 109.895 32.7938C110.34 31.9107 110.782 31.0253 111.227 30.1422C111.508 29.5845 111.804 29.0337 112.075 28.4714C112.391 27.8172 112.736 27.1772 113.056 26.5254C113.486 25.6496 113.927 24.7793 114.368 23.9088C114.963 22.7332 115.552 21.5544 116.143 20.3766C116.515 19.634 116.903 18.8984 117.265 18.1518C117.551 17.5615 117.867 16.986 118.148 16.3943C118.536 15.5767 118.967 14.7798 119.367 13.9679C119.66 13.3731 119.987 12.7935 120.261 12.1912C120.613 11.4158 121.036 10.6756 121.388 9.90022C121.658 9.30491 121.978 8.73085 122.278 8.14881C122.388 7.93589 122.579 7.84633 122.813 7.83523C122.903 7.83088 122.994 7.83426 123.084 7.83426C124.092 7.83426 125.1 7.83402 126.108 7.8345C126.205 7.8345 126.304 7.84778 126.4 7.85019C126.651 7.85623 126.774 8.00566 126.873 8.20096C127.464 9.36864 128.055 10.5356 128.646 11.703C128.968 12.3392 129.292 12.9741 129.608 13.6131C129.919 14.241 130.277 14.8466 130.578 15.4789C130.744 15.828 130.92 16.1722 131.095 16.5165C131.422 17.1562 131.738 17.8015 132.07 18.4385C132.424 19.1167 132.74 19.8138 133.083 20.4973C133.396 21.1191 133.73 21.7309 134.044 22.3522C134.305 22.8681 134.547 23.3934 134.805 23.911C135.041 24.3844 135.287 24.8532 135.53 25.3232C135.637 25.5291 135.76 25.7273 135.852 25.9391C136.004 26.286 135.8 26.5744 135.443 26.6565C135.373 26.6727 135.296 26.6626 135.222 26.6626C134.034 26.6628 132.846 26.6582 131.658 26.6671C131.436 26.6688 131.273 26.5991 131.111 26.4588C131.018 26.3779 130.973 26.2674 130.945 26.1795C130.842 25.8575 130.659 25.5762 130.517 25.2754C130.246 24.705 129.96 24.1415 129.688 23.5718C129.625 23.44 129.542 23.3645 129.392 23.3686C129.334 23.37 129.277 23.3693 129.219 23.3693C126.991 23.3693 124.762 23.3688 122.533 23.3702C122.26 23.3705 122.043 23.2969 121.923 23.0282C121.868 22.9038 121.874 22.7984 121.93 22.6837C122.027 22.4828 122.124 22.281 122.219 22.0792C122.4 21.6971 122.569 21.3094 122.762 20.9332C123.018 20.4343 123.247 19.9225 123.506 19.4254C123.575 19.2924 123.69 19.1811 123.882 19.1635C124.053 19.148 124.223 19.1299 124.394 19.1299C125.304 19.1299 126.213 19.1302 127.123 19.1297C127.188 19.1297 127.256 19.1357 127.319 19.122C127.384 19.1077 127.441 19.0809 127.39 18.9882C127.107 18.4755 126.882 17.935 126.624 17.4099C126.35 16.8508 126.071 16.2934 125.795 15.735C125.595 15.3299 125.379 14.9323 125.175 14.5294C125.099 14.38 125.029 14.2272 124.966 14.0722C124.892 13.8916 124.722 13.8359 124.563 13.7951C124.406 13.755 124.292 13.8774 124.19 13.9822C124.047 14.1285 123.993 14.3255 123.902 14.5C123.633 15.0222 123.382 15.5535 123.119 16.0788C122.825 16.6649 122.533 17.2523 122.245 17.8413C121.945 18.4557 121.635 19.065 121.338 19.6806C121.042 20.2954 120.711 20.8932 120.426 21.5119C120.143 22.1236 119.822 22.7165 119.538 23.3268C119.257 23.932 118.939 24.5191 118.646 25.118C118.294 25.8345 117.945 26.5522 117.592 27.2685C117.345 27.7699 117.094 28.2694 116.846 28.7705C116.535 29.3999 116.228 30.0309 115.916 30.6593C115.664 31.1667 115.405 31.671 115.152 32.178C114.965 32.5517 114.782 32.9268 114.599 33.3022C114.589 33.3225 114.594 33.3498 114.592 33.3737C113.019 33.3732 111.445 33.3732 109.872 33.3732Z" fill="#5B8388"/>
<path d="M19.6919 33.2316C19.8296 33.1964 19.9304 33.2367 19.9857 33.3702C19.0842 33.3702 18.1829 33.3702 17.2813 33.3702C17.2776 33.3344 17.2545 33.3113 17.2208 33.3146C17.0979 33.3265 16.9954 33.2714 16.8904 33.2236C17.2085 33.2128 17.523 33.2347 17.8406 33.2712C18.3847 33.3337 18.9342 33.3219 19.482 33.3202C19.5641 33.3197 19.6487 33.3229 19.6919 33.2316Z" fill="#5B8388"/>
<path d="M19.6915 33.2299C19.6485 33.3209 19.5639 33.318 19.4813 33.3183C18.9335 33.3199 18.384 33.3318 17.84 33.2693C17.5226 33.2328 17.2079 33.2108 16.8897 33.2217C16.6055 33.2087 16.3171 33.2427 16.0408 33.143C16.0039 33.1297 15.9594 33.1319 15.9188 33.1333C15.5169 33.1498 15.1316 33.0068 14.7306 33.0155C14.471 32.8796 14.1742 32.9339 13.8976 32.8647C13.6587 32.8048 13.4047 32.765 13.1569 32.7222C12.9194 32.6812 12.6772 32.6488 12.4466 32.5646C12.3106 32.5149 12.1624 32.4953 12.0208 32.4642C11.3931 32.3263 10.7831 32.131 10.1783 31.9246C9.6239 31.7353 9.08228 31.5106 8.5441 31.2752C7.59829 30.8617 6.7041 30.3671 5.85442 29.7908C4.90369 29.146 4.05721 28.3866 3.29849 27.5312C2.67377 26.8271 2.14764 26.056 1.69796 25.2352C1.41916 24.7263 1.17921 24.1996 0.983749 23.6523C0.839923 23.2497 0.701997 22.8475 0.585215 22.4354C0.403035 21.7935 0.278631 21.1443 0.180288 20.486C0.120791 20.0872 0.109235 19.6867 0.0630144 19.2887C-0.0151682 18.6151 -0.0163975 17.9402 0.0362159 17.2693C0.0706359 16.8316 0.0782575 16.3903 0.162095 15.9539C0.219625 15.6555 0.243965 15.3479 0.31133 15.051C0.390496 14.7017 0.46204 14.3502 0.574151 14.0072C0.652825 13.7665 0.715273 13.5198 0.800831 13.2805C0.983749 12.7675 1.19863 12.2685 1.44473 11.7811C1.66969 11.3353 1.92415 10.9065 2.20418 10.494C2.46209 10.114 2.74876 9.75284 3.04747 9.40111C3.60508 8.74424 4.23275 8.15617 4.91476 7.62966C5.73223 6.99838 6.60601 6.44774 7.53953 5.99172C7.97543 5.7788 8.41724 5.58229 8.86765 5.39979C9.16563 5.27908 9.46557 5.15524 9.76822 5.0553C10.0197 4.97226 10.2791 4.89187 10.5343 4.8151C10.8296 4.72602 11.1374 4.67677 11.4258 4.55873C11.548 4.50876 11.6935 4.49137 11.8233 4.47061C12.0476 4.43488 12.2607 4.3557 12.4899 4.3347C12.7052 4.31491 12.9189 4.25745 13.1352 4.22341C13.6346 4.14471 14.1319 4.06433 14.6389 4.04163C14.8907 4.03029 15.1456 4.03729 15.3954 3.98201C15.4728 3.96487 15.5579 3.97935 15.6501 3.97935C15.6447 4.07615 15.5901 4.11719 15.5117 4.16861C15.0451 4.47327 14.5821 4.78517 14.1467 5.13159C13.3447 5.77011 12.5695 6.4388 11.8848 7.20092C11.4194 7.71898 10.9773 8.25346 10.5709 8.82028C10.0964 9.48198 9.69176 10.1794 9.3451 10.9085C9.07589 11.4748 8.86101 12.0638 8.69161 12.6702C8.59032 13.0336 8.50427 13.3998 8.43887 13.7679C8.36339 14.1935 8.28324 14.622 8.28792 15.0585C8.29234 15.4686 8.28988 15.879 8.29996 16.2892C8.30832 16.6346 8.3956 16.9687 8.46739 17.3053C8.54631 17.6748 8.66064 18.0316 8.79168 18.3858C8.98025 18.8959 9.22807 19.3787 9.52113 19.8345C9.8973 20.4194 10.3448 20.9529 10.8591 21.4294C11.3968 21.9275 11.9888 22.3521 12.6352 22.7036C13.1274 22.9713 13.6419 23.1951 14.1769 23.359C14.7053 23.521 15.2469 23.6349 15.7998 23.7069C16.5431 23.8034 17.2853 23.7989 18.0278 23.7527C18.606 23.7168 19.1855 23.661 19.7569 23.5681C20.1402 23.5058 20.5225 23.4198 20.8992 23.3105C21.236 23.2127 21.2207 23.2357 21.2077 23.542C21.1871 24.0301 20.9921 24.4601 20.7455 24.8736C20.3103 25.6036 19.6831 26.1649 19.0572 26.7257C18.5655 27.1662 18.0251 27.5523 17.5427 28.0037C17.1034 28.415 16.6493 28.8129 16.3476 29.3452C16.1258 29.7365 16.0595 30.151 16.1121 30.5875C16.1271 30.7118 16.2146 30.8226 16.2043 30.9556C16.193 31.0343 16.1669 31.1198 16.2876 31.1415C16.295 31.1743 16.3026 31.2072 16.31 31.24C16.3626 31.4092 16.4322 31.5673 16.594 31.6666L16.5971 31.6808C16.5824 31.752 16.6279 31.7653 16.6844 31.7677C16.6913 31.7846 16.6979 31.8015 16.7046 31.8184C16.7658 31.9314 16.8403 32.0294 16.9795 32.0555L16.9888 32.0711C17.1324 32.3015 17.3682 32.404 17.6081 32.5004C17.6081 32.5004 17.6278 32.5139 17.6275 32.5136C17.6666 32.5653 17.7128 32.61 17.7741 32.6356C18.0767 32.7623 18.3725 32.9115 18.6857 33.0037C18.8327 33.0469 18.9721 33.1698 19.1464 33.1121C19.1828 33.1164 19.2195 33.1208 19.2558 33.1251C19.3075 33.2275 19.3945 33.2338 19.4931 33.2087C19.5592 33.2169 19.6254 33.2234 19.6915 33.2299Z" fill="#383636"/>
<path d="M15.5185 0.655154C15.6994 0.607355 15.8749 0.63222 16.049 0.634152C16.0977 0.634634 16.1466 0.652016 16.1951 0.650567C16.8335 0.631496 17.4701 0.695227 18.1039 0.738198C18.6209 0.773202 19.1485 0.767891 19.6587 0.895595C19.7056 0.907424 19.7565 0.910321 19.8052 0.907907C20.1602 0.890043 20.502 0.990951 20.8494 1.03344C21.2169 1.07834 21.5865 1.14376 21.9491 1.22294C22.2822 1.29561 22.6252 1.32771 22.9495 1.42597C23.2492 1.51649 23.558 1.5696 23.8555 1.67341C24.088 1.75452 24.3346 1.80353 24.5707 1.88464C24.8959 1.99665 25.236 2.07221 25.5526 2.20281C25.9226 2.35562 26.3015 2.48647 26.6661 2.65473C27.1158 2.8621 27.561 3.0755 27.9991 3.30532C28.8879 3.77148 29.7054 4.34047 30.484 4.96427C31.0013 5.37876 31.4665 5.85023 31.9147 6.33377C32.1369 6.57373 32.3417 6.83348 32.5384 7.09806C32.768 7.40706 32.992 7.71872 33.2007 8.04124C33.4542 8.43304 33.6843 8.83861 33.8869 9.25841C34.0158 9.52541 34.151 9.79168 34.2518 10.0691C34.358 10.3614 34.5038 10.6443 34.5716 10.9442C34.6375 11.2348 34.785 11.5049 34.7907 11.8089C34.9429 11.9853 34.8241 12.2376 34.9682 12.4201C34.9977 12.4575 34.9906 12.53 34.9857 12.585C34.9758 12.6929 34.9903 12.7924 35.0493 12.8858C35.0661 12.9121 35.0813 12.9466 35.0786 12.9758C35.0459 13.3237 35.2266 13.6501 35.1826 13.9996C35.1728 14.0776 35.1814 14.1626 35.2028 14.2386C35.2623 14.4499 35.2814 14.664 35.2851 14.8817C35.2969 15.5896 35.2996 16.2974 35.2777 17.0052C35.2765 17.0448 35.2691 17.0848 35.2605 17.1237C35.2119 17.3427 35.1632 17.5599 35.1853 17.7888C35.1976 17.9153 35.1858 18.0466 35.1275 18.1668C35.0911 18.2416 35.0838 18.3203 35.0879 18.4019C35.0943 18.5313 35.0919 18.6593 35.0159 18.7742C34.9835 18.8232 34.9744 18.8819 34.9812 18.9371C34.9972 19.0622 34.9744 19.1761 34.9063 19.2831C34.894 19.3024 34.8888 19.3292 34.8881 19.3526C34.8785 19.6713 34.7506 19.9655 34.6668 20.2649C34.5775 20.5838 34.4362 20.894 34.3187 21.2069C34.1456 21.667 33.9054 22.0921 33.6944 22.5322C33.6071 22.7144 33.4931 22.8849 33.3814 23.0563C33.2342 23.2825 33.0965 23.5142 32.9286 23.7271C32.7744 23.9222 32.6242 24.1201 32.4718 24.3167C32.4519 24.3422 32.4265 24.3637 32.4081 24.3898C32.06 24.8849 31.6157 25.2968 31.1717 25.7016C30.7611 26.0758 30.3186 26.4198 29.8598 26.7389C29.3194 27.115 28.7591 27.4624 28.1786 27.7743C27.7484 28.0054 27.2955 28.1961 26.8515 28.4022C26.3588 28.6308 25.842 28.8001 25.3316 28.9835C24.9871 29.1074 24.6311 29.2018 24.2771 29.2969C23.8931 29.4002 23.5088 29.5093 23.1177 29.5769C22.8772 29.6184 22.6313 29.6525 22.3973 29.7094C22.0474 29.7947 21.6823 29.7592 21.3391 29.8741C21.257 29.9016 21.1604 29.8888 21.0704 29.8903C20.7596 29.8951 20.4523 29.9298 20.145 29.9731C20.0324 29.989 19.9161 29.9801 19.8015 29.9808C19.7615 29.981 19.7113 29.9849 19.6983 29.9378C19.6838 29.8852 19.7211 29.849 19.7632 29.8202C19.8426 29.7662 19.9227 29.7131 20.0014 29.658C20.5907 29.245 21.1619 28.8104 21.7187 28.3542C22.2476 27.9209 22.726 27.4405 23.2091 26.9627C23.6118 26.5646 23.9742 26.133 24.329 25.6924C24.7452 25.1758 25.116 24.6295 25.4526 24.0646C25.7346 23.5915 25.9789 23.0939 26.18 22.5776C26.2986 22.2734 26.4414 21.9738 26.5203 21.6607C26.6032 21.3319 26.7404 21.019 26.7829 20.6745C26.8075 20.4761 26.8621 20.2709 26.8992 20.0684C26.9272 19.9148 27.0086 19.7635 26.9331 19.5988C26.91 19.5486 26.9442 19.49 26.9572 19.4349C27.0735 18.9461 27.0777 18.4485 27.058 17.9512C27.0514 17.7851 27.0027 17.6208 26.9769 17.4549C26.9624 17.3617 26.9238 17.2712 26.9611 17.1713C26.9761 17.1309 26.9631 17.0744 26.9479 17.0303C26.8569 16.7681 26.838 16.4886 26.7573 16.2269C26.7045 16.0557 26.6317 15.8814 26.5751 15.7129C26.4856 15.4462 26.3534 15.204 26.2405 14.9508C26.0527 14.5288 25.8154 14.1375 25.5401 13.7626C25.2315 13.3425 24.9006 12.9466 24.5208 12.5872C24.0615 12.1524 23.5533 11.7814 23.0161 11.4482C22.5746 11.1742 22.1015 10.955 21.6189 10.7631C21.3767 10.6668 21.1198 10.5951 20.8666 10.5212C20.6822 10.4676 20.4796 10.4717 20.31 10.3684C20.2967 10.3602 20.2785 10.3549 20.263 10.3556C19.9589 10.3701 19.6771 10.2368 19.372 10.2349C18.9644 10.2322 18.5619 10.1272 18.1506 10.1577C17.5642 10.2009 16.9752 10.2163 16.391 10.2689C15.9657 10.3073 15.5354 10.3641 15.1175 10.4584C14.8303 10.5234 14.5331 10.5693 14.2619 10.6941C14.1643 10.739 14.1205 10.6938 14.1028 10.6129C14.0893 10.5511 14.0765 10.4792 14.0957 10.4222C14.1898 10.1439 14.2137 9.8501 14.3327 9.57417C14.6513 8.83547 15.1691 8.24523 15.7496 7.70665C16.1188 7.36385 16.5053 7.03626 16.9004 6.71978C17.5367 6.21017 18.1516 5.67497 18.6925 5.06518C19.002 4.71634 19.1783 4.30161 19.2614 3.84921C19.2801 3.74806 19.282 3.64281 19.2402 3.54021C19.2132 3.47406 19.1957 3.40116 19.1898 3.33018C19.153 2.88286 18.9447 2.51568 18.6433 2.19267C18.1757 1.69127 17.6046 1.34823 16.9577 1.11021C16.5004 0.941945 16.0394 0.793239 15.5607 0.697883C15.5489 0.695469 15.5398 0.677122 15.5185 0.655154Z" fill="#5B8388"/>
<path d="M64.6101 17.2221C64.6101 14.3013 64.6104 11.3803 64.6094 8.45953C64.6094 8.25289 64.6416 8.05831 64.827 7.93326C64.9509 7.8495 65.0888 7.79252 65.2493 7.79397C65.8148 7.7988 66.3803 7.79614 66.9458 7.79614C70.1746 7.79614 73.4034 7.79059 76.632 7.80387C76.9671 7.80532 77.3101 7.85119 77.6437 7.89898C78.0361 7.95523 78.4288 8.05228 78.802 8.18433C79.5781 8.45881 80.2904 8.85254 80.9043 9.40271C81.3377 9.79113 81.7181 10.2233 82.0264 10.7152C82.3283 11.1968 82.5655 11.7036 82.7305 12.2487C83.0051 13.1559 83.0632 14.0805 82.9842 15.013C82.9481 15.4405 82.8591 15.8652 82.7364 16.2833C82.5201 17.0201 82.1803 17.6893 81.7181 18.3046C81.2736 18.8963 80.7317 19.3803 80.0959 19.7649C79.9253 19.868 79.7554 20.156 79.9061 20.3882C80.0197 20.563 80.1306 20.7397 80.2483 20.912C80.8411 21.7789 81.4344 22.6456 82.0303 23.5105C82.4375 24.1013 82.8498 24.6884 83.2591 25.2776C83.3941 25.472 83.5443 25.6586 83.6559 25.8652C83.799 26.1293 83.7457 26.6261 83.2726 26.6568C83.1829 26.6626 83.0927 26.6645 83.0024 26.6645C81.8304 26.665 80.6587 26.6587 79.4869 26.6689C79.155 26.6718 78.9419 26.5709 78.7577 26.2742C78.486 25.837 78.1861 25.414 77.8984 24.9851C77.3585 24.1795 76.8263 23.3691 76.2866 22.563C75.9353 22.0382 75.5709 21.5218 75.225 20.9936C75.1148 20.8254 74.9732 20.7575 74.7829 20.7571C74.3569 20.7563 73.9306 20.7568 73.5045 20.7566C72.7834 20.7566 72.062 20.7525 71.3409 20.759C71.1605 20.7607 71.0253 20.6897 70.9087 20.5707C70.8345 20.4951 70.7868 20.4092 70.7895 20.2921C70.7961 20.0027 70.7858 19.713 70.7855 19.4233C70.7851 18.6911 70.7887 17.9589 70.7851 17.2265C70.7841 17.0333 70.8576 16.8926 71.0169 16.7791C71.0742 16.7384 71.1261 16.7145 71.1912 16.7111C71.2893 16.7058 71.3877 16.7004 71.4857 16.7004C72.8952 16.6997 74.305 16.7096 75.7142 16.6927C76.028 16.6889 76.3439 16.6302 76.6551 16.5423C77.0996 16.4168 77.4527 16.1824 77.7455 15.8427C77.9304 15.6284 78.0246 15.3749 78.1145 15.111C78.236 14.7552 78.2222 14.3916 78.1886 14.0382C78.1128 13.2457 77.7231 12.6448 76.9603 12.3059C76.6507 12.1683 76.3259 12.119 75.9938 12.077C75.6265 12.0304 75.2594 12.0345 74.8914 12.0343C73.3508 12.0338 71.81 12.034 70.2695 12.034C70.1876 12.034 70.1043 12.0256 70.0239 12.0365C69.6204 12.091 69.4498 12.2221 69.437 12.6286C69.4348 12.7011 69.4365 12.7735 69.4365 12.8459C69.4365 17.2151 69.4365 21.5846 69.4363 25.9538C69.4363 26.0504 69.4383 26.1474 69.4279 26.243C69.4033 26.4668 69.2487 26.6218 69.0223 26.6515C68.9333 26.6631 68.8425 26.6645 68.7526 26.6648C67.6216 26.6655 66.4907 26.6653 65.3597 26.6653C65.327 26.6653 65.2941 26.6657 65.2614 26.665C64.8139 26.6561 64.6099 26.4521 64.6099 26.0096C64.6099 23.0801 64.6101 20.1511 64.6101 17.2221Z" fill="#383636"/>
<path d="M105.252 26.6721C104.596 26.6724 103.94 26.669 103.285 26.6736C102.907 26.6762 102.793 26.6229 102.598 26.2026C102.407 25.792 102.216 25.3813 102.035 24.9663C101.868 24.5842 101.698 24.204 101.52 23.8267C101.323 23.4085 101.148 22.9805 100.956 22.5598C100.727 22.0574 100.508 21.5507 100.273 21.0517C100.017 20.5093 99.7722 19.9613 99.5256 19.4154C99.31 18.9377 99.0912 18.4599 98.8866 17.9767C98.5933 17.2836 98.258 16.6076 97.946 15.9223C97.7186 15.4228 97.5133 14.9134 97.2736 14.4198C97.0142 13.8853 96.7909 13.3356 96.5279 12.8026C96.2977 12.3367 96.1102 11.8505 95.8958 11.3766C95.6448 10.8218 95.3839 10.2714 95.1302 9.71788C94.9566 9.33911 94.7739 8.96372 94.6205 8.57699C94.4789 8.21995 94.6333 7.81655 95.1479 7.80907C96.385 7.79121 97.6227 7.804 98.8601 7.80279C99.102 7.80255 99.2829 7.9276 99.3847 8.1159C99.5748 8.46763 99.7265 8.83915 99.8976 9.20078C100.078 9.581 100.262 9.95904 100.444 10.3385C100.667 10.803 100.889 11.2675 101.111 11.7322C101.284 12.0945 101.453 12.4588 101.628 12.8202C101.777 13.1275 101.936 13.43 102.084 13.7378C102.275 14.1356 102.457 14.5373 102.646 14.9359C103.106 15.9034 103.566 16.8703 104.026 17.8371C104.29 18.3899 104.55 18.9437 104.82 19.4934C104.903 19.6622 105.036 19.766 105.248 19.773C105.464 19.7802 105.6 19.6696 105.685 19.5098C105.919 19.0685 106.135 18.6186 106.37 18.177C106.636 17.6759 106.886 17.1662 107.143 16.6605C107.46 16.0386 107.776 15.416 108.096 14.7961C108.313 14.3778 108.548 13.9691 108.755 13.5463C109.053 12.9363 109.363 12.3321 109.673 11.7276C109.991 11.105 110.306 10.4805 110.626 9.85837C110.875 9.37484 111.132 8.89564 111.38 8.41162C111.663 7.85808 111.938 7.30018 112.22 6.74591C112.505 6.18585 112.793 5.62723 113.081 5.06862C113.475 4.30384 113.874 3.541 114.264 2.77477C114.368 2.57126 114.459 2.36221 114.579 2.16594C114.69 1.98465 114.829 1.88977 115.058 1.89122C116.32 1.89895 117.582 1.90909 118.844 1.88857C119.424 1.87915 119.557 2.35448 119.368 2.72818C119.141 3.17816 118.93 3.63514 118.705 4.08585C118.486 4.52521 118.272 4.96699 118.055 5.40755C117.826 5.87323 117.6 6.34059 117.379 6.81013C117.144 7.31057 116.862 7.79 116.637 8.29478C116.433 8.75587 116.207 9.20682 115.987 9.66018C115.716 10.2222 115.441 10.7834 115.161 11.3418C114.935 11.7928 114.718 12.2483 114.499 12.7024C114.359 12.9911 114.225 13.2823 114.084 13.5702C113.851 14.0482 113.616 14.5253 113.386 15.0052C113.158 15.4815 112.919 15.9534 112.686 16.428C112.344 17.125 112.009 17.8255 111.667 18.522C111.423 19.0174 111.168 19.5098 110.932 20.0081C110.686 20.5259 110.427 21.0382 110.188 21.5594C109.885 22.2206 109.535 22.861 109.216 23.5157C108.898 24.1678 108.599 24.8283 108.282 25.4803C108.149 25.7538 108.006 26.0227 107.878 26.2987C107.764 26.5415 107.573 26.684 107.267 26.6765C106.596 26.6605 105.924 26.6719 105.252 26.6721Z" fill="#383636"/>
<path d="M43.0095 17.2258C43.0095 14.2972 43.0093 11.369 43.011 8.44047C43.011 8.32291 42.9901 8.20293 43.0624 8.08995C43.1826 7.90214 43.3626 7.82368 43.5738 7.79857C43.6544 7.78892 43.7375 7.79737 43.8194 7.79737C47.5473 7.79737 51.2755 7.79061 55.0034 7.80823C55.3449 7.80992 55.7009 7.83985 56.0402 7.90214C56.5182 7.98977 57.0027 8.08899 57.4482 8.28284C58.1329 8.58073 58.7783 8.94646 59.3315 9.45873C59.7991 9.89157 60.2031 10.3662 60.5254 10.9127C60.8332 11.4349 61.0496 11.9882 61.1985 12.5729C61.4058 13.3869 61.4346 14.2144 61.3593 15.0389C61.2627 16.0994 60.9451 17.0939 60.3265 17.9925C59.7583 18.8178 59.037 19.4622 58.1639 19.9556C57.7042 20.2153 57.2122 20.4056 56.7026 20.5304C56.1646 20.6619 55.6156 20.759 55.0548 20.7583C53.3014 20.7563 51.5482 20.7549 49.7947 20.7604C49.5378 20.7612 49.36 20.6706 49.2418 20.4485C49.2047 20.379 49.2042 20.31 49.2039 20.239C49.2029 19.2333 49.2012 18.2278 49.2044 17.2221C49.2054 16.9124 49.3977 16.7174 49.7101 16.7055C49.9474 16.6966 50.1851 16.7017 50.4229 16.7017C51.6438 16.7014 52.8645 16.7084 54.0852 16.6971C54.4033 16.6942 54.7163 16.6249 55.0285 16.5411C55.5571 16.3992 55.9524 16.1054 56.243 15.6602C56.3901 15.435 56.4729 15.1888 56.5236 14.9247C56.5988 14.5314 56.5929 14.1413 56.5135 13.7538C56.4092 13.245 56.1501 12.8215 55.7127 12.5212C55.3481 12.2709 54.939 12.1388 54.4925 12.0951C54.1014 12.0568 53.7115 12.0331 53.3183 12.0341C51.7124 12.0379 50.1065 12.0355 48.5005 12.0355C48.4189 12.0355 48.3365 12.0283 48.2566 12.0541C47.9677 12.1482 47.8431 12.2438 47.8195 12.6311C47.8156 12.6953 47.819 12.7597 47.819 12.8242C47.819 17.1927 47.819 21.5612 47.819 25.9297C47.819 25.9859 47.8131 26.0429 47.82 26.0984C47.8596 26.4236 47.6071 26.6715 47.2498 26.6679C46.7419 26.6626 46.234 26.6667 45.726 26.6667C45.0379 26.6667 44.3495 26.6684 43.6613 26.6657C43.5332 26.6653 43.4046 26.6735 43.2829 26.6027C43.0781 26.4832 43.0061 26.3152 43.0068 26.0837C43.0123 24.0322 43.01 21.9808 43.01 19.9293C43.0095 19.0279 43.0095 18.1269 43.0095 17.2258Z" fill="#383636"/>
<path d="M163.753 19.6731C163.271 20.1648 162.792 20.6525 162.315 21.1411C162.072 21.3902 161.839 21.6507 161.585 21.8892C161.387 22.0761 161.325 22.2977 161.325 22.5536C161.327 23.6158 161.326 24.678 161.326 25.7401C161.326 25.8688 161.319 25.998 161.327 26.1264C161.346 26.4306 161.132 26.6708 160.783 26.6635C160.726 26.6623 160.668 26.6645 160.611 26.6645C159.505 26.6645 158.398 26.6645 157.292 26.6645C157.226 26.6645 157.161 26.6657 157.095 26.6635C156.709 26.6502 156.501 26.4397 156.501 26.059C156.501 20.1769 156.501 14.2946 156.501 8.41243C156.501 8.03439 156.745 7.79636 157.136 7.79588C158.324 7.79467 159.513 7.79202 160.701 7.79757C161.093 7.79926 161.336 8.0385 161.334 8.4035C161.318 10.5276 161.326 12.6523 161.326 14.7764C161.326 14.8884 161.33 14.9968 161.371 15.1074C161.505 15.4683 161.851 15.5586 162.134 15.3C162.508 14.9591 162.869 14.6048 163.237 14.2579C164.201 13.349 165.136 12.4109 166.102 11.5039C167.187 10.4849 168.257 9.45121 169.324 8.41461C169.461 8.28159 169.603 8.15341 169.739 8.0187C169.891 7.86734 170.078 7.79323 170.301 7.79395C171.522 7.79733 172.743 7.79636 173.964 7.79467C174.175 7.79443 174.357 7.8613 174.484 8.02232C174.656 8.23959 174.625 8.50514 174.42 8.7224C174.26 8.89211 174.095 9.05772 173.931 9.22453C173.247 9.92243 172.561 10.6187 171.879 11.3185C171.084 12.1328 170.294 12.9504 169.501 13.7656C168.764 14.5227 168.026 15.2785 167.289 16.0351C167.156 16.172 167.025 16.3108 166.89 16.4457C166.813 16.5225 166.819 16.5821 166.89 16.6673C167.424 17.3037 167.951 17.9446 168.481 18.5844C168.871 19.0565 169.26 19.5297 169.651 20.0019C169.976 20.3944 170.302 20.7865 170.628 21.1778C171.011 21.6362 171.395 22.0927 171.777 22.5514C172.369 23.2614 172.959 23.9721 173.549 24.6833C173.837 25.0302 174.119 25.3809 174.41 25.7254C174.468 25.7945 174.516 25.8686 174.557 25.9453C174.712 26.2348 174.503 26.615 174.172 26.6531C174.083 26.6635 173.992 26.664 173.902 26.664C172.73 26.6647 171.558 26.6587 170.386 26.6684C170.089 26.6708 169.866 26.5928 169.667 26.3596C169.141 25.7433 168.583 25.1535 168.052 24.5411C167.448 23.8441 166.841 23.1501 166.225 22.4638C165.643 21.8156 165.078 21.152 164.505 20.4956C164.306 20.2674 164.103 20.0432 163.907 19.8119C163.861 19.7566 163.805 19.7175 163.753 19.6731Z" fill="#383636"/>
<path d="M191.492 19.0472C191.138 18.3761 190.78 17.7064 190.429 17.0334C190.112 16.425 189.804 15.8121 189.489 15.2026C189.291 14.8204 189.089 14.4407 188.889 14.0595C188.796 13.8809 188.668 13.759 188.443 13.7696C188.223 13.78 188.095 13.9077 188.003 14.0839C187.701 14.6618 187.404 15.2414 187.103 15.8194C186.634 16.7172 186.164 17.6135 185.695 18.5108C185.204 19.4516 184.713 20.3923 184.224 21.3341C183.741 22.2647 183.264 23.1984 182.777 24.1269C182.4 24.8453 182.01 25.557 181.631 26.2742C181.594 26.3433 181.577 26.4191 181.523 26.4835C181.441 26.5813 181.349 26.6481 181.218 26.6549C181.136 26.6593 181.054 26.6675 180.973 26.6677C179.785 26.6684 178.596 26.6682 177.408 26.6684C177.243 26.6684 177.083 26.6631 176.947 26.5484C176.792 26.4176 176.728 26.063 176.833 25.8655C177.068 25.4245 177.304 24.9836 177.541 24.5436C177.893 23.8925 178.236 23.2373 178.583 22.5841C178.926 21.9393 179.257 21.2875 179.594 20.6395C180.089 19.6903 180.59 18.7442 181.088 17.797C181.432 17.1437 181.785 16.4951 182.114 15.8343C182.31 15.4401 182.525 15.0551 182.733 14.6662C182.927 14.3026 183.117 13.9369 183.305 13.5702C183.58 13.0321 183.885 12.5077 184.163 11.9706C184.369 11.5728 184.58 11.1778 184.792 10.7834C185.011 10.3761 185.208 9.95727 185.423 9.54785C185.673 9.07228 185.945 8.60733 186.184 8.12644C186.306 7.88021 186.51 7.80586 186.747 7.8032C187.574 7.79354 188.402 7.79958 189.229 7.79958C189.492 7.79958 189.756 7.81768 190.016 7.79548C190.45 7.75854 190.718 7.95239 190.885 8.32657C191.136 8.88784 191.448 9.4187 191.725 9.96693C192.078 10.6634 192.446 11.3524 192.811 12.0421C193.12 12.6248 193.407 13.2189 193.725 13.7956C194.083 14.4438 194.416 15.1048 194.762 15.7585C195.144 16.4806 195.523 17.2043 195.901 17.9283C196.158 18.42 196.419 18.9098 196.673 19.4028C197.044 20.1212 197.421 20.8363 197.792 21.5542C198.232 22.4049 198.667 23.2581 199.119 24.1028C199.396 24.6225 199.668 25.1449 199.943 25.6654C199.98 25.7344 199.996 25.7977 199.996 25.8689C199.998 26.0379 199.999 26.2069 199.997 26.3758C199.994 26.5306 199.933 26.6122 199.78 26.6428C199.676 26.6636 199.568 26.6667 199.462 26.667C198.299 26.6684 197.135 26.6556 195.971 26.6749C195.582 26.6815 195.351 26.5306 195.195 26.1984C194.897 25.5676 194.567 24.9532 194.232 24.3408C194.084 24.0709 193.949 23.7925 193.818 23.514C193.771 23.414 193.717 23.379 193.621 23.3747C193.556 23.3718 193.49 23.3732 193.425 23.3732C191.015 23.3732 188.606 23.3727 186.197 23.3742C186.056 23.3742 185.92 23.3689 185.791 23.3056C185.548 23.1859 185.438 22.8607 185.548 22.6393C185.943 21.8393 186.321 21.0316 186.709 20.2282C186.826 19.9872 186.969 19.7577 187.072 19.5117C187.202 19.2017 187.459 19.1039 187.755 19.0996C188.599 19.0875 189.443 19.0953 190.287 19.0953C190.615 19.0953 190.943 19.0965 191.271 19.0943C191.341 19.0943 191.417 19.1143 191.492 19.0472Z" fill="#383636"/>
<path d="M143.55 7.79747C146.361 7.79747 149.172 7.7994 151.983 7.7953C152.442 7.79458 152.692 8.11154 152.686 8.46931C152.671 9.45087 152.68 10.4327 152.681 11.4142C152.681 11.6317 152.629 11.8188 152.432 11.9523C152.367 11.996 152.306 12.0233 152.233 12.0284C152.151 12.0342 152.069 12.0349 151.987 12.0349C150.201 12.0351 148.414 12.0354 146.628 12.0346C146.428 12.0346 146.241 12.0629 146.09 12.2104C146.028 12.2705 145.988 12.3318 145.987 12.4187C145.985 12.5392 145.972 12.6596 145.972 12.7801C145.972 17.1817 145.972 21.583 145.972 25.9846C145.972 26.114 145.966 26.2378 145.909 26.3602C145.83 26.5277 145.701 26.6224 145.522 26.6513C145.434 26.6656 145.342 26.6658 145.253 26.6658C144.105 26.6665 142.958 26.6675 141.811 26.6646C141.667 26.6644 141.518 26.6837 141.385 26.5922C141.212 26.4722 141.14 26.3015 141.117 26.1058C141.107 26.0263 141.114 25.945 141.114 25.8646C141.114 21.4551 141.114 17.0455 141.114 12.636C141.114 12.509 141.131 12.3806 141.053 12.2618C140.947 12.1015 140.777 12.0738 140.61 12.0421C140.531 12.0272 140.447 12.0354 140.365 12.0354C138.612 12.0351 136.858 12.0354 135.104 12.0351C135.03 12.0351 134.956 12.0373 134.883 12.033C134.638 12.018 134.456 11.8524 134.422 11.6134C134.414 11.5579 134.415 11.5011 134.415 11.4449C134.415 10.431 134.416 9.41707 134.414 8.40316C134.414 8.26435 134.419 8.12868 134.517 8.01764C134.637 7.88269 134.794 7.81654 134.971 7.79868C135.068 7.78878 135.167 7.79747 135.266 7.79747C138.027 7.79747 140.789 7.79747 143.55 7.79747Z" fill="#383636"/>
<path d="M86.6009 17.2378C86.6009 14.3172 86.6004 11.3969 86.6024 8.4764C86.6024 8.34315 86.5807 8.2082 86.6653 8.08098C86.7998 7.8782 86.9871 7.79395 87.2254 7.79395C88.3806 7.79443 89.5359 7.79443 90.6912 7.79395C90.8269 7.79395 90.9543 7.79877 91.0853 7.86395C91.2635 7.95255 91.3845 8.06408 91.399 8.26517C91.4042 8.33735 91.4042 8.40977 91.4042 8.4822C91.4044 14.323 91.4044 20.1639 91.4037 26.005C91.4037 26.1327 91.4238 26.265 91.3555 26.3832C91.267 26.5363 91.1468 26.6486 90.9545 26.6563C90.881 26.6592 90.8072 26.663 90.7335 26.663C89.5863 26.6635 88.4394 26.6633 87.2922 26.663C87.2676 26.663 87.2428 26.6611 87.2185 26.6633C86.7949 26.7014 86.5933 26.3963 86.5947 26.0474C86.6058 23.111 86.6009 20.1745 86.6009 17.2378Z" fill="#383636"/>
<path d="M19.1471 33.1224C18.9725 33.1801 18.8334 33.0574 18.6863 33.014C18.3731 32.9218 18.0774 32.7726 17.7747 32.6458C17.7137 32.6202 17.6673 32.5756 17.6282 32.5239C17.8435 32.5384 18.0078 32.6791 18.1983 32.7542C18.4663 32.86 18.7355 32.9575 19.0123 33.0359C19.0669 33.0516 19.1242 33.0606 19.1471 33.1224Z" fill="#5B8388"/>
<path d="M17.6076 32.5087C17.3672 32.4123 17.1315 32.3096 16.9878 32.0791C17.2159 32.1927 17.4162 32.3444 17.6076 32.5087Z" fill="#5B8388"/>
<path d="M16.5941 31.6694C16.4314 31.5701 16.3615 31.4117 16.3086 31.2422C16.3247 31.2441 16.3531 31.2424 16.3551 31.2485C16.404 31.4056 16.5684 31.5002 16.5941 31.6694Z" fill="#5B8388"/>
<path d="M16.9792 32.0624C16.8395 32.0364 16.7646 31.938 16.7031 31.8252C16.835 31.86 16.894 31.976 16.9792 32.0624Z" fill="#5B8388"/>
<path d="M19.4918 33.2142C19.3932 33.2393 19.3059 33.2327 19.2539 33.1307C19.3518 33.108 19.4423 33.1058 19.4918 33.2142Z" fill="#5B8388"/>
<path d="M16.2875 31.143C16.1688 31.1217 16.1944 31.038 16.2056 30.9609C16.296 30.9945 16.3211 31.056 16.2875 31.143Z" fill="#5B8388"/>
<path d="M16.6857 31.7768C16.628 31.7744 16.5816 31.7611 16.5966 31.6885C16.6342 31.7106 16.6892 31.7155 16.6857 31.7768Z" fill="#5B8388"/>
</svg>
