<svg width="32" height="32" viewBox="0 0 32 32" fill="none" xmlns="http://www.w3.org/2000/svg">
<circle cx="16" cy="16" r="16" fill="#E9E8E5"/>
<g opacity="0.6" clip-path="url(#clip0_1_24883)">
<path fill-rule="evenodd" clip-rule="evenodd" d="M14.3128 12.8304C14.035 12.5231 13.5607 12.4992 13.2535 12.777L8.82906 16.777C8.67178 16.9192 8.58203 17.1213 8.58203 17.3334C8.58203 17.5454 8.67178 17.7475 8.82906 17.8897L13.2535 21.8897C13.5607 22.1675 14.035 22.1436 14.3128 21.8363C14.5906 21.5291 14.5667 21.0548 14.2594 20.777L11.28 18.0834H25.332C25.7462 18.0834 26.082 17.7476 26.082 17.3334C26.082 16.9192 25.7462 16.5834 25.332 16.5834H11.28L14.2594 13.8897C14.5667 13.6119 14.5906 13.1377 14.3128 12.8304Z" fill="#383636"/>
</g>
<defs>
<clipPath id="clip0_1_24883">
<rect width="21.3333" height="21.3333" fill="white" transform="translate(5.33203 5.33337)"/>
</clipPath>
</defs>
</svg>
