<svg width="26" height="26" viewBox="0 0 26 26" fill="none" xmlns="http://www.w3.org/2000/svg">
<rect width="26" height="26" rx="13" fill="#5B8388"/>
<path fill-rule="evenodd" clip-rule="evenodd" d="M9.16614 7.86846C9.54871 7.47397 10.0909 7.25 10.7273 7.25C11.5223 7.25 12.0567 7.71501 12.4552 8.22648C12.6339 8.45575 12.8144 8.73388 13 9.03755C13.1856 8.73388 13.3661 8.45575 13.5448 8.22648C13.9433 7.71501 14.4777 7.25 15.2727 7.25C15.9091 7.25 16.4513 7.47397 16.8339 7.86846C17.2079 8.25415 17.3864 8.75897 17.3864 9.2499C17.3864 9.41667 17.3658 9.58504 17.3239 9.7498H18C18.4142 9.7498 18.75 10.0856 18.75 10.4998V12.9999C18.75 13.4141 18.4142 13.7499 18 13.7499H17.8409V18C17.8409 18.4142 17.5051 18.75 17.0909 18.75H8.90909C8.49488 18.75 8.15909 18.4142 8.15909 18V13.7499H8C7.58579 13.7499 7.25 13.4141 7.25 12.9999V10.4998C7.25 10.0856 7.58579 9.7498 8 9.7498H8.67609C8.63423 9.58504 8.61364 9.41667 8.61364 9.2499C8.61364 8.75897 8.79212 8.25415 9.16614 7.86846ZM10.7273 9.7498C10.4545 9.7498 10.3149 9.6613 10.243 9.58708C10.1624 9.50405 10.1136 9.38392 10.1136 9.2499C10.1136 9.11588 10.1624 8.99575 10.243 8.91272C10.3149 8.8385 10.4545 8.75 10.7273 8.75C10.8413 8.75 10.9888 8.785 11.272 9.14849C11.4035 9.31715 11.5334 9.51509 11.6775 9.7498H10.7273ZM12.25 11.2498V12.2499H8.75V11.2498H12.25ZM9.65909 13.7499V17.25H12.25V13.7499H9.65909ZM13.75 13.7499V17.25H16.3409V13.7499H13.75ZM17.25 12.2499V11.2498H13.75V12.2499H17.25ZM15.2727 9.7498C15.5455 9.7498 15.6851 9.6613 15.757 9.58708C15.8376 9.50405 15.8864 9.38392 15.8864 9.2499C15.8864 9.11588 15.8376 8.99575 15.757 8.91272C15.6851 8.8385 15.5455 8.75 15.2727 8.75C15.1587 8.75 15.0112 8.785 14.728 9.14849C14.5965 9.31715 14.4666 9.51509 14.3225 9.7498H15.2727Z" fill="#383636"/>
</svg>
