<svg width="24" height="24" viewBox="0 0 24 24" fill="none" xmlns="http://www.w3.org/2000/svg">
<path fill-rule="evenodd" clip-rule="evenodd" d="M12 24C18.6274 24 24 18.6274 24 12C24 5.37258 18.6274 0 12 0C5.37258 0 0 5.37258 0 12C0 18.6274 5.37258 24 12 24ZM13.6737 8.19457L13.7006 8.18481H13.6835L13.6737 8.19457ZM10.3653 8.18399C10.3653 8.18399 8.98291 8.13192 7.49146 9.21735C7.49146 9.21735 6 11.7755 6 14.9293C6 14.9293 6.82669 16.3451 9.09357 16.3988C9.09357 16.3988 9.42474 15.9651 9.75915 15.5835C8.48576 15.2027 7.99024 14.4411 7.99024 14.4411L8.41578 14.6575C8.4978 14.6908 8.58014 14.7247 8.66306 14.7588L8.66381 14.7591L8.66393 14.7592C9.83938 15.2426 11.1332 15.7748 13.3247 15.4191L13.359 15.4115L13.359 15.4115C13.8431 15.3043 14.328 15.1969 14.812 14.9838C14.9009 14.939 14.9954 14.8941 15.0948 14.8469L15.0949 14.8469L15.0949 14.8469L15.0949 14.8469C15.3562 14.7229 15.6514 14.5827 15.9666 14.3842C15.9666 14.3842 15.4703 15.1458 14.144 15.5265C14.4174 15.9057 14.8015 16.3402 14.8015 16.3402C16.6595 16.3002 17.5868 15.3425 17.8884 15.0309C17.9549 14.9622 17.991 14.9249 18 14.9358C18 11.7869 16.4996 9.22386 16.4996 9.22386C15.1587 8.24339 13.9056 8.19945 13.6688 8.19864L13.5175 8.34754C15.2303 8.83574 16.0594 9.59815 16.0594 9.59815C13.5745 8.37439 10.8902 8.30442 8.43206 9.27106C8.04556 9.43623 7.82425 9.54445 7.82425 9.54445C7.82425 9.54445 8.65175 8.72915 10.4768 8.29384L10.3653 8.18399ZM14.8969 12.8636C14.8969 13.4657 14.4258 13.9539 13.8472 13.9539C13.2687 13.9539 12.7976 13.4657 12.7976 12.8685C12.7992 12.2664 13.2712 11.7798 13.8472 11.7798V11.7773C14.4282 11.7773 14.8969 12.2655 14.8969 12.8636ZM10.0892 13.9539C10.6677 13.9539 11.1388 13.4657 11.1388 12.8636C11.1388 12.2655 10.671 11.7773 10.0924 11.7773L10.0892 11.7798C9.51067 11.7798 9.03955 12.2664 9.03955 12.8685C9.03955 13.4657 9.51067 13.9539 10.0892 13.9539Z" fill="#5B8388"/>
</svg>
