<svg width="114" height="19" viewBox="0 0 114 19" fill="none" xmlns="http://www.w3.org/2000/svg">
<g opacity="0.3">
<path d="M1.30137 4.64294H2.94164L5.93751 12.1936L8.83848 4.64294H10.4652V14.3354H9.28583V6.17476L6.07307 14.3354H5.70706L2.38585 6.17476V14.3354H1.30137V4.64294ZM14.0869 14.4575C13.7615 14.4575 13.4543 14.4168 13.1651 14.3354C12.8759 14.2541 12.6228 14.1276 12.4059 13.9559C12.1981 13.7842 12.0309 13.5673 11.9044 13.3052C11.7869 13.0431 11.7281 12.7313 11.7281 12.3698C11.7281 11.9632 11.8275 11.6197 12.0264 11.3396C12.2252 11.0594 12.4873 10.8335 12.8126 10.6618C13.147 10.4901 13.5266 10.3681 13.9513 10.2958C14.3851 10.2144 14.8279 10.1738 15.2798 10.1738H16.2965V9.65864C16.2965 9.08929 16.179 8.68261 15.944 8.43861C15.7091 8.18556 15.3205 8.05904 14.7782 8.05904C13.8022 8.05904 13.2599 8.48379 13.1515 9.3333H12.0264C12.0625 8.92662 12.1619 8.5832 12.3246 8.30305C12.4963 8.02289 12.7087 7.79696 12.9617 7.62525C13.2238 7.4445 13.513 7.31798 13.8293 7.24568C14.1546 7.16435 14.489 7.12368 14.8324 7.12368C15.1668 7.12368 15.4922 7.16435 15.8085 7.24568C16.1248 7.31798 16.4004 7.45354 16.6354 7.65236C16.8704 7.84215 17.0601 8.09971 17.2047 8.42505C17.3493 8.75039 17.4216 9.16159 17.4216 9.65864V14.3354H16.2965V13.4408C16.0344 13.7751 15.7317 14.0282 15.3882 14.1999C15.0448 14.3716 14.611 14.4575 14.0869 14.4575ZM14.1953 13.5628C14.4935 13.5628 14.7692 13.5266 15.0222 13.4543C15.2843 13.373 15.5057 13.26 15.6865 13.1154C15.8762 12.9708 16.0254 12.7946 16.1338 12.5867C16.2423 12.3698 16.2965 12.1258 16.2965 11.8547V10.9736H15.3205C14.968 10.9736 14.6381 11.0007 14.3309 11.0549C14.0326 11.1001 13.7706 11.1769 13.5446 11.2854C13.3277 11.3938 13.156 11.5384 13.0295 11.7191C12.912 11.8909 12.8533 12.1078 12.8533 12.3698C12.8533 12.7404 12.9527 13.0341 13.1515 13.251C13.3503 13.4588 13.6983 13.5628 14.1953 13.5628ZM21.7834 14.4575C21.3225 14.4575 20.8932 14.3806 20.4955 14.227C20.1069 14.0643 19.768 13.8339 19.4789 13.5356C19.1987 13.2284 18.9773 12.8578 18.8146 12.4241C18.661 11.9812 18.5842 11.4842 18.5842 10.9329V10.8245C18.5842 10.2822 18.6655 9.78517 18.8282 9.3333C18.9908 8.88144 19.2168 8.49283 19.506 8.16749C19.7952 7.83311 20.1431 7.57555 20.5498 7.3948C20.9565 7.21405 21.4038 7.12368 21.8918 7.12368C22.4883 7.12368 22.9718 7.2502 23.3423 7.50325C23.7128 7.74725 24.002 8.04097 24.2099 8.38438V3.85669H25.335V14.3354H24.2099V13.1154C24.1105 13.2871 23.9749 13.4543 23.8032 13.617C23.6315 13.7797 23.4372 13.9243 23.2203 14.0508C23.0124 14.1683 22.782 14.2632 22.5289 14.3354C22.2849 14.4168 22.0364 14.4575 21.7834 14.4575ZM21.9054 13.5221C22.2307 13.5221 22.538 13.4679 22.8272 13.3594C23.1164 13.251 23.3649 13.0883 23.5728 12.8714C23.7806 12.6455 23.9433 12.3653 24.0608 12.0309C24.1873 11.6875 24.2505 11.2899 24.2505 10.838V10.7296C24.2505 9.8168 24.0472 9.14352 23.6405 8.70973C23.2429 8.27594 22.6961 8.05904 22.0003 8.05904C21.2954 8.05904 20.7441 8.29401 20.3464 8.76395C19.9488 9.23389 19.75 9.90265 19.75 10.7702V10.8787C19.75 11.3305 19.8042 11.7237 19.9126 12.058C20.0301 12.3834 20.1838 12.6545 20.3735 12.8714C20.5724 13.0883 20.8028 13.251 21.0649 13.3594C21.327 13.4679 21.6071 13.5221 21.9054 13.5221ZM29.9938 14.4575C29.4877 14.4575 29.0268 14.3716 28.6111 14.1999C28.1954 14.0282 27.8339 13.7887 27.5266 13.4814C27.2194 13.1651 26.9799 12.7856 26.8082 12.3427C26.6455 11.8999 26.5642 11.4074 26.5642 10.8651V10.7567C26.5642 10.2235 26.6455 9.73546 26.8082 9.29263C26.9708 8.84077 27.1968 8.45668 27.486 8.14038C27.7842 7.81503 28.1367 7.56651 28.5433 7.3948C28.95 7.21405 29.3974 7.12368 29.8854 7.12368C30.2921 7.12368 30.6852 7.19146 31.0647 7.32702C31.4534 7.45354 31.7968 7.65688 32.095 7.93704C32.3932 8.21719 32.6282 8.5832 32.7999 9.03507C32.9807 9.4779 33.071 10.0156 33.071 10.6482V11.0142H27.73C27.7571 11.8276 27.9604 12.4512 28.34 12.885C28.7196 13.3097 29.2754 13.5221 30.0074 13.5221C31.119 13.5221 31.7471 13.1109 31.8917 12.2885H33.0168C32.8903 13.0024 32.5559 13.5447 32.0137 13.9152C31.4714 14.2767 30.7981 14.4575 29.9938 14.4575ZM31.9188 10.106C31.8645 9.37397 31.6567 8.84981 31.2952 8.5335C30.9427 8.21719 30.4728 8.05904 29.8854 8.05904C29.307 8.05904 28.8325 8.24431 28.462 8.61484C28.1005 8.97633 27.8701 9.47338 27.7706 10.106H31.9188ZM40.7129 14.4575C40.1345 14.4575 39.642 14.3309 39.2353 14.0779C38.8286 13.8248 38.5213 13.5221 38.3135 13.1696V14.3354H37.1883V3.85669H38.3135V8.43861C38.4129 8.2669 38.5439 8.10423 38.7066 7.95059C38.8783 7.78792 39.0681 7.64784 39.2759 7.53036C39.4838 7.40384 39.7097 7.30443 39.9537 7.23213C40.1978 7.15983 40.4508 7.12368 40.7129 7.12368C41.1738 7.12368 41.6031 7.20502 42.0007 7.36769C42.3983 7.53036 42.7372 7.76533 43.0174 8.0726C43.3066 8.37987 43.5325 8.75491 43.6952 9.19774C43.8579 9.64057 43.9392 10.1376 43.9392 10.6889V10.7973C43.9392 11.3396 43.8624 11.8366 43.7087 12.2885C43.5551 12.7313 43.3382 13.1154 43.0581 13.4408C42.7779 13.7661 42.439 14.0191 42.0414 14.1999C41.6437 14.3716 41.2009 14.4575 40.7129 14.4575ZM40.6044 13.5221C41.3093 13.5221 41.8471 13.2962 42.2176 12.8443C42.5881 12.3834 42.7734 11.7191 42.7734 10.8516V10.7431C42.7734 10.3003 42.7146 9.91169 42.5972 9.57731C42.4797 9.23389 42.3215 8.95373 42.1227 8.73684C41.9329 8.51091 41.7025 8.34372 41.4313 8.23527C41.1693 8.11778 40.8891 8.05904 40.5909 8.05904C40.2655 8.05904 39.9583 8.11326 39.6691 8.22171C39.3889 8.33016 39.1449 8.49735 38.9371 8.72328C38.7292 8.94018 38.5665 9.22033 38.449 9.56375C38.3316 9.89813 38.2728 10.2913 38.2728 10.7431V10.8516C38.2728 11.3034 38.327 11.6966 38.4355 12.0309C38.553 12.3653 38.7111 12.6455 38.9099 12.8714C39.1178 13.0883 39.3663 13.251 39.6555 13.3594C39.9447 13.4679 40.261 13.5221 40.6044 13.5221ZM47.0151 13.6034L44.2362 7.24568H45.4426L47.6116 12.3292L49.5772 7.24568H50.7295L46.8118 16.8026H45.6731L47.0151 13.6034Z" fill="white"/>
<path d="M64.9545 0.101074H54.4474V14.1474H57.1999V10.534H62.6254V7.8876H57.1999V2.72203H62.5725L62.6254 2.69658L64.9545 0.431874L65.325 0.101074H64.9545Z" fill="white"/>
<path d="M66.056 1.8809L65.2091 2.72062V14.1459H67.9616V0.0742188L66.056 1.8809Z" fill="white"/>
<path d="M92.0206 2.66783V14.1186H94.773V0.046875L92.0206 2.66783Z" fill="white"/>
<path d="M86.0723 8.37167V5.34358H87.6867L90.4391 2.69718H86.0723V0.0507813H83.3199V8.37167C83.3199 10.1784 83.8228 11.5779 84.802 12.5194C86.2841 13.9444 88.5336 14.1225 90.1215 14.1225V11.4761C88.4278 11.4761 87.3162 11.1962 86.7604 10.6618C86.2841 10.2038 86.0723 9.46586 86.0723 8.37167Z" fill="white"/>
<path d="M105.378 8.9844C106.781 7.63575 106.993 6.49067 106.993 5.2947C106.993 2.39384 104.531 0.0273438 101.514 0.0273438C98.4972 0.0273438 96.0359 2.39384 96.0359 5.2947C96.0359 7.07593 96.9357 8.67904 98.4443 9.67144L100.456 7.73753C99.3176 7.3304 98.7618 6.2871 98.7618 5.2947C98.7618 3.84427 100.006 2.6483 101.514 2.6483C103.023 2.6483 104.214 3.84427 104.267 5.2947C104.293 6.13443 103.976 6.77058 100.906 9.59511L96.0094 14.2009H106.94V11.5799H102.599L105.378 8.9844Z" fill="white"/>
<path d="M110.883 4.42762C112.126 4.42762 113.133 3.43646 113.133 2.21381C113.133 0.991156 112.126 0 110.883 0C109.641 0 108.634 0.991156 108.634 2.21381C108.634 3.43646 109.641 4.42762 110.883 4.42762Z" fill="white"/>
<path d="M81.6619 8.52829C81.6619 5.32207 78.9623 2.72656 75.6276 2.72656C72.2929 2.72656 69.5934 5.32207 69.5934 8.52829C69.5934 11.7345 72.2929 14.33 75.6276 14.33C76.8451 14.33 77.9831 13.9738 78.9094 13.3885V14.1519H81.6619V8.65552C81.6619 8.60463 81.6619 8.57919 81.6619 8.52829ZM75.6276 11.6836C73.8015 11.6836 72.3458 10.2586 72.3458 8.52829C72.3458 6.79795 73.8015 5.34752 75.6276 5.34752C77.4538 5.34752 78.9094 6.77251 78.9094 8.50285C78.9094 10.2332 77.4273 11.6836 75.6276 11.6836Z" fill="white"/>
</g>
</svg>
