<svg width="40" height="40" viewBox="0 0 40 40" fill="none" xmlns="http://www.w3.org/2000/svg">
<path d="M0 20C0 8.9543 8.9543 0 20 0C31.0457 0 40 8.9543 40 20C40 31.0457 31.0457 40 20 40C8.9543 40 0 31.0457 0 20Z" fill="#E9E8E5"/>
<path d="M20.9142 26C14.8336 26 11.1449 21.8675 11 15H14.0799C14.1759 20.045 16.5188 22.1826 18.3144 22.6224V15H21.2662V19.3536C22.9986 19.1655 24.8118 17.1855 25.4207 15H28.3263C27.8605 17.6871 25.8873 19.6671 24.4918 20.4847C25.8881 21.1448 28.1342 22.8732 29 26H25.8073C25.1335 23.9102 23.4812 22.2915 21.2671 22.0713V26H20.9142Z" fill="#383636"/>
</svg>
