<svg width="40" height="40" viewBox="0 0 40 40" fill="none" xmlns="http://www.w3.org/2000/svg">
<rect x="0.5" y="0.5" width="39" height="39" rx="19.5" stroke="#E9E8E5"/>
<path d="M27.5001 15.8334H12.5001C12.0001 15.8334 11.6667 15.5001 11.6667 15.0001C11.6667 14.5001 12.0001 14.1667 12.5001 14.1667H27.5001C28.0001 14.1667 28.3334 14.5001 28.3334 15.0001C28.3334 15.5001 28.0001 15.8334 27.5001 15.8334Z" fill="#383636"/>
<path d="M27.5001 20.8334H12.5001C12.0001 20.8334 11.6667 20.5001 11.6667 20.0001C11.6667 19.5001 12.0001 19.1667 12.5001 19.1667H27.5001C28.0001 19.1667 28.3334 19.5001 28.3334 20.0001C28.3334 20.5001 28.0001 20.8334 27.5001 20.8334Z" fill="#383636"/>
<path d="M27.5001 25.8334H12.5001C12.0001 25.8334 11.6667 25.5001 11.6667 25.0001C11.6667 24.5001 12.0001 24.1667 12.5001 24.1667H27.5001C28.0001 24.1667 28.3334 24.5001 28.3334 25.0001C28.3334 25.5001 28.0001 25.8334 27.5001 25.8334Z" fill="#383636"/>
</svg>
