<svg width="92" height="92" viewBox="0 0 92 92" fill="none" xmlns="http://www.w3.org/2000/svg">
<mask id="mask0_1_24890" style="mask-type:alpha" maskUnits="userSpaceOnUse" x="0" y="0" width="92" height="92">
<circle cx="46" cy="46" r="46" fill="#E9E8E5"/>
</mask>
<g mask="url(#mask0_1_24890)">
<circle cx="46" cy="46" r="46" fill="#E9E8E5"/>
<path d="M32.3229 58.7482C32.6218 68.3134 31.725 68.1639 30.2305 68.9112C30.6788 71.6512 34.4152 77.1313 45.7739 77.1313C57.1326 77.1313 61.0682 71.7509 61.6163 69.0607C61.417 69.1603 60.6 69.0308 58.926 67.7156C57.2521 66.4003 57.3318 59.6947 57.5809 56.5063L32.3229 58.7482Z" fill="url(#paint0_linear_1_24890)"/>
<mask id="mask1_1_24890" style="mask-type:alpha" maskUnits="userSpaceOnUse" x="6" y="68" width="80" height="28">
<path d="M15.1352 75.4877C12.983 75.6073 8.65874 80.1209 6.76562 82.3627C6.76562 82.3627 37.961 95.1603 45.9979 95.1603C54.0347 95.1603 85.2301 82.3627 85.2301 82.3627C85.1803 81.9642 84.7518 80.898 84.0344 80.4198C81.4937 78.4769 76.2627 76.0856 73.5725 74.7405C70.8823 73.3953 65.5019 68.7622 61.1676 68.7622C59.0753 71.6019 54.2927 75.7866 44.8769 75.7866C35.4612 75.7866 31.4259 70.4062 30.2302 68.7622C28.7357 68.7622 23.9531 71.6019 21.2629 72.7975C18.5727 73.9932 17.8254 75.3383 15.1352 75.4877Z" fill="#ADADAB"/>
</mask>
<g mask="url(#mask1_1_24890)">
<path d="M15.1352 75.4877C12.983 75.6073 8.65874 80.1209 6.76562 82.3627C6.76562 82.3627 37.961 95.1603 45.9979 95.1603C54.0347 95.1603 85.2301 82.3627 85.2301 82.3627C85.1803 81.9642 84.7518 80.898 84.0344 80.4198C81.4937 78.4769 76.2627 76.0856 73.5725 74.7405C70.8823 73.3953 65.5019 68.7622 61.1676 68.7622C59.0753 71.6019 54.2927 75.7866 44.8769 75.7866C35.4612 75.7866 31.4259 70.4062 30.2302 68.7622C28.7357 68.7622 23.9531 71.6019 21.2629 72.7975C18.5727 73.9932 17.8254 75.3383 15.1352 75.4877Z" fill="#ADADAB"/>
<path d="M81.8301 58.0928H9.20312V106.289H81.8301V58.0928Z" fill="#E9E8E5"/>
<path d="M86.8385 102.951C86.8116 102.946 86.7847 102.939 86.7578 102.937C85.9862 102.86 85.8718 103.213 85.0195 103.305C83.2828 103.495 83.4812 102.79 82.5313 102.157C82.8659 100.101 81.9564 97.9788 79.6027 98.0591C79.1253 97.8348 79.1185 96.9044 78.7924 96.6149C78.4662 96.3237 77.8223 96.1463 77.6307 95.9672C76.9448 95.3196 77.2726 95.5037 77.2541 94.7506C77.2541 94.7222 77.5971 94.0679 77.6189 93.8988C77.6693 93.5072 76.9515 93.1726 77.0204 92.8529C77.1431 92.294 77.9552 92.7207 78.0695 92.304C78.1855 91.8823 77.9989 90.2239 77.5012 89.9528C76.2689 89.2817 76.2975 91.0606 75.9411 91.6949C75.5393 92.4111 75.1526 92.3592 74.5844 93.0671C74.7912 93.9172 74.1204 94.3373 74.0733 95.1472C73.9993 96.3973 74.6264 96.7772 73.8749 97.8081C73.068 98.9142 72.0811 98.536 70.9194 98.3804C70.4806 98.3218 68.8432 97.4131 69.4702 98.8423C67.9605 100.034 67.1687 99.428 66.0961 101.105C65.8977 101.416 66.2003 101.674 65.97 101.95C65.6237 102.365 65.0538 102.375 64.7175 102.865C64.3241 103.438 64.6536 103.931 64.3376 104.443C63.9207 105.119 63.0078 106.067 62.2832 104.919C62.1823 104.758 62.3672 103.27 62.3185 102.936C62.0848 101.314 61.1501 99.5803 60.7247 97.8633C62.4479 96.2735 61.8091 92.0948 60.0439 91.6346C59.3428 91.4522 57.9491 92.1886 56.9875 91.3535C56.051 90.5402 56.2461 89.6415 57.1556 88.9253C57.132 88.7713 57.1068 88.609 57.0816 88.4534C57.4229 87.8292 59.1646 87.5731 59.6673 87.7003C60.4036 87.8861 60.7348 88.9537 61.6981 89.0357C61.3569 89.0073 63.6971 88.5086 63.5542 88.5538C63.9492 88.4299 64.8419 87.8442 64.8016 87.369C64.7764 87.0677 64.0148 87.302 63.9896 87.2619C63.8753 87.0728 63.3608 86.2494 63.1994 86.1172C62.1991 85.3039 61.6796 84.7433 61.0173 83.5836C60.5902 82.8339 60.3532 81.9586 59.5076 82.1846C58.5476 82.4406 58.9343 83.8363 58.4955 84.0003C58.2332 84.099 58.0617 83.7459 57.9508 83.6003C56.89 83.2388 56.4344 84.2162 56.5638 82.6766C56.5689 82.6247 57.28 81.4348 57.1892 81.5001C57.586 81.219 58.1139 82.0808 58.2988 82.3686C58.5762 82.2565 58.5762 82.2565 58.8922 81.9202C58.8872 81.6758 57.8936 81.1972 57.7793 80.8374C57.5355 80.0693 58.0449 79.7647 58.319 79.2342C58.9074 78.0913 59.4117 78.0293 58.7208 76.6487C58.4804 76.1684 59.4252 76.5416 58.3845 75.9191C58.245 75.8354 56.5285 75.4321 56.3116 75.6714C55.809 76.222 57.3741 78.4578 55.3399 77.0905C53.2569 77.4085 54.691 76.0413 55.3399 75.1443C55.2626 73.5193 56.009 72.0701 54.733 70.5322C54.0454 69.7038 52.9678 69.4394 52.3003 68.8269C52.418 68.75 52.5054 68.6931 52.5844 68.6412C52.3861 67.4781 50.3905 67.0464 51.021 65.3009C51.5926 63.7212 52.6399 64.9445 53.731 64.8491C55.6055 64.6834 55.4038 63.43 55.4996 62.3908C55.5803 61.5072 55.5585 60.4964 54.3362 60.7525C52.4617 61.144 50.5469 66.0791 50.0358 61.9691C49.9484 61.2612 50.1804 60.3391 49.4541 59.9224C48.1024 59.1476 47.8368 61.0052 47.5628 61.6126C48.4202 62.3054 47.9881 63.2911 47.1425 63.1589C46.8886 63.1187 47.4367 61.3231 46.1321 62.0795C45.1385 62.6552 46.3759 62.6652 45.8883 63.5823C45.6815 63.9705 45.1133 64.332 44.9637 64.6567C44.9099 64.7721 44.4106 65.3763 44.2861 65.5553C43.9465 66.0456 44.8611 66.0289 44.73 66.3954C44.5686 66.8489 42.7159 65.6072 42.4318 65.3863C41.3693 65.2608 41.9913 66.3385 42.1544 66.4841C42.1561 66.4908 41.7711 68.0471 41.7358 68.258C41.5778 69.1918 41.9981 69.3691 41.0734 70.0235C39.9453 70.8234 37.9498 69.8929 37.5328 71.5045C37.1075 73.1512 39.7083 72.7663 40.6649 72.3111C41.6349 71.8492 41.339 71.4978 41.9005 70.9824C42.2401 70.6711 42.378 71.2802 42.6419 71.2769C42.2855 71.2367 44.3299 68.6077 44.2845 68.6964C44.8477 68.586 45.4226 68.0304 46.2195 67.8061C46.8701 67.622 49.4238 66.3285 49.8895 66.5259C50.868 66.9443 50.1098 67.5601 50.3871 68.1642C50.6511 68.7382 51.2597 69.4294 51.6632 69.898C52.2331 70.5623 52.919 71.3489 53.1426 72.209C53.6839 74.2824 52.3323 73.2834 51.6144 74.3511C50.9487 75.3401 51.9506 75.233 52.2785 75.8254C52.3037 75.8706 52.7458 76.9014 52.6315 76.8077C53.8739 77.8419 55.4189 77.1307 55.9401 78.8042C56.3755 80.2065 54.5498 81.0566 55.3399 82.0858C55.8392 82.0641 56.0763 82.2582 56.3167 82.8155C55.9485 83.1686 55.6963 82.8975 55.3248 82.6598C55.3063 82.5728 55.2844 82.4707 55.2626 82.367C54.4657 81.8214 53.0165 81.6189 51.9557 82.0256C51.4076 82.2348 50.2947 83.4413 50.3586 84.0973C50.4241 84.7734 50.8881 84.5006 51.2412 84.9926C51.7708 85.7323 51.6094 85.6336 52.4012 86.226C53.1981 86.8234 53.3729 86.1624 53.8941 87.2602C54.5329 88.609 52.9543 89.9059 55.3483 91.0406C55.8527 92.1099 56.4293 92.9701 56.0527 94.2369C55.9283 94.6552 55.0692 96.6299 54.691 96.1881C55.2357 96.8224 55.2827 95.8551 55.7283 95.8568C56.0679 96.0727 56.2024 96.409 56.1301 96.8676C55.9956 96.9596 55.8712 97.0433 55.7585 97.1186C55.7283 97.465 56.8597 97.9302 56.3066 98.4774C55.8695 98.9092 55.1365 98.0725 54.9112 97.7947C54.3783 97.6742 53.5511 98.0658 52.9795 97.7512C52.3171 97.3863 52.2835 96.4643 51.7455 96.0526C50.5721 95.1539 49.2792 95.3815 48.4605 96.732C47.9931 96.8341 47.0971 97.7077 46.8382 98.0792C46.359 97.9018 43.7061 96.5981 44.0188 98.5963C44.0945 99.0765 46.4296 98.4808 46.8718 98.3452C47.5796 98.9259 48.0839 98.8356 48.2083 99.7108C48.2218 99.8062 47.7864 101.073 47.6317 101.143C47.3762 101.014 47.1055 101.026 46.823 101.18C46.6701 101.329 47.2602 102.489 46.8768 102.932C46.7558 103.073 44.9737 103.54 44.6627 103.605C43.2556 103.893 43.3632 104.174 43.4758 102.136C43.5178 101.373 43.7835 100.65 43.4388 99.9083C43.106 99.1937 42.2973 99.0866 41.9628 98.4256C41.566 97.6441 42.5797 97.2307 41.5206 96.7856C41.7392 96.8776 40.1067 97.3043 40.1151 97.3027C39.2897 97.5286 38.4592 97.9034 37.6354 98.0892C37.4017 98.3419 37.131 98.5494 36.8251 98.7117C36.388 98.782 35.9946 98.6682 35.6449 98.3703C34.7555 98.6013 34.7555 98.7318 34.3672 99.4514C34.4193 99.8514 34.4277 100.25 34.389 100.65C34.0293 100.981 33.614 101.229 33.1433 101.394C33.0407 101.995 33.7082 103.212 34.0814 103.515C34.194 103.607 34.969 103.232 34.9287 103.073C34.8312 102.7 33.9469 102.686 34.6261 102.085C35.6499 101.178 35.549 102.234 35.9021 102.593C36.9596 103.67 37.5396 105.146 35.929 105.842C35.3002 106.115 34.4411 105.894 33.7401 106.211C33.0811 106.508 32.9113 107.22 32.1934 107.431C30.598 107.899 30.1676 106.865 29.2799 105.797C28.752 105.591 27.3987 105.918 26.9666 105.397C26.6808 105.053 26.6119 103.254 27.0742 103.133C27.2104 103.292 27.3583 103.464 27.4995 103.628C28.8815 103.419 29.6565 104.614 30.8401 104.047C31.0334 103.955 32.4305 102.325 32.4338 102.268C32.4893 100.984 31.6403 102.3 31.2452 101.368C30.8821 100.509 32.1026 99.443 31.5377 98.4741C31.2452 97.9721 30.1037 97.557 29.7574 97.6407C29.1639 97.7846 28.5721 99.4129 28.1703 99.8564C27.2507 100.869 28.251 99.9702 27.0036 100.727C27.4693 101.652 27.4844 102.231 26.1849 102.452C24.3625 102.763 25.4586 102 24.998 101.115C25.7175 99.9903 26.6438 100.797 25.7663 99.3594C25.7074 99.264 24.5474 98.6097 24.386 98.4724C24.0077 98.1528 23.9506 97.7645 23.4244 97.4215C23.0949 97.2073 22.3551 97.1069 22.1719 96.9814C21.2977 96.3772 20.8202 94.6519 19.2315 94.8862C19.171 94.8025 19.1021 94.7055 19.0113 94.5816C18.87 94.605 17.9101 94.6586 17.7588 94.6419C17.8966 94.7774 18.4447 96.3639 18.48 96.4392C19.2349 98.0373 19.5089 97.629 20.8202 98.6197C21.5936 99.2054 22.3316 100.459 22.9284 101.207C23.7942 102.291 23.88 103.608 24.6113 104.641C25.2636 105.563 25.9579 105.155 26.0134 106.636C26.0369 107.275 25.7276 107.42 25.699 107.663C25.6318 108.245 25.7024 108.741 25.4922 109.536C25.3409 110.11 24.7575 110.813 24.6684 111.472H26.7935C26.8254 111.397 26.8657 111.328 26.9162 111.274C27.3499 110.818 27.7231 110.508 28.2931 110.282C28.868 110.056 30.1709 109.85 30.7442 109.76C31.178 109.691 31.2032 109.305 31.6924 109.248C31.1914 109.306 33.7233 109.972 33.4089 109.824C33.9351 110.073 34.3268 109.624 34.7555 110.148C35.0144 110.463 35.038 110.946 34.9522 111.472H39.4578C39.6831 109.609 42.2906 109.174 40.2311 107.477C39.0392 106.495 38.8391 107.288 38.9383 105.725C38.982 105.034 39.9537 104.738 39.441 104.057C38.4289 104.268 39.5906 102.331 40.3421 104.114C40.527 104.05 41.603 103.667 41.682 104.02C41.7644 104.386 40.7153 104.746 40.9709 105.024C41.3121 105.397 41.6097 105.319 41.7223 104.775C42.7916 105.327 42.805 106.185 41.8552 106.838C42.2082 107.938 43.5347 108.679 43.9045 109.803C44.1231 110.466 43.7835 110.573 44.113 111.084C44.1903 111.204 44.3299 111.335 44.4963 111.472H47.4619C47.0147 111.065 46.6482 110.64 46.8953 110.198C47.1845 109.68 49.7214 110.665 49.9988 110.799C49.9736 110.62 50.3754 109.306 50.4073 109.245C51.3622 107.4 51.1218 108.192 52.9678 108.481C53.3427 108.54 56.0763 108.279 56.0359 108.336C56.5773 107.573 54.7364 107.37 56.9084 106.52C57.5742 104.838 55.2827 106.068 55.2928 106.068C54.3161 105.975 53.299 105.687 52.2835 106.013C50.3283 106.641 48.511 107.765 46.823 108.828C46.9155 110.075 45.231 108.497 45.9589 106.933C46.7356 105.27 49.449 103.811 51.3656 104.286C52.993 103.807 52.8686 101.734 53.6688 100.527C54.4085 99.4129 55.1281 99.6673 56.4058 100.064C56.1872 100.499 55.355 101.98 56.4932 102.157C56.8815 103.679 57.5658 105.017 59.0805 106.09C59.1865 108.068 57.2968 107.195 57.3691 108.498C56.5117 109.631 56.7185 109.914 56.32 111.246C56.2999 111.311 56.2746 111.388 56.2461 111.47H62.1352C62.258 111.179 62.3975 110.89 62.6665 110.667C62.9019 110.471 64.4485 110.068 64.4082 110.13C64.7007 109.66 63.9089 109.156 63.8416 108.242C63.8047 107.742 63.9324 107.434 63.956 107.039C63.9593 106.987 63.9291 106.12 63.924 105.883C64.1258 106.092 66.0221 106.52 66.0087 106.517C67.0392 106.867 67.5537 107.613 68.4733 108.063C69.0583 108.351 69.7006 107.799 70.1915 108.441C70.3898 108.699 70.0502 109.584 70.1276 109.835C70.2318 110.173 70.6958 111.144 70.7261 111.303C70.7378 111.366 70.7547 111.422 70.7731 111.472H75.7007C75.4805 110.386 74.9643 109.328 74.0246 108.761C74.8466 107.32 74.2028 106.52 73.5252 105.208C73.0394 104.268 74.5491 104.055 72.0878 104.261C70.452 104.397 69.482 104.704 69.0298 102.844C68.7103 101.532 68.9306 101.08 70.679 101.23C70.9766 100.787 72.4089 100.534 72.8124 100.586C73.7808 100.712 74.9105 101.122 74.8685 102.562C75.4536 103.413 76.511 105.382 77.286 105.725C77.7147 105.914 77.8408 106.831 78.3704 105.521C79.058 103.819 77.9501 105.049 77.6172 104.808C77.3197 104.592 78.0291 104.261 77.8274 103.961C77.708 103.96 77.5718 103.958 77.4155 103.955C77.2827 103.71 77.1011 103.511 76.8674 103.356C77.3516 102.81 78.1687 102.614 78.6159 102.244C79.2597 101.709 79.5338 100.79 80.4467 100.685C81.8252 101.839 80.6299 102.869 79.7221 103.279C79.0765 103.57 78.1888 102.797 78.7789 104.127C79.2883 105.275 80.334 104.497 80.1861 106.172C80.5728 106.433 81.1998 106.271 81.4201 106.672C80.8922 109.081 83.7065 106.415 84.2579 105.961C84.9657 105.379 84.3302 104.637 85.7054 105.675C86.6906 106.418 86.3073 106.43 86.5493 107.442C86.1106 107.907 86.2989 108.594 86.8486 108.831V102.951H86.8385ZM57.6398 86.6427C57.3203 86.9305 57.1102 86.8217 57.011 86.3147C57.2749 86.4519 57.4532 86.5439 57.6398 86.6427ZM43.2724 68.2529C42.7479 68.3416 42.1897 66.8974 42.8017 66.7619C43.5784 66.5895 43.2707 67.9099 43.2724 68.2529ZM47.5191 65.7545C46.9676 66.4289 46.8264 65.6223 46.5389 65.552C46.5641 65.5587 47.7292 64.8441 47.5191 65.7545ZM55.4425 88.5839C55.3752 88.4885 55.3971 88.4065 55.508 88.3396C55.5988 88.4802 55.577 88.5621 55.4425 88.5839ZM28.4696 102.27C28.9319 102.541 29.0698 101.583 29.1942 102.701C28.868 103.761 28.3284 102.188 28.4696 102.27ZM21.9651 98.357C21.9012 98.2532 21.9281 98.198 22.0441 98.1879C22.108 98.28 22.0828 98.3369 21.9651 98.357ZM34.7101 108.532C34.9102 108.286 35.0329 108.321 35.08 108.635C34.8766 108.876 34.7522 108.843 34.7101 108.532ZM51.9204 100.303C51.5606 99.9233 51.4194 100.337 51.0899 100.337C50.483 99.684 50.4695 98.5946 51.369 99.5501C51.5219 99.5334 51.6699 99.5183 51.8061 99.505C51.9086 99.6623 51.8128 99.8547 52.0414 99.9769C52.2465 99.915 52.7643 99.7376 52.7778 100.178C52.5542 100.459 52.2684 100.502 51.9204 100.303ZM57.8701 92.2605C58.0281 92.0731 58.2366 92.0513 58.4904 92.1952C58.4888 92.2053 58.4871 92.217 58.4854 92.227C60.1262 92.8512 57.8163 93.6696 57.8701 92.2605ZM59.748 97.3228C60.1178 97.5052 60.2355 97.7461 60.0993 98.0457C59.6521 98.3754 59.2587 97.1487 59.748 97.3228ZM59.3781 103.595C59.9598 102.341 60.6928 103.717 60.644 104.572C59.8774 105.881 58.9595 104.495 59.3781 103.595ZM61.6006 106.035C61.3451 106.607 60.4305 107.367 59.8959 106.4C59.3462 105.406 61.7149 105.801 61.6006 106.035ZM69.3979 107.021C69.1676 107.553 68.7238 106.985 68.6145 106.96C68.3976 106.91 69.6686 106.214 69.3979 107.021ZM76.2773 93.9808C76.1092 93.929 76.0554 93.5892 76.1445 93.4637C76.2437 93.3248 76.4942 93.8553 76.2773 93.9808ZM76.4421 91.8622C76.6472 91.6832 76.7817 91.6999 76.8456 91.9141C76.6472 92.1517 76.5127 92.135 76.4421 91.8622Z" fill="#ADADAB"/>
<path d="M86.8389 85.322C85.0417 85.5981 85.7983 83.3975 84.6988 82.4537C84.0263 81.8763 83.4379 82.0939 82.8814 81.7307C81.6794 80.9459 82.3989 80.5141 81.333 81.0279C80.943 81.2153 81.022 80.1778 80.9077 79.9502C78.8197 80.3133 78.8113 77.1254 76.7468 78.8892C77.0158 79.1419 77.2629 79.3728 77.5336 79.6272C77.6496 79.587 77.7673 79.5653 77.89 79.5636C77.9354 79.5987 77.7774 81.0547 77.9993 81.4195C78.4734 82.1993 79.2417 81.7826 79.6586 82.6813C80.3243 84.1138 78.2918 84.1255 77.5067 84.7062C77.3419 85.9529 75.375 84.4451 75.5313 85.8525C75.5851 86.3428 77.3184 87.3134 77.7589 86.4482C79.7578 87.2632 77.9572 87.7385 78.544 88.9819C80.0285 88.7091 79.5006 90.3876 80.3832 90.816C81.9131 91.5573 81.7365 90.1901 82.4225 89.5157C83.063 88.8848 82.3064 88.3727 83.8599 89.2814C84.6803 89.7617 85.9428 91.154 85.5377 92.0778C84.7173 93.9404 83.8884 91.7799 82.9302 91.9004C82.72 91.9272 80.9783 93.0986 80.8522 93.3647C80.7228 93.6358 80.5429 95.7126 80.6774 95.9067C81.1801 96.633 82.2779 96.4322 82.1266 95.4649C82.2173 95.2959 85.5663 95.1486 85.8235 95.2423C86.5935 95.5235 87.2995 97.3977 86.0101 96.9978C85.8621 97.1651 85.731 97.3124 85.5864 97.4764C85.6133 97.6019 86.2068 97.7458 86.8389 97.858V85.322ZM82.3653 84.9505C81.8962 84.7246 81.2624 83.0076 82.6326 83.349C83.2899 83.513 83.4665 85.25 82.3653 84.9505Z" fill="#ADADAB"/>
<path d="M81.6405 75.6995C82.7147 75.8434 82.8106 76.3773 83.8949 76.2551C85.9628 76.0225 84.9272 74.4193 85.3222 74.2838C85.8804 74.093 85.8737 75.256 86.8387 74.9849V66.2662C86.7059 66.7498 86.4554 67.9279 86.4638 67.9129C85.8148 69.0475 85.1003 68.937 84.4245 69.675C83.9992 70.1386 84.211 71.4656 83.1855 71.2632C82.6172 71.151 82.4542 69.665 82.0355 69.6817C80.4048 69.747 80.5174 74.2486 80.425 74.2687C79.7811 74.4076 78.5706 72.2455 78.7589 74.5431C78.927 76.6082 80.6334 75.5656 81.6405 75.6995ZM81.9498 70.8866C82.1246 71.0556 82.0927 71.1678 81.8557 71.223C81.6321 71.0623 81.6623 70.9502 81.9498 70.8866Z" fill="#ADADAB"/>
<path d="M35.384 92.5516C34.9956 91.9191 34.1836 92.0161 34.071 90.992C33.9953 90.3042 35.9001 90.6405 34.2071 89.439C33.4439 89.7051 31.3525 89.4105 30.8549 88.5688C31.0381 88.2207 32.4738 87.7187 32.2385 87.3271C31.7997 86.6008 30.6834 87.5028 30.1656 87.6818C29.8731 87.7822 27.59 88.6842 27.4202 88.4684C27.1647 88.1454 28.4659 87.2969 28.587 87.0275C29.0173 86.0686 28.4272 86.0569 28.5079 85.0695C28.6407 83.4312 31.3508 82.7351 31.3727 81.5436C31.4265 78.7455 28.6357 81.3009 28.2373 81.4616C26.9444 81.9853 25.8836 80.9394 25.228 81.9803C23.3232 82.1728 24.3201 80.1646 24.3504 79.4032C24.4143 77.8218 23.8258 78.3807 22.9163 77.1005C22.101 77.3549 22.5952 78.1163 21.9278 78.5179C21.4655 78.7957 20.4181 78.8643 19.8801 78.7957C18.1804 78.5765 18.9874 78.5665 18.7369 76.7775C18.5671 75.5626 18.1838 74.2606 17.4374 73.3218C16.6186 72.2926 15.351 71.9027 15.8049 70.2041C14.9509 70.256 12.9419 70.2426 12.7788 69.2737C12.6056 68.2428 15.0534 67.2203 15.5847 66.7116C15.6116 66.6865 16.5413 65.3812 16.5379 65.4398C16.6338 64.2382 15.8335 65.0331 15.2636 64.0508C14.1137 62.0694 17.7013 64.603 17.624 64.6449C17.6172 64.5244 17.6088 64.3888 17.6004 64.2499C18.1199 63.4818 18.1989 60.9164 18.7436 60.5549C18.4309 60.7842 20.3206 61.3297 20.4013 61.3465C21.1595 61.5155 22.7415 61.1791 23.2744 61.5874C23.4207 61.6996 26.0736 67.0262 26.4434 63.5354C26.5342 62.6702 25.1943 62.1196 24.9052 61.5874C24.4781 60.8026 24.5353 60.0027 24.5034 59.1542C24.4294 59.0806 23.1113 57.9209 23.7435 57.6648C23.9687 57.5728 24.4781 58.4112 24.6816 57.9744C24.7068 57.9209 24.1503 56.9302 24.0948 56.9034C23.3669 56.557 21.7176 57.305 21.1292 57.6916C19.3791 58.8463 20.3239 60.6603 17.2995 59.0839C17.1549 58.8664 17.3449 57.5929 16.4253 58.4597C16.432 59.191 17.1835 59.0203 16.6607 59.6713C16.2975 60.1215 14.7189 59.514 14.5071 59.3668C13.9439 58.9752 14.0229 58.1953 13.5421 57.8121C12.9654 57.3519 12.6191 58.1167 12.3568 57.8941C11.9769 57.5711 12.1837 56.229 11.0657 56.9871C11.0522 56.9971 10.6303 58.7459 10.6572 58.8212C12.5905 58.6037 9.6619 60.0361 9.0987 60.1248C8.6431 60.1968 7.00563 59.4939 6.50296 60.2319C6.14487 60.2487 5.85739 60.319 5.63379 60.4328V63.1287C5.78005 63.2927 5.94313 63.44 6.11797 63.5554C6.72992 63.5002 7.27294 62.7622 7.8933 63.286C8.37243 63.6893 7.72013 64.5093 8.16565 64.9946C9.25169 66.1778 11.222 62.3003 13.0915 64.1261C14.1843 65.1921 12.8662 66.3552 12.4745 67.1082C11.565 68.8587 11.5869 68.7649 9.76445 68.9942C9.7779 69.0059 8.62125 67.8646 8.38588 68.4604C8.14043 69.0796 10.6 70.4317 10.8623 70.8149C11.7516 72.1169 11.6053 73.2565 13.1369 74.2171C13.9758 74.7426 15.0803 75.0522 15.5881 75.8169C16.506 77.1992 15.8722 77.6962 14.924 78.9129C14.8584 79.6475 17.0541 81.4666 17.8123 81.7511C18.056 81.8431 18.4746 81.4632 18.6579 81.5201C19.0462 81.6423 19.4783 81.9117 19.8751 82.0171C20.5963 82.2079 21.1208 82.9108 21.8252 82.1142C23.6224 82.2498 22.4691 82.8706 22.7062 83.9918C22.8911 84.8721 23.3299 85.2687 23.9166 85.9163C24.1772 86.2025 27.2521 88.6909 26.24 89.3369C26.0534 89.4557 24.2882 89.0641 24.1285 88.9888C23.3097 88.6073 23.5888 88.5738 22.9432 87.9362C22.2909 87.2919 21.0166 85.1599 19.9978 85.1214C19.2463 85.093 19.2715 85.3055 18.789 85.8678C18.6075 86.5288 18.3788 87.1748 18.1031 87.8023C17.7988 88.0098 17.4559 88.0316 17.0759 87.8676C16.4371 88.5236 15.8974 89.8523 17.1482 90.5803C17.9585 91.0522 18.589 90.4046 19.5002 90.5033C20.4147 90.6037 20.9578 91.3451 21.6638 91.735C23.15 92.5583 25.1523 93.0553 26.9125 93.1055C27.4185 93.1206 27.8943 92.8361 28.5096 92.8043C29.4208 92.7575 30.0479 93.206 30.6834 93.3164C32.1511 93.5708 32.6369 92.4964 33.6473 93.4202C33.7734 93.4068 33.9096 93.3917 34.0424 93.3766C34.3685 93.6628 34.7283 94.2402 35.0494 94.5866C34.5064 95.0049 34.9166 95.5789 35.3167 94.9765C36.4297 95.3279 35.7622 93.1658 35.384 92.5516ZM9.08189 63.6257C8.88183 63.2274 10.099 62.8191 10.3159 62.8375C10.2907 63.127 9.52572 64.511 9.08189 63.6257ZM18.8546 88.1538C18.5755 87.8893 18.6108 87.7488 18.9605 87.7337C19.2564 87.963 19.2211 88.1035 18.8546 88.1538ZM26.6368 88.9018C26.3997 88.6441 26.4468 88.5052 26.7763 88.4834C27.1462 88.5771 26.8251 88.9503 26.6368 88.9018Z" fill="#ADADAB"/>
<path d="M15.8678 93.8368C15.6964 93.4268 14.6254 93.4937 14.2859 93.1005C13.7176 92.4445 14.6305 92.4578 14.4355 91.9257C14.2674 91.4655 13.5411 91.9156 13.3545 92.0361C12.756 91.8939 12.9056 91.3299 12.8686 90.9534C10.6663 89.469 11.0328 93.5975 10.9571 93.7882C10.673 94.5196 9.89292 94.4593 9.8055 95.5889C8.58665 97.4264 7.92426 91.7014 7.59307 91.2814C7.2064 90.7894 6.46668 90.3894 5.63281 90.1953V92.7256C5.88163 92.7758 6.1338 93.0419 5.99427 93.3213C5.85977 93.3933 5.74041 93.4134 5.63281 93.3883V95.8951C5.93711 96.0508 6.23468 96.2198 6.31033 96.275C6.69196 96.178 7.07695 96.2047 7.4653 96.3553C8.30757 96.6616 6.09346 97.6774 5.63281 97.7142V98.2698C5.84968 98.7451 6.35236 99.2488 6.68187 99.6471C7.6082 99.8529 7.08199 99.4797 7.72588 100.08C7.7511 100.104 8.58497 101.938 8.58833 101.973C7.49892 102.209 7.5275 103.461 8.60346 103.019C8.51436 102.718 8.53117 102.425 8.65558 102.139C8.98845 102.308 9.10949 102.633 9.2608 102.949C10.2224 102.997 10.1754 103.765 9.74162 104.554C9.38185 105.21 8.99854 104.266 8.72619 104.363C8.12096 104.582 9.16665 105.472 9.75507 105.288C10.1804 105.156 10.8041 104.042 10.6125 103.65C12.1104 102.371 11.5438 101.772 10.3418 100.229C9.87611 99.632 9.44237 99.0078 9.19692 98.3719C9.09436 98.1041 9.63066 97.7728 9.53651 97.4648C9.42051 97.09 9.04393 97.1034 8.89262 96.5311C9.41043 95.6793 9.76684 96.6783 10.3906 96.3486C10.7369 96.1662 10.7066 95.952 10.9218 95.768C11.7809 95.035 11.7658 93.7447 13.1897 95.3546C13.9933 95.0618 16.4596 95.2559 15.8678 93.8368Z" fill="#ADADAB"/>
<path d="M5.63379 85.5546C6.0709 85.4927 6.57021 85.1647 6.84928 84.932C6.88627 84.9571 6.10956 84.3229 5.63379 83.9966V85.5546Z" fill="#ADADAB"/>
<path d="M38.6332 76.2153C38.1356 76.3492 35.987 75.6848 36.8041 76.8378C36.7049 76.9583 36.6292 77.0487 36.5385 77.1575C37.2765 78.5331 35.871 76.8847 35.6357 76.232C34.8489 74.0498 35.7231 75.9492 36.636 74.1536C36.5771 73.8273 36.3434 73.6432 36.0139 73.5478C36.3014 71.5195 34.1697 71.6969 32.9609 71.9814C32.9878 71.8258 33.008 71.7103 33.0282 71.5915C32.8903 71.1832 33.4098 70.6259 32.8298 70.6477C32.3372 69.0395 31.6059 72.2559 30.7115 71.6501C30.5955 71.6718 30.8611 73.5645 30.9435 73.7536C31.0612 74.0231 30.9452 74.3561 31.162 74.6372C31.3251 74.8497 31.7757 74.6891 31.8278 74.7644C32.586 75.8622 32.5272 75.0556 32.3607 76.5249C32.2699 77.3231 31.8917 77.0905 32.1186 78.2636C32.2481 78.9313 32.8113 79.5037 32.7659 80.2484C32.7239 80.9194 32.1186 81.4867 32.2935 81.957C32.4128 82.2766 36.0761 84.5642 35.439 85.2002C35.254 85.0546 34.6488 84.5559 34.4151 84.8102C34.7194 84.4789 35.054 86.8552 35.0119 86.7197C36.4561 86.8435 39.8386 88.7328 39.0199 85.5784C38.6954 84.3249 37.0731 84.2044 36.6679 83.3225C36.2426 82.3971 37.411 81.4231 37.6833 80.6801C38.5323 81.1085 41.2071 80.6517 41.5299 79.6191C41.7552 78.8979 40.8406 78.446 40.8709 77.7448C40.8557 78.0996 41.9603 76.3224 41.6459 76.5031C41.9367 76.3358 42.6277 77.5842 43.4162 76.5734C43.9642 75.8706 42.937 73.752 42.2562 73.4306C41.1886 72.9286 40.2455 73.9879 39.7277 74.4548C39.6839 74.5017 38.6298 76.1433 38.6332 76.2153ZM40.2841 78.8611C40.2505 78.8527 40.2152 78.8443 40.1816 78.8359C40.1059 78.6134 40.1732 78.446 40.38 78.3356C40.5027 78.5364 40.4707 78.7104 40.2841 78.8611Z" fill="#ADADAB"/>
<path d="M70.9867 69.0981C70.9161 70.0871 73.2277 72.2626 74.2061 72.0852C75.2737 71.8928 75.5292 70.3465 75.5847 69.4997C75.7293 67.3426 75.5258 69.7256 74.2414 69.5349C72.1416 69.2236 75.7713 67.0882 75.7898 67.0414C75.9882 66.5276 75.7024 66.1411 75.2064 65.8465C73.8682 65.05 74.1607 66.1762 73.7219 66.6096C73.7354 66.5962 74.312 67.3911 73.5605 67.6455C73.0259 67.8262 72.8763 67.1033 72.5855 66.9042C72.9082 67.1251 71.2775 65.4298 71.4641 65.8398C71.1178 65.0801 71.6675 65.1487 71.565 64.3906C71.4759 63.7196 70.7025 62.8694 70.7009 62.0812C70.8707 62.0344 70.9581 61.9356 70.9648 61.785C70.8152 61.6378 70.521 62.0712 70.1343 61.8352C69.3559 61.3616 68.8045 60.4864 68.0261 61.201C67.9084 61.0202 67.7437 60.9232 67.5302 60.9131C67.2275 61.0437 68.4582 65.7896 67.3873 66.1946C67.1031 66.3017 66.7131 65.3964 66.3382 65.3043C65.7985 65.1721 65.1715 65.465 64.8604 65.4165C63.9795 65.2776 63.2717 64.0727 62.6144 63.9823C60.0489 63.6342 61.0694 68.5157 61.9301 69.7591C62.4648 70.5289 63.1961 70.959 63.729 71.3221C64.077 71.5598 64.4301 71.5413 64.8201 71.953C65.153 72.3044 65.306 72.9119 65.422 73.0491C66.6005 74.4716 69.408 75.0607 67.2561 72.4266C66.3466 72.5839 65.1782 71.938 66.2424 71.1146C66.9232 71.8476 67.51 71.3958 67.5907 70.5272C67.6663 69.724 66.6761 69.0479 66.2087 68.499C66.6374 67.1284 66.3264 66.1779 67.9236 66.6682C68.6128 66.8791 69.0432 67.7342 69.5425 68.0053C69.7443 68.1141 71.7012 68.6663 71.6675 68.5877C71.8323 68.9726 71.1733 69.0462 70.9867 69.0981ZM65.7969 69.657C65.8103 70.2879 64.0888 70.636 64.4738 69.642C64.689 69.0914 66.0204 68.6747 65.7969 69.657Z" fill="#ADADAB"/>
<path d="M65.1334 93.1169C67.3408 94.3151 62.4133 96.3451 63.4539 97.6587C64.809 99.3707 66.902 96.6697 67.5779 95.8547C68.6807 94.5243 69.945 95.0381 70.1921 93.5102C70.4208 92.0911 69.7046 91.41 69.17 90.3289C68.9783 89.9424 68.3243 90.2018 68.4151 89.5859C68.437 89.4403 68.9901 89.0136 69.0657 88.8144C71.3773 90.267 68.7917 84.7646 68.1243 85.8474C66.4818 85.5545 67.361 82.5875 65.3301 84.7295C64.387 85.7235 64.7468 86.2005 65.3957 87.3987C65.6042 87.7836 66.2498 87.4723 66.2851 88.217C66.317 88.8914 65.4159 89.4186 65.0477 89.7248C64.2122 90.421 63.5246 89.9424 63.4153 91.5439C63.3413 92.5613 63.7128 93.7378 65.1334 93.1169ZM67.1475 91.5405C66.9979 91.4769 66.9121 91.3598 66.8886 91.1891C67.0618 90.9866 67.245 90.9799 67.4383 91.1724C67.5812 91.4585 67.4837 91.5807 67.1475 91.5405Z" fill="#ADADAB"/>
<path d="M5.63379 72.6156C6.49623 71.645 8.23794 69.2804 6.00533 68.3316C5.92127 68.2964 5.79014 68.2512 5.63379 68.2027V72.6156Z" fill="#ADADAB"/>
<path d="M11.3279 78.6604C10.4974 77.2714 9.25505 76.3878 7.95214 75.5594C6.62905 74.7177 6.80557 74.1755 6.16 72.9639C5.99356 73.0827 5.81872 73.1396 5.63379 73.1362V78.9382C5.86747 79.2159 6.07258 79.4921 6.27936 79.6879C6.68789 80.0744 5.92295 80.1866 6.8476 80.5648C7.35532 80.7723 8.10008 79.7113 8.72548 79.8368C8.79945 79.8519 7.6966 82.4273 10.2738 82.1529C12.4644 81.9186 12.1635 80.0594 11.3279 78.6604Z" fill="#ADADAB"/>
<path d="M33.1199 68.1958C33.4897 66.4102 34.021 68.5941 35.0986 68.3046C35.8198 68.1105 35.5845 67.3624 36.1023 66.9976C36.3444 66.8269 36.9832 66.8822 37.3379 66.755C39.3133 66.0421 42.8421 65.0162 39.7488 62.8357C39.1452 62.7755 38.15 63.6457 37.77 64.0657C38.4492 65.3928 35.4079 64.0942 35.5542 63.6273C38.1903 62.5412 35.9947 60.9346 33.9537 61.5823C34.2294 61.4953 35.2634 63.3093 34.2042 63.9435C33.7385 64.2213 33.135 63.639 32.6474 63.7745C32.2003 63.9 31.6925 64.5477 31.3227 64.5627C29.8012 62.4558 29.9021 64.7987 29.5827 66.0856C29.3204 67.1399 27.6325 68.4602 28.2327 69.4409C28.6664 70.1504 28.927 70.1304 29.3221 69.5045C29.6869 68.9288 27.651 68.6426 29.233 68.005C30.6502 67.4327 30.1727 68.9455 30.9932 69.2585C32.1549 69.6986 32.1767 68.5121 33.1199 68.1958ZM39.6748 64.551C39.3705 64.6765 38.2273 65.5266 38.0457 65.2957C37.6607 64.8071 39.357 63.9268 39.6748 64.551ZM30.6805 64.8054C30.8351 64.71 30.9612 64.6213 31.1209 64.7066C31.4773 64.9777 31.5564 65.2555 31.3597 65.54C30.7393 65.6588 30.7544 65.3476 30.6805 64.8054ZM34.448 66.6997C34.3085 66.6412 34.1639 66.2144 34.4362 66.2563C34.7809 66.3098 34.5909 66.6244 34.448 66.6997Z" fill="#ADADAB"/>
<path d="M43.4525 90.14C42.4758 88.7543 41.5461 87.5729 39.7001 88.6857C38.8057 89.2246 38.6813 89.2078 38.952 90.232C38.947 90.2136 40.1826 91.8787 40.0633 91.8352C42.2892 92.6485 40.0263 90.1818 40.0313 90.2487C39.8313 87.772 42.7313 90.7307 43.0961 91.636C42.2135 92.6937 44.9992 93.5739 45.3371 93.2961C45.6011 93.0802 45.2279 92.6937 45.1673 92.4811C45.3792 92.0896 47.373 91.0553 47.2486 90.1885C47.1898 89.7818 46.0348 88.4782 45.6246 88.438C45.8398 88.4565 43.782 90.0061 43.4525 90.14Z" fill="#ADADAB"/>
<path d="M69 77.5322C69.353 78.1965 72.1539 80.3319 72.7373 80.1076C73.6468 79.7579 73.2752 75.9658 73.3929 75.2813C73.4921 74.7057 75.1867 73.4891 73.5795 73.1192C72.6616 72.9084 72.7574 73.9359 72.5036 74.0798C72.5288 74.0664 71.7353 74.5417 71.6109 74.6237C71.4646 74.7224 70.9535 74.3409 70.5971 74.5751C70.2996 74.7709 70.0541 75.683 69.8675 76.0294C69.5834 76.5632 69.2908 77.0502 69 77.5322Z" fill="#ADADAB"/>
<path d="M60.9397 76.3577C61.2793 77.1475 60.5564 79.8117 61.5281 80.0108C61.5735 80.0192 63.8112 77.596 63.4245 76.9936C64.5526 76.5083 64.1138 76.1301 64.4971 75.2732C64.524 75.2113 64.9964 74.6725 64.9931 74.726C65.0637 73.8726 65.4268 73.1094 64.0129 73.0492C62.7554 72.9957 63.1488 74.1269 62.394 74.2859C62.0325 74.3612 61.355 74.2742 61.1667 74.2876C60.8439 74.3127 60.4354 73.3939 59.8133 74.2943C59.5124 74.7277 60.3496 76.2757 60.9397 76.3577Z" fill="#ADADAB"/>
<path d="M26.6807 71.1863C26.4807 71.2432 26.3327 71.1963 26.2352 71.044C26.1495 70.6909 27.3179 70.7495 27.0523 70.3094C27.1262 70.4315 25.1761 69.6099 25.4215 69.6099C24.8096 69.6082 24.085 69.9948 23.6613 70.465C23.3671 70.3981 23.0796 70.3345 22.7787 70.2659C22.1062 71.8624 22.2054 74.6855 24.4431 74.729C25.3173 74.7457 26.9867 73.7249 27.2338 72.848C27.5062 71.8741 27.3129 72.1753 26.6807 71.1863Z" fill="#ADADAB"/>
<path d="M13.4567 89.546C13.3659 89.3686 13.297 89.2314 13.2197 89.0791C13.218 88.6457 13.2247 88.2123 13.2365 87.7788C13.5021 87.5144 13.7627 87.2433 14.0165 86.9672C14.0703 86.2309 13.8585 86.4735 13.5391 85.8878C13.2919 85.4377 12.8464 84.8704 12.3034 84.693C11.2342 84.3449 12.1269 84.6712 10.8778 85.0293C10.5903 85.7355 8.70736 86.7413 8.95618 87.6734C9.10749 88.2407 10.9349 87.7688 11.1199 89.0641C11.2443 89.9376 9.68917 89.946 10.2927 90.8547C11.0257 91.9575 12.8632 89.7268 13.4567 89.546Z" fill="#ADADAB"/>
<path d="M42.5078 72.8499C42.7112 73.4072 43.8998 73.9728 44.3874 74.3811C44.6984 74.6422 44.3571 75.0672 44.7438 75.3116C44.8682 75.3902 47.3647 75.8153 47.1949 75.8722C47.3547 75.6345 47.3244 75.3835 47.1092 75.1191C47.5732 73.7235 49.8075 76.165 50.3421 74.92C50.7809 73.9008 48.9568 73.7335 48.5113 73.1829C48.1734 73.4038 46.6065 74.2221 46.4266 73.2699C46.6486 72.9603 47.5043 72.634 47.4017 72.1939C47.2857 72.2157 47.1832 72.2374 47.0638 72.2592C46.43 71.814 45.9122 71.4124 45.1439 71.3605C43.5653 71.2517 43.683 72.3562 42.5078 72.8499Z" fill="#ADADAB"/>
<path d="M46.9079 86.4299C47.0256 86.8884 46.6187 87.9695 46.6978 88.1485C46.7532 88.2757 48.2091 89.9358 48.4058 90.073C49.5171 90.8428 51.8674 91.8737 52.6996 90.4496C53.4931 89.0907 52.2894 89.7802 51.8976 89.2698C51.553 88.823 51.2353 88.1937 50.8351 87.8289C50.5863 87.6013 50.008 87.7553 49.739 87.5511C49.4936 87.3637 49.0127 86.3914 48.737 86.2458C47.8342 85.7772 48.0545 86.5119 46.9079 86.4299Z" fill="#ADADAB"/>
<path d="M75.6946 79.5573C75.7702 80.9647 74.3614 80.5128 73.5813 80.8793C71.8833 81.6776 73.2148 82.0926 72.581 83.0113C72.238 83.51 70.9788 83.3929 71.1688 84.4321C71.3924 85.6621 72.7575 84.9961 73.0484 84.9341C72.7895 84.9877 75.0002 84.2564 74.7548 84.4354C75.666 83.7711 74.9212 84.0472 75.0742 82.9042C75.1549 82.3068 74.9834 81.8047 75.4088 81.2743C75.4945 81.1688 76.404 81.2994 76.4259 81.2625C76.6243 80.9278 76.9269 79.1155 76.5368 79.0352C76.5822 79.0469 75.6794 79.564 75.6946 79.5573Z" fill="#ADADAB"/>
<path d="M64.6423 77.6826C63.8807 78.3688 63.1091 80.4104 64.4137 80.6045C65.3266 80.7401 67.7021 79.0264 67.1691 78.2399C67.4179 78.0725 67.6483 77.9002 67.9795 77.9387C68.1005 77.763 68.2199 77.5889 68.3527 77.3965C67.5894 75.1574 66.1789 78.2248 64.6306 77.691L64.6423 77.6826Z" fill="#ADADAB"/>
<path d="M19.3879 67.9685C18.4683 70.1089 22.7873 68.919 22.019 67.2539C22.0526 67.3276 20.943 66.9427 20.8674 66.941C19.8889 66.9159 19.8368 66.9845 19.3879 67.9685Z" fill="#ADADAB"/>
<path d="M43.3203 82.0205C43.0059 83.5584 44.3407 84.9725 45.3562 83.1384C46.3968 81.2541 44.0902 82.141 43.3203 82.0205Z" fill="#ADADAB"/>
<path d="M73.2885 86.4553C73.201 87.2335 74.4771 88.2242 74.8637 87.4862C74.9528 87.3155 73.9946 84.5861 73.2885 86.4553Z" fill="#ADADAB"/>
<path d="M20.4218 73.3554C20.8371 73.1914 20.8371 73.1914 21.2187 73.2082C22.7587 71.4962 20.0352 72.1539 20.4218 73.3554Z" fill="#ADADAB"/>
<path d="M21.4941 69.861C20.5022 69.4058 21.5008 71.6583 21.5193 71.0408C21.5294 70.6844 22.2237 70.5321 21.4941 69.861Z" fill="#ADADAB"/>
<path d="M52.2221 80.8339C52.6357 80.5527 52.2339 79.475 51.8321 79.7127C51.3513 79.9972 51.9279 80.7151 52.2221 80.8339Z" fill="#ADADAB"/>
<path d="M75.2837 88.1621C74.1254 87.7956 75.045 89.1093 75.1223 88.9101C75.2299 88.6307 75.9797 88.5185 75.2837 88.1621Z" fill="#ADADAB"/>
<path d="M11.3139 84.2746C11.5846 83.2387 10.3036 84.3717 10.7104 84.365C10.7894 84.365 11.161 84.8603 11.3139 84.2746Z" fill="#ADADAB"/>
<path d="M64.6303 77.6893C64.9867 76.8525 63.7914 77.1354 63.9915 77.4416C64.1495 77.6592 64.3664 77.7395 64.6421 77.6809C64.6421 77.6826 64.6303 77.6893 64.6303 77.6893Z" fill="#ADADAB"/>
<path d="M60.4882 79.8501C60.5016 79.6008 60.3369 79.3012 60.0309 79.338C59.7148 79.3765 60.2074 79.902 60.4882 79.8501Z" fill="#ADADAB"/>
<path d="M52.7207 92.4513C52.9611 92.4446 53.2149 92.1919 53.1695 91.9359C53.1359 91.7535 52.1978 92.2438 52.7207 92.4513Z" fill="#ADADAB"/>
<path d="M36.8018 90.8679C36.827 91.0503 37.4221 91.4502 37.4053 91.1022C37.3414 90.8277 37.1414 90.7507 36.8018 90.8679Z" fill="#ADADAB"/>
<path d="M37.5888 75.5675C37.5501 75.119 37.4106 75.0354 37.1719 75.3199C37.2442 75.6194 37.3837 75.7031 37.5888 75.5675Z" fill="#ADADAB"/>
<path d="M49.4192 78.9394C49.4848 78.7119 49.4007 78.573 49.1687 78.5227C48.9435 78.5094 49.1805 78.9662 49.4192 78.9394Z" fill="#ADADAB"/>
<path d="M50.2818 82.0186C50.186 82.0788 49.9136 82.3549 50.2582 82.4102C50.544 82.3332 50.5524 82.2026 50.2818 82.0186Z" fill="#ADADAB"/>
<path d="M62.8788 80.5195C62.8351 80.2685 62.7393 80.2183 62.5947 80.3689C62.625 80.5881 62.7208 80.6383 62.8788 80.5195Z" fill="#ADADAB"/>
<path d="M59.4827 79.2407C59.3952 79.0382 59.2776 79.0064 59.1279 79.1453C59.1868 79.3445 59.3045 79.3763 59.4827 79.2407Z" fill="#ADADAB"/>
<path d="M10.0073 89.4203C10.1737 89.3952 10.2006 89.3232 10.0896 89.2061C9.94338 89.2362 9.9148 89.3081 10.0073 89.4203Z" fill="#ADADAB"/>
<path d="M36.8568 73.2751C36.8467 73.2701 36.8382 73.2633 36.8281 73.2583C36.8315 73.2734 36.8349 73.2885 36.8366 73.3037C36.8433 73.2936 36.8501 73.2835 36.8568 73.2751Z" fill="#ADADAB"/>
<path d="M85.3185 85.6287C84.7704 85.8379 83.6575 87.0445 83.7214 87.7005C83.787 88.3766 84.251 88.1038 84.604 88.5958C85.1336 89.3355 84.9722 89.2367 85.764 89.8291C86.3155 90.2408 86.5693 90.0534 86.845 90.2609V85.4229C86.3188 85.3894 85.7808 85.4513 85.3185 85.6287Z" fill="#F8F8F7"/>
<path d="M74.0302 75.916C75.0003 75.4541 74.7044 75.1027 75.2659 74.5873C75.6055 74.276 75.7433 74.8851 76.0073 74.8818C75.6509 74.8416 77.6952 72.2126 77.6498 72.3013C78.213 72.1909 78.788 71.6353 79.5848 71.411C80.2355 71.2269 82.7892 69.9333 83.2549 70.1308C84.2333 70.5492 83.4751 71.165 83.7525 71.7691C84.0164 72.3431 84.625 73.0343 85.0285 73.5029C85.5984 74.1672 86.2843 74.9538 86.5079 75.8139C87.0493 77.8873 85.6976 76.8883 84.9797 77.956C84.314 78.945 85.316 78.8379 85.6438 79.4303C85.669 79.4755 86.1112 80.5063 85.9969 80.4126C86.2692 80.6402 86.5567 80.7824 86.8459 80.8845V73.1916C86.4155 72.9506 85.9901 72.7347 85.664 72.4352C85.7817 72.3582 85.8691 72.3013 85.9481 72.2494C85.7497 71.0864 83.7542 70.6546 84.3846 68.9092C84.9125 67.4499 85.8472 68.382 86.8459 68.4573V64.8092C85.2756 66.0492 83.8332 69.0598 83.4011 65.5756C83.3137 64.8678 83.5457 63.9457 82.8194 63.529C81.4678 62.7542 81.2021 64.6117 80.9281 65.2192C81.7855 65.912 81.3534 66.8977 80.5078 66.7655C80.2539 66.7253 80.802 64.9297 79.4974 65.6861C78.5038 66.2618 79.7412 66.2718 79.2536 67.1889C79.0469 67.5771 78.4786 67.9386 78.329 68.2632C78.2752 68.3787 77.7759 68.9828 77.6515 69.1619C77.3119 69.6522 78.2264 69.6355 78.0953 70.002C77.9339 70.4555 76.0813 69.2138 75.7971 68.9929C74.7346 68.8673 75.3567 69.9451 75.5197 70.0907C75.5214 70.0973 75.1364 71.6537 75.1011 71.8645C74.9431 72.7983 75.3634 72.9757 74.4387 73.63C73.3107 74.43 71.3151 73.4995 70.8982 75.1111C70.4728 76.7577 73.0736 76.3712 74.0302 75.916ZM80.881 69.366C80.3296 70.0404 80.1884 69.2338 79.9009 69.1636C79.9244 69.1702 81.0912 68.4557 80.881 69.366ZM76.1619 70.3735C76.9403 70.2011 76.6327 71.5215 76.6327 71.8645C76.1098 71.9532 75.55 70.509 76.1619 70.3735Z" fill="#F8F8F7"/>
<path d="M44.4218 55.5644C44.2789 55.059 45.755 54.1152 45.7298 54.0349C45.5583 53.7805 45.3145 53.645 44.9934 53.6282C44.9009 53.4559 44.8202 53.3069 44.7345 53.1496C44.2739 53.2283 43.9645 53.7487 43.6569 53.8156C43.0533 53.9479 42.9928 53.5546 42.4296 53.6065C41.4797 53.6935 38.963 54.8281 38.4973 54.4449C37.0162 55.039 36.6413 53.6416 36.6497 52.2643H33.1428C33.2621 52.7597 33.3798 53.2701 33.3933 53.7638C33.405 54.1738 32.7628 54.1687 32.8082 54.5336C32.8788 55.0959 33.3445 55.1527 33.6286 55.6012C34.5617 57.0789 35.9234 58.9883 35.066 60.5447C35.1047 60.4744 34.5012 60.5898 34.3515 60.8576C34.3061 60.9396 34.2725 61.7947 34.3566 61.686C34.2557 61.8148 33.8354 62.3135 33.7598 62.4022C33.6639 62.516 32.9629 62.1981 32.7191 62.3721C31.9962 62.8875 32.1794 63.4833 31.1943 63.9569C30.0427 64.5108 30.3991 64.5208 29.2777 63.7895C27.7125 62.772 27.6991 61.276 25.5976 62.4658C22.6572 64.1309 26.7022 63.577 27.341 64.8304C27.4957 65.1333 26.9678 65.5902 26.9543 65.5684C26.8501 65.4044 27.1191 66.3047 27.1393 66.3717C27.1494 66.3817 29.4475 67.3875 28.0353 67.4527C28.0774 67.7975 28.2337 69.1229 28.3094 69.2952C28.4674 69.3772 28.612 69.3588 28.7465 69.2367C29.5467 69.7203 29.3685 70.8616 29.8325 71.5142C29.6442 71.2482 31.3489 72.52 31.0278 72.3978C32.2753 72.8731 32.3627 72.3476 33.6202 72.0682C34.523 71.8673 35.3586 72.3091 36.0596 72.1518C37.0549 71.9293 36.1622 71.4758 36.1638 71.464C36.0596 71.8657 35.5687 71.3 35.5485 71.198C35.4594 70.7612 36.0394 70.7294 36.0428 70.7679C36.0714 71.0691 36.0361 69.399 35.9739 69.5379C36.1252 69.1982 37.3121 69.0476 37.1036 68.5874C36.9557 68.261 35.6763 67.0478 35.2745 66.8252C35.1955 66.8403 35.0896 66.8603 34.9904 66.8771C34.3566 66.2813 38.2485 61.4182 39.0807 62.9176C40.9619 63.5352 39.7717 58.6218 39.6355 58.1315C39.575 57.914 39.9852 57.6763 39.9415 57.4705C39.9213 57.3768 39.3867 57.089 39.3867 57.0839C39.6388 55.3954 39.5027 56.5986 40.4677 56.5769C40.8056 56.5685 41.3789 56.3543 41.7504 56.3526C41.7504 56.4212 43.3105 57.0053 42.9087 57.0454C43.6417 56.9701 44.3966 56.3359 45.0119 56.1016C48.6332 54.7294 44.5328 55.9543 44.4218 55.5644ZM31.2413 69.3655C31.1186 69.0442 31.2111 68.0786 31.4616 67.8678C31.512 67.8259 34.3734 67.3256 34.4793 67.3272C35.5351 69.1379 32.0147 71.377 31.2413 69.3655ZM36.2311 61.6893C36.0915 61.3965 35.9016 61.1421 35.6578 60.9229C35.6326 60.9061 37.5256 61.0149 36.2311 61.6893ZM37.5054 61.5805C37.2247 61.4918 37.1187 61.3111 37.1843 61.0383C37.3272 60.6668 38.1897 61.4902 37.5054 61.5805ZM38.2754 60.2987C38.1527 59.9907 38.304 59.8351 38.7276 59.8301C38.8436 60.0527 38.5478 60.5748 38.2754 60.2987Z" fill="#F8F8F7"/>
<path d="M24.6274 106.381C24.819 104.75 23.6422 105.605 23.39 105.295C22.8739 104.659 23.2286 102.907 22.0989 102.444C21.8601 101.543 21.6449 100.984 21.1087 100.253C20.7506 99.7626 19.7368 99.1803 19.9301 98.6398C20.2277 97.803 22.2687 98.4155 22.4183 97.8147C22.5208 97.4064 21.7525 96.5964 21.6601 96.158C21.5491 95.6426 22.2233 95.5723 22.0669 95.0619C21.7256 93.9457 21.3978 94.5883 20.9389 94.4276C18.9971 93.7465 18.3835 93.5825 19.1686 91.0757C19.446 90.7761 19.757 90.6807 20.1033 90.7862C20.4564 91.1677 19.6309 91.2045 19.7553 91.5275C21.8534 91.4556 20.3757 90.9769 20.574 89.6432C20.727 88.6173 22.035 87.9413 21.7963 86.7431C21.6096 85.8026 19.7637 84.8336 19.3989 84.0973C19.2442 83.7844 18.5701 81.4097 19.1316 81.1319C19.2442 81.075 21.154 81.485 21.1574 81.4867C21.6836 81.7109 22.9596 83.1669 23.1765 83.1618C24.6442 83.1267 23.4287 82.2197 23.5312 81.644C23.6674 80.8893 23.5817 80.988 24.2508 80.419C24.1365 80.0509 23.891 79.8049 23.5649 79.6024C22.2804 79.9655 22.0434 78.5514 20.9052 78.9648C20.0697 79.2677 20.1773 80.9177 18.8105 80.7119C17.7766 80.5562 18.5785 79.517 17.3815 79.5756C17.2066 79.584 15.9558 80.8876 15.5574 80.6583C15.1825 80.4425 15.5877 79.9187 15.1791 79.7848C14.8614 79.994 13.9401 80.7587 14.0561 81.2223C14.194 81.7712 15.1875 81.6239 15.1791 81.9737C14.8076 82.3636 11.536 86.2728 13.5585 85.9967C13.4526 86.0118 13.656 84.9608 14.0948 84.7265C13.9569 84.8002 15.4851 84.8136 15.4582 84.8119C15.5389 84.9207 15.5893 85.0411 15.6112 85.1717C15.7709 85.1851 17.0587 85.4645 17.1293 85.3106C17.2134 85.1298 16.3896 84.668 16.7847 84.4521C17.4252 84.1023 18.175 83.4898 18.8508 84.3098C19.8108 85.4712 18.6894 87.8827 17.9581 88.8048C16.8418 90.2138 16.4383 89.4474 14.9505 90.1469C14.6916 90.2691 14.2326 90.7226 14.0124 90.7962C13.9031 90.833 12.77 91.1058 12.691 91.151C11.9798 91.5576 11.8134 91.6965 11.2603 92.3291C10.9392 92.6973 10.0532 92.1182 10.3861 93.3616C10.7324 94.6569 11.146 93.4938 11.8773 93.6846C12.7935 93.9222 11.7916 94.6284 13.1583 94.3138C13.6778 94.1933 13.9418 93.4654 14.3772 93.2562C14.9387 92.9851 15.6482 93.2462 16.166 92.9533C16.5997 92.7073 16.3375 91.9626 17.0301 91.7149C18.1615 91.31 16.9965 92.8077 16.9998 92.7374C16.9931 92.9483 17.2419 93.7549 16.9461 94.0879C17.052 94.2302 17.1495 94.3624 17.2638 94.518C15.4901 96.0158 17.7177 97.6072 14.6865 96.7655C13.3752 97.1822 12.3009 97.7796 12.496 99.0447C12.5716 99.5367 13.6677 101.411 14.236 101.48C14.4882 102.275 14.589 102.509 14.083 103.113C17.5983 104.201 21.112 105.29 24.6274 106.381ZM17.7631 99.1067C20.0024 99.7693 16.4081 99.9685 17.1528 99.2974C17.3563 99.2355 17.5597 99.1719 17.7631 99.1067ZM18.3683 90.4481C18.6659 89.7319 19.061 90.5753 19.1635 90.5937C19.1366 90.5887 18.1733 91.1426 18.3683 90.4481ZM19.1265 96.7387C19.2224 96.7805 19.5536 97.301 19.3838 97.3411C19.0458 97.4231 18.8054 96.896 19.1265 96.7387ZM16.3391 98.3502C16.2467 98.4038 15.6751 98.3586 15.7373 98.1578C15.8365 97.8315 16.3391 98.1829 16.3391 98.3502ZM15.9508 98.8188C15.7709 98.9912 15.5826 99.0096 15.3876 98.874C15.1337 98.4975 15.8499 98.7017 15.9508 98.8188ZM21.5458 103.297C21.3978 103.128 21.4398 103.018 21.6702 102.966C21.9123 103.188 21.8719 103.299 21.5458 103.297Z" fill="#F8F8F7"/>
<path d="M57.8606 62.7706C57.7866 62.6969 56.4686 61.5372 57.1007 61.2812C57.326 61.1891 57.8354 62.0275 58.0388 61.5908C58.064 61.5372 57.5076 60.5465 57.4538 60.5197C56.7258 60.1733 55.0766 60.9214 54.4882 61.3079C52.7381 62.4626 53.6829 64.2767 50.6584 62.7003C50.5139 62.4827 50.7038 61.2092 49.7842 62.0761C49.7909 62.8074 50.5424 62.6367 50.0196 63.2877C49.6565 63.7395 48.0778 63.1303 47.866 62.9831C47.3028 62.5915 47.3818 61.8117 46.9027 61.4284C46.326 60.9682 45.9797 61.733 45.7174 61.5104C45.3375 61.1875 45.5443 59.8453 44.4263 60.6034C44.4128 60.6135 43.9909 62.3622 44.0178 62.4375C45.9511 62.22 43.0225 63.6525 42.4593 63.7412C42.0037 63.8131 40.3662 63.1103 39.8636 63.8483C37.5755 63.9504 38.2026 66.3317 39.4786 67.1718C40.0905 67.1166 40.6336 66.3786 41.2539 66.9023C41.733 67.3057 41.0807 68.1257 41.5263 68.611C42.6123 69.7941 44.5826 65.9167 46.4521 67.7424C47.5449 68.8084 46.2268 69.9715 45.8351 70.7246C44.9256 72.475 44.9475 72.3813 43.1251 72.6105C43.1385 72.6223 41.9819 71.481 41.7465 72.0767C41.501 72.6959 43.9606 74.0481 44.2229 74.4313C45.1122 75.7332 44.966 76.8729 46.4975 77.8334C47.3364 78.3589 48.441 78.6685 48.9487 79.4333C49.8666 80.8156 49.2328 81.3126 48.2846 82.5292C48.219 83.2638 50.4147 85.0829 51.1729 85.3674C51.4166 85.4594 51.8353 85.0796 52.0185 85.1365C52.4069 85.2586 52.8389 85.5281 53.2357 85.6335C53.9569 85.8243 54.4814 86.5271 55.1859 85.7305C56.983 85.8661 55.8298 86.4869 56.0668 87.6082C56.2517 88.4884 56.6905 88.885 57.2772 89.5327C57.5378 89.8188 60.6127 92.3073 59.6006 92.9532C59.414 93.072 57.6488 92.6805 57.4891 92.6051C56.6703 92.2236 56.9494 92.1901 56.3038 91.5525C55.6515 90.9083 54.3772 88.7763 53.3584 88.7378C52.6069 88.7093 52.6321 88.9218 52.1496 89.4841C51.9681 90.1451 51.7394 90.7911 51.4637 91.4187C51.1594 91.6262 50.8165 91.6479 50.4365 91.4839C49.7977 92.1399 49.258 93.4687 50.5088 94.1966C51.3191 94.6685 51.9496 94.0209 52.8608 94.1196C53.7753 94.22 54.3184 94.9614 55.0245 95.3513C56.5106 96.1747 58.5129 96.6717 60.2731 96.7219C60.7791 96.7369 61.2549 96.4524 61.8686 96.4207C62.7798 96.3738 63.4068 96.8223 64.0423 96.9327C65.51 97.1871 65.9959 96.1127 67.0062 97.0365C67.1323 97.0231 67.2685 97.008 67.3996 96.993C67.7258 97.2791 68.0856 97.8565 68.4067 98.2029C67.8636 98.6213 68.2738 99.1953 68.674 98.5928C69.7886 98.9392 69.1228 96.7771 68.7446 96.1629C68.3562 95.5304 67.5442 95.6274 67.4316 94.6033C67.3559 93.9155 69.2607 94.2518 67.5678 93.0503C66.8045 93.3164 64.7131 93.0218 64.2155 92.1801C64.3987 91.832 65.8345 91.33 65.5991 90.9384C65.1603 90.2121 64.044 91.1141 63.5262 91.2931C63.2337 91.3936 60.9506 92.2956 60.7808 92.0797C60.5253 91.7567 61.8265 90.9083 61.9476 90.6388C62.378 89.6799 61.7879 89.6682 61.8686 88.6809C62.0014 87.0425 64.7114 86.3464 64.7333 85.1549C64.7871 82.3568 61.9963 84.9122 61.5979 85.0729C60.3051 85.5967 59.2442 84.5507 58.5886 85.5916C56.6838 85.7841 57.6807 83.7759 57.711 83.0145C57.7732 81.4331 57.1865 81.992 56.2769 80.7118C55.4616 80.9662 55.9558 81.7276 55.2884 82.1292C54.8261 82.407 53.7787 82.4756 53.2407 82.407C51.5411 82.1878 52.348 82.1778 52.0975 80.3888C51.9277 79.1739 51.5444 77.8719 50.798 76.9331C49.9792 75.9039 48.7116 75.514 49.1656 73.8154C48.3115 73.8673 46.3025 73.8539 46.1394 72.885C45.9663 71.8541 48.4141 70.8317 48.9453 70.3229C48.9722 70.2978 49.9019 68.9925 49.8985 69.0511C49.9944 67.8495 49.1941 68.6444 48.6242 67.6621C47.4743 65.6807 51.0619 68.2143 50.9846 68.2562C50.9779 68.1357 50.9695 68.0001 50.9611 67.8612C51.4957 67.0714 51.5646 64.3821 52.1496 64.1411C51.6369 64.352 53.6778 64.941 53.7619 64.9595C54.5201 65.1285 56.1021 64.7921 56.635 65.2004C56.7813 65.3126 59.4342 70.6392 59.8041 67.1483C59.8948 66.2832 58.5549 65.7326 58.2658 65.2004C57.8337 64.4189 57.8926 63.6173 57.8606 62.7706ZM43.6748 66.4505C43.6496 66.74 42.8847 68.124 42.4408 67.2387C42.2408 66.8388 43.4579 66.4304 43.6748 66.4505ZM52.3194 91.345C52.617 91.5743 52.5817 91.7149 52.2135 91.7651C51.9345 91.5023 51.9698 91.3618 52.3194 91.345ZM59.9974 92.5131C59.7604 92.2554 59.8074 92.1165 60.1369 92.0947C60.5068 92.1885 60.1857 92.5616 59.9974 92.5131Z" fill="#F8F8F7"/>
<path d="M30.4996 88.7429C30.4492 88.3413 30.2642 87.9831 29.9465 87.6719C28.657 88.03 28.2838 87.9714 28.114 86.6092C28.7915 85.5884 28.8789 85.8946 28.1493 84.9257C27.6853 84.3099 26.5656 83.6488 25.6914 83.8748C24.1078 84.2848 24.0455 86.2779 25.0072 87.466C25.5351 87.4208 25.8226 87.4192 26.2008 87.8041C27.0549 88.676 26.0663 88.5739 25.8024 89.0893C25.9419 88.8165 24.9567 89.839 25.0391 89.7302C24.987 89.8005 25.1013 90.2657 24.9937 90.3996C24.5381 90.9736 23.2335 91.6497 22.9746 92.222C22.9259 92.3275 23.1982 94.3072 23.1259 94.2754C23.9531 94.6435 23.6622 93.032 24.0775 92.8228C24.7853 92.4664 25.3585 93.4353 25.3888 93.8235C25.483 95.0535 23.9077 94.9565 25.3518 95.9639C25.5418 96.0961 27.3524 96.3271 27.5374 96.3086C27.5542 96.1547 27.5979 96.0108 27.6685 95.8735C28.3645 95.5121 29.4539 97.9202 29.7061 98.2131C30.4794 97.2859 29.7784 96.4726 30.4223 95.892C30.7602 95.5874 31.9084 95.9488 32.28 95.5422C32.4111 95.3983 31.8429 94.8728 31.9942 94.513C32.1976 94.0311 32.786 93.9173 32.9104 93.3014C32.9844 92.9333 32.4784 92.9182 32.4464 92.5484C32.2934 90.7142 32.6734 89.004 34.4722 89.2583C34.9598 89.3269 34.7513 89.9444 35.7298 89.8675C36.1904 89.8323 36.4123 89.337 36.7889 89.2282C37.3471 89.0659 38.1776 89.3186 38.6836 89.1562C39.1711 89.2734 39.8604 88.8333 40.2101 88.5421C40.2656 88.5806 38.4213 87.0761 38.655 87.4895C38.1507 86.6008 39.0753 85.9214 39.1224 85.0194C39.2787 82.1009 36.8108 85.6169 35.7768 83.8246C36.8326 82.9393 36.0341 80.7487 34.6975 80.6801C33.3811 80.6132 32.1253 83.1937 33.5812 83.0196C34.8219 83.9869 33.8603 83.4146 33.9057 84.0304C33.8536 83.3175 33.751 85.5566 33.8737 85.1031C33.6922 85.7742 33.5543 86.0771 33.4148 86.723C33.1727 87.8392 33.5509 87.6635 33.1676 88.2626C33.0012 88.5237 31.784 88.7011 31.3688 89.3353C30.8577 90.1151 31.1738 90.8347 30.508 91.7166C29.4791 93.0788 28.3645 92.7241 26.8313 93.268C24.8945 91.8271 28.5814 90.8582 29.6388 90.8966C27.645 90.828 30.4895 88.7546 30.4996 88.7429Z" fill="#F8F8F7"/>
<path d="M71.9936 79.8267C71.4959 79.9606 69.3474 79.2963 70.1644 80.4493C70.0652 80.5698 69.9896 80.6601 69.8988 80.7689C70.6368 82.1445 69.2314 80.4961 68.996 79.8435C68.2092 77.6613 69.0834 79.5607 69.9963 77.765C69.9375 77.4387 69.7038 77.2546 69.3743 77.1592C69.6618 75.131 67.53 75.3084 66.3213 75.5929C66.3482 75.4372 66.3683 75.3218 66.3885 75.203C66.2506 74.7946 66.7701 74.2374 66.1901 74.2591C65.6975 72.6509 64.9662 75.8673 64.0718 75.2615C63.9558 75.2833 64.2215 77.176 64.3038 77.3651C64.4215 77.6345 64.3055 77.9675 64.5224 78.2487C64.6855 78.4612 65.136 78.3005 65.1881 78.3759C65.9464 79.4736 65.8875 78.667 65.7211 80.1363C65.6303 80.9346 65.252 80.702 65.479 81.8751C65.6084 82.5428 66.1716 83.1151 66.1262 83.8598C66.0842 84.5309 65.479 85.0982 65.6538 85.5684C65.7732 85.8881 69.4365 88.1757 68.7993 88.8116C68.6144 88.666 68.0092 88.1673 67.7755 88.4217C68.0798 88.0903 68.4143 90.4667 68.3723 90.3311C69.8164 90.4549 73.199 92.3443 72.3802 89.1898C72.0558 87.9364 70.4334 87.8159 70.0283 86.934C69.6029 86.0085 70.7713 85.0346 71.0437 84.2916C71.8927 84.72 74.5674 84.2631 74.8902 83.2306C75.1155 82.5093 74.2009 82.0575 74.2312 81.3563C74.2161 81.7111 75.3206 79.9338 75.0062 80.1146C75.2971 79.9472 75.988 81.1956 76.7765 80.1849C77.3246 79.482 76.2974 77.3634 75.6165 77.0421C74.5489 76.5401 73.6058 77.5994 73.088 78.0663C73.0426 78.1131 71.9902 79.7548 71.9936 79.8267ZM73.6445 82.4725C73.6108 82.4641 73.5755 82.4558 73.5419 82.4474C73.4663 82.2248 73.5335 82.0575 73.7403 81.947C73.8613 82.1479 73.8294 82.3219 73.6445 82.4725Z" fill="#F8F8F7"/>
<path d="M15.1858 77.763C14.974 77.8902 14.7807 77.8818 14.6058 77.7396C14.4209 77.5337 15.4077 75.1959 14.9488 74.6336C15.5036 73.9893 15.7541 73.4388 16.4534 72.9133C17.3663 72.2255 18.3027 72.3895 19.103 71.8372C19.525 71.5444 19.5266 70.8198 19.9806 70.5236C20.1504 70.4131 21.576 70.2809 21.6819 70.2424C23.0184 69.7538 22.9882 69.6668 23.01 68.3213C22.9478 68.3414 26.5489 68.4401 25.6125 67.3808C24.7803 66.4403 23.8153 67.9548 23.4051 67.9247C22.7158 67.8728 22.884 66.3432 22.4906 66.1625C21.6903 65.7944 22.1863 66.3935 21.4768 66.5039C21.0313 66.5725 21.0363 67.1566 20.4277 67.0997C19.8914 67.0495 19.0139 65.8998 18.9315 65.9366C18.3918 66.1692 19.3232 66.6595 19.1635 66.8001C19.2879 66.6913 18.7079 67.5465 18.7197 67.5297C18.4809 67.9096 17.7076 67.8494 17.4302 68.3363C17.1679 68.7966 17.5496 69.4459 17.3529 69.9295C17.1192 70.5018 16.556 68.7631 16.7275 68.7062C15.9205 68.9723 16.0214 69.2551 15.2228 68.9957C14.0174 68.6024 14.2057 66.7532 12.5968 67.3339C9.83126 68.3347 13.9771 70.0433 12.2959 71.3218C12.3144 71.0557 14.1536 73.3685 13.4391 73.5509C13.2474 73.4772 13.1499 73.325 13.1482 73.0957C12.9768 73.0053 12.1261 73.2781 12.2135 73.5392C12.3278 73.6797 12.4825 73.6965 12.6758 73.591C12.7145 73.653 11.6419 75.4034 11.7949 76.0125C11.9327 76.5631 13.2642 78.0224 13.7955 78.4642C14.7739 78.0391 14.4612 79.1888 14.8614 79.1419C15.0934 79.1118 15.2884 77.9588 15.1858 77.763ZM19.5216 67.846C19.5418 67.672 19.6494 67.5732 19.8444 67.5498C20.2142 67.7121 19.6023 68.4602 19.5216 67.846Z" fill="#F8F8F7"/>
<path d="M39.5211 76.5747C39.2369 76.7789 38.9242 76.804 38.583 76.6534C38.5998 76.6634 42.2109 73.1525 39.3647 71.9442C38.9864 71.7836 37.6835 71.4288 37.2969 71.5543C36.7421 71.7334 37.4011 72.2321 37.1523 72.4479C36.426 73.0822 34.654 74.0294 36.8026 74.344C36.8833 74.272 36.9841 74.1833 37.0951 74.0846C37.3456 74.3992 37.0514 75.4635 37.3675 75.6811C36.5958 76.8776 37.8516 77.8399 37.9643 79.033C38.0551 79.9953 36.9018 80.9441 37.2077 81.4612C38.4922 81.555 39.0537 82.7465 39.6404 83.3004C40.0489 83.687 39.284 83.7991 40.2087 84.1773C40.7164 84.3848 41.4611 83.3238 42.0865 83.4493C42.1605 83.4644 41.0577 86.0399 43.6349 85.7654C45.8255 85.5311 45.5262 83.6719 44.689 82.2729C43.8585 80.8839 42.6161 80.0003 41.3132 79.1719C39.9884 78.3268 40.1649 77.7846 39.5211 76.5747Z" fill="#F8F8F7"/>
<path d="M66.4802 71.8073C66.8501 70.0217 67.3813 72.2056 68.459 71.9161C69.1802 71.7219 68.9448 70.9739 69.4626 70.6091C69.7047 70.4384 70.3436 70.4936 70.6983 70.3664C72.6737 69.6535 76.2025 68.6277 73.1091 66.4472C72.5056 66.3869 71.5103 67.2571 71.1303 67.6772C71.8095 69.0042 68.7683 67.7056 68.9146 67.2387C71.5506 66.1526 69.355 64.5461 67.3141 65.1937C67.5898 65.1067 68.6237 66.9207 67.5646 67.555C67.0989 67.8328 66.4953 67.2504 66.0078 67.386C65.5606 67.5115 65.0529 68.1591 64.683 68.1742C63.1616 66.0673 63.2624 68.4101 62.943 69.697C62.6807 70.7513 60.9928 72.0717 61.593 73.0523C62.0268 73.7619 62.2873 73.7418 62.6824 73.1159C63.0472 72.5403 61.0113 72.2541 62.5933 71.6165C64.0106 71.0442 63.5331 72.557 64.3535 72.8699C65.5152 73.3101 65.5371 72.1236 66.4802 71.8073ZM73.0368 68.1625C72.7325 68.288 71.5893 69.1381 71.4077 68.9072C71.0228 68.4185 72.7191 67.5383 73.0368 68.1625ZM64.0408 68.4168C64.1955 68.3214 64.3216 68.2327 64.4813 68.3181C64.8377 68.5892 64.9167 68.867 64.72 69.1515C64.1013 69.2703 64.1165 68.959 64.0408 68.4168ZM67.81 70.3112C67.6705 70.2526 67.5259 69.8259 67.7983 69.8677C68.1429 69.9213 67.9529 70.2359 67.81 70.3112Z" fill="#F8F8F7"/>
<path d="M10.3073 84.273C9.46836 84.0421 10.2871 83.5735 10.0181 83.1886C9.82141 82.9075 8.84632 82.8171 8.80597 82.6866C8.73704 82.469 9.19432 82.4925 9.11531 82.2347C9.12876 82.2783 8.28481 81.8432 8.25454 81.8247C7.68799 81.48 7.20044 81.4114 6.47249 82.3301C6.53806 82.2481 5.71764 84.1894 5.7479 83.935C5.61173 85.088 5.95805 84.8554 6.67255 85.8762C7.22398 86.6644 6.95835 86.8435 7.77373 87.6702C8.75554 88.6659 8.62609 88.7981 10.0097 88.3546C11.0184 88.0333 11.8909 87.7003 11.7581 86.2845C11.7026 85.6955 11.0823 84.3149 10.3073 84.273Z" fill="#F8F8F7"/>
<path d="M27.0402 76.9533C26.946 76.8546 26.872 76.7743 26.7981 76.6973C26.4602 76.6287 24.8378 77.4537 25.6666 77.8905C26.6636 77.6779 26.9527 78.7322 26.7897 79.4719C27.6118 80.7538 28.5515 79.9505 29.535 79.6694C30.3117 79.4468 32.1493 79.502 32.7461 79.1656C34.17 78.3624 34.3331 73.5445 32.1846 74.7393C32.3964 74.6222 31.7508 76.2086 31.7122 76.3308C31.5356 76.8847 32.4754 77.8905 30.9943 77.6528C30.8379 77.6277 29.8343 76.3358 29.6494 76.2237C27.8505 75.1359 28.528 76.3643 27.0402 76.9533Z" fill="#F8F8F7"/>
<path d="M76.8109 93.7514C75.8342 92.3658 74.9045 91.1843 73.0585 92.2972C72.1641 92.836 72.0397 92.8193 72.3104 93.8434C72.3054 93.825 73.541 95.4901 73.4217 95.4466C75.6475 96.2599 73.3847 93.7932 73.3897 93.8602C73.1897 91.3835 76.0897 94.3421 76.4545 95.2458C75.5719 96.3034 78.3576 97.1837 78.6955 96.9059C78.9595 96.69 78.5862 96.3034 78.5257 96.0909C78.7375 95.6993 80.7314 94.6651 80.607 93.7983C80.5482 93.3916 79.3932 92.088 78.983 92.0478C79.1982 92.0679 77.1421 93.6175 76.8109 93.7514Z" fill="#F8F8F7"/>
<path d="M60.0428 74.7977C59.8427 74.8546 59.6948 74.8078 59.5973 74.6555C59.5115 74.3024 60.6799 74.361 60.4143 73.9208C60.4883 74.043 58.5381 73.2213 58.7836 73.2213C58.1716 73.2196 57.447 73.6062 57.0217 74.0765C56.7275 74.0095 56.44 73.9459 56.1391 73.8773C55.4666 75.4738 55.5658 78.297 57.8034 78.3405C58.6776 78.3572 60.3471 77.3364 60.5942 76.4595C60.8682 75.4855 60.6749 75.7867 60.0428 74.7977Z" fill="#F8F8F7"/>
<path d="M46.8175 93.1575C46.7267 92.9801 46.6578 92.8429 46.5804 92.6906C46.5787 92.2572 46.5855 91.8237 46.5972 91.3903C46.8629 91.1259 47.1234 90.8548 47.3773 90.5787C47.4311 89.8423 47.2193 90.085 46.8998 89.4993C46.6527 89.0491 46.2072 88.4818 45.6642 88.3044C44.5949 87.9563 45.4877 88.2827 44.2385 88.6408C43.9511 89.347 42.0681 90.3527 42.3153 91.2849C42.4666 91.8522 44.294 91.3803 44.4789 92.6755C44.6033 93.5491 43.0483 93.5574 43.6518 94.4661C44.3865 95.569 46.224 93.3382 46.8175 93.1575Z" fill="#F8F8F7"/>
<path d="M75.8662 76.4613C76.0696 77.0186 77.2582 77.5842 77.7458 77.9926C78.0568 78.2536 77.7155 78.6787 78.1022 78.923C78.2266 79.0017 80.7231 79.4267 80.5533 79.4836C80.7131 79.246 80.6828 78.995 80.4676 78.7306C80.9316 77.3349 83.1659 79.7765 83.7005 78.5314C84.1393 77.5123 82.3152 77.3449 81.8697 76.7944C81.5318 77.0153 79.9649 77.8336 79.785 76.8797C80.007 76.5701 80.8627 76.2438 80.7601 75.8037C80.6441 75.8254 80.5416 75.8472 80.4222 75.8689C79.7884 75.4238 79.2706 75.0222 78.5023 74.9703C76.9237 74.8632 77.0397 75.9677 75.8662 76.4613Z" fill="#F8F8F7"/>
<path d="M80.2673 90.0413C80.385 90.4999 79.9781 91.5809 80.0571 91.76C80.1126 91.8872 81.5685 93.5473 81.7652 93.6845C82.8765 94.4543 85.2268 95.4851 86.059 94.061C86.8525 92.7022 85.6487 93.3916 85.257 92.8812C84.9124 92.4344 84.5946 91.8052 84.1945 91.4404C83.9457 91.2128 83.3674 91.3667 83.0984 91.1626C82.8529 90.9751 82.3721 90.0029 82.0964 89.8573C81.1936 89.3887 81.4139 90.1233 80.2673 90.0413Z" fill="#F8F8F7"/>
<path d="M22.4752 73.809C23.3091 72.8015 21.4026 72.8902 20.8579 73.0274C18.9699 73.4994 19.8811 73.9679 20.3098 75.2331C20.6057 76.1083 19.7752 77.3701 21.7002 76.1284C22.5273 75.5929 22.7644 74.8264 22.4752 73.809Z" fill="#F8F8F7"/>
<path d="M52.7473 71.5799C51.8277 73.7202 56.1467 72.5304 55.3784 70.8653C55.412 70.9389 54.3024 70.554 54.2268 70.5524C53.2483 70.5273 53.1979 70.5959 52.7473 71.5799Z" fill="#F8F8F7"/>
<path d="M76.6787 85.632C76.3643 87.1699 77.6991 88.584 78.7145 86.7499C79.7552 84.8655 77.4469 85.7525 76.6787 85.632Z" fill="#F8F8F7"/>
<path d="M7.95885 78.4876C7.82939 77.6944 8.26146 76.8309 7.45113 76.7991C6.9888 76.7807 5.44548 78.3856 5.67076 78.7002C5.72624 78.7755 7.74365 78.5998 7.95885 78.4876Z" fill="#F8F8F7"/>
<path d="M53.7809 76.9669C54.1962 76.8029 54.1962 76.8029 54.5778 76.8196C56.1194 75.1077 53.3959 75.7653 53.7809 76.9669Z" fill="#F8F8F7"/>
<path d="M43.426 70.8033C43.6647 70.0871 42.7888 69.6503 42.5753 70.6025C42.3819 71.4677 42.9838 71.3305 43.426 70.8033Z" fill="#F8F8F7"/>
<path d="M54.8535 73.4725C53.8616 73.0173 54.8602 75.2698 54.8787 74.6523C54.8888 74.2958 55.5831 74.1435 54.8535 73.4725Z" fill="#F8F8F7"/>
<path d="M23.7344 71.9479C23.2805 72.0834 22.7442 73.1243 22.9997 73.0256C23.4889 72.8382 24.4321 72.3713 23.7344 71.9479Z" fill="#F8F8F7"/>
<path d="M21.9861 85.7574C23.3108 85.8779 22.0701 84.9625 22.055 85.0311C22.0483 85.0613 21.1472 85.5098 21.9861 85.7574Z" fill="#F8F8F7"/>
<path d="M85.5822 84.4453C85.9958 84.1642 85.594 83.0865 85.1922 83.3241C84.7113 83.6086 85.2897 84.3265 85.5822 84.4453Z" fill="#F8F8F7"/>
<path d="M44.6733 87.888C44.944 86.8521 43.6629 87.9851 44.0698 87.9784C44.1488 87.9767 44.5203 88.4721 44.6733 87.888Z" fill="#F8F8F7"/>
<path d="M9.77246 91.9209C9.92713 91.9811 10.065 91.9376 10.1877 91.7903C10.2482 91.2214 9.15547 91.5879 9.77246 91.9209Z" fill="#F8F8F7"/>
<path d="M10.917 74.0935C10.8195 73.6953 10.6682 73.6216 10.4631 73.871C10.4328 74.2174 10.7254 74.1939 10.917 74.0935Z" fill="#F8F8F7"/>
<path d="M70.9472 79.179C70.9085 78.7305 70.769 78.6468 70.5303 78.9313C70.6026 79.2309 70.7421 79.3129 70.9472 79.179Z" fill="#F8F8F7"/>
<path d="M82.7779 82.5509C82.8435 82.3233 82.7594 82.1844 82.5274 82.1342C82.3022 82.1208 82.5375 82.5777 82.7779 82.5509Z" fill="#F8F8F7"/>
<path d="M24.8802 72.1052C25.0113 71.7689 24.3204 71.9011 24.4212 72.1103C24.5473 72.3094 24.7003 72.3061 24.8802 72.1052Z" fill="#F8F8F7"/>
<path d="M83.6382 85.63C83.5424 85.6903 83.27 85.9664 83.6147 86.0216C83.9022 85.9446 83.9089 85.8141 83.6382 85.63Z" fill="#F8F8F7"/>
<path d="M22.7748 85.901C22.6504 85.7906 22.6185 85.8659 22.7092 85.9747C22.7277 85.9546 22.7462 85.9345 22.7748 85.901Z" fill="#F8F8F7"/>
<path d="M70.2162 76.8865C70.2061 76.8815 70.1976 76.8748 70.1875 76.8698C70.1909 76.8849 70.1942 76.9 70.1959 76.9151C70.2044 76.905 70.2111 76.8949 70.2162 76.8865Z" fill="#F8F8F7"/>
<path d="M53.1959 92.5946C54.166 92.1327 53.8701 91.7813 54.4316 91.2659C54.7695 90.9546 54.909 91.5637 55.173 91.5604C54.8166 91.5202 56.8609 88.8912 56.8155 88.9799C57.3787 88.8695 57.9537 88.3139 58.7505 88.0896C59.4012 87.9055 61.9549 86.6119 62.4206 86.8094C63.399 87.2278 62.6408 87.8436 62.9182 88.4477C63.1821 89.0217 63.7907 89.7129 64.1942 90.1815C64.7641 90.8458 65.4501 91.6324 65.6737 92.4925C66.215 94.5659 64.8633 93.5669 64.1455 94.6346C63.4797 95.6236 64.4817 95.5165 64.8095 96.1089C64.8347 96.1541 65.2769 97.1849 65.1626 97.0912C66.405 98.1254 67.95 97.4142 68.4711 99.0877C68.9066 100.49 67.0808 101.34 67.871 102.369C68.3703 102.348 68.6073 102.542 68.8477 103.099C68.4795 103.452 68.2274 103.181 67.8558 102.943C67.8373 102.856 67.8155 102.754 67.7936 102.65C66.9967 102.105 65.5476 101.902 64.4867 102.309C63.9387 102.518 62.8257 103.725 62.8896 104.381C62.9552 105.057 63.4192 104.784 63.7722 105.276C64.3018 106.016 64.1404 105.917 64.9323 106.509C65.7291 107.107 65.904 106.446 66.4251 107.544C67.064 108.893 65.4854 110.189 67.8794 111.324C67.9012 111.371 67.9248 111.418 67.9466 111.465H69.3353C68.6157 110.7 68.8427 109.878 69.6866 109.214C69.6631 109.06 69.6379 108.898 69.6127 108.742C69.9523 108.118 71.6956 107.862 72.1983 107.989C72.9347 108.175 73.2659 109.242 74.2292 109.324C73.8879 109.296 76.2281 108.797 76.0852 108.842C76.4803 108.718 77.373 108.133 77.3326 107.657C77.3074 107.356 76.5459 107.591 76.5206 107.55C76.4063 107.361 75.8919 106.538 75.7305 106.406C74.7302 105.592 74.2107 105.032 73.5483 103.872C73.1213 103.122 72.8842 102.247 72.0386 102.473C71.0786 102.729 71.4653 104.125 71.0265 104.289C70.7643 104.388 70.5928 104.034 70.4818 103.889C69.421 103.527 68.9654 104.505 69.0949 102.965C69.0999 102.913 69.811 101.723 69.7203 101.789C70.117 101.507 70.6449 102.369 70.8298 102.657C71.1072 102.545 71.1072 102.545 71.4233 102.209C71.4182 101.964 70.4247 101.486 70.3104 101.126C70.0666 100.358 70.576 100.053 70.85 99.5228C71.4384 98.3798 71.9428 98.3179 71.2518 96.9372C71.0114 96.457 71.9562 96.8301 70.9156 96.2076C70.776 96.1239 69.0595 95.7206 68.8427 95.9599C68.34 96.5105 69.9052 98.7463 67.871 97.379C65.788 97.697 67.222 96.3298 67.871 95.4328C67.7936 93.8079 68.5401 92.3586 67.2624 90.8207C66.5748 89.9924 65.4954 89.7279 64.8297 89.1155C64.9474 89.0385 65.0348 88.9816 65.1138 88.9297C64.9154 87.7666 62.9199 87.3349 63.5503 85.5895C64.1219 84.0097 65.1693 85.233 66.2604 85.1376C68.1349 84.9719 67.9332 83.7185 68.029 82.6793C68.1097 81.7957 68.0878 80.7849 66.8656 81.041C64.9911 81.4326 63.0762 86.3676 62.5651 82.2576C62.4777 81.5497 62.7097 80.6276 61.9835 80.2109C60.6318 79.4361 60.3662 81.2937 60.0921 81.9011C60.9495 82.594 60.5175 83.5796 59.6718 83.4474C59.418 83.4073 59.966 81.6116 58.6614 82.368C57.6679 82.9437 58.9052 82.9537 58.4177 83.8708C58.2109 84.2591 57.6427 84.6205 57.493 84.9452C57.4392 85.0606 56.9399 85.6648 56.8155 85.8438C56.4759 86.3342 57.3905 86.3174 57.2593 86.6839C57.0979 87.1374 55.2453 85.8957 54.9612 85.6748C53.8987 85.5493 54.5207 86.627 54.6838 86.7726C54.6855 86.7793 54.3005 88.3356 54.2652 88.5465C54.1071 89.4803 54.5274 89.6577 53.6028 90.312C52.4747 91.1119 50.4791 90.1815 50.0622 91.793C49.6369 93.4364 52.2393 93.0498 53.1959 92.5946ZM67.9685 108.874C67.9012 108.779 67.9231 108.697 68.034 108.63C68.1248 108.77 68.103 108.852 67.9685 108.874ZM70.1674 106.933C69.848 107.221 69.6379 107.112 69.5387 106.605C69.801 106.742 69.9808 106.834 70.1674 106.933ZM60.0467 86.0446C59.4953 86.719 59.3541 85.9124 59.0666 85.8422C59.0901 85.8488 60.2552 85.1343 60.0467 86.0446ZM55.3277 87.0521C56.1061 86.8797 55.7984 88.2001 55.7984 88.5431C55.2755 88.6318 54.7157 87.1876 55.3277 87.0521Z" fill="#C9C9C1"/>
<path d="M27.3167 58.3828C27.0595 57.5645 27.7857 56.9219 26.4744 56.8717C25.3783 56.8299 25.501 58.1302 24.2536 57.6047C23.8988 57.9193 23.9039 58.1753 23.4113 58.346C22.1521 58.7828 22.7102 58.1168 22.6733 57.6683C22.6178 57.0123 22.5909 56.9972 22.9187 56.5655C22.9809 56.4835 24.9916 56.2124 24.1863 55.3756C23.9409 55.1196 22.1975 56.2575 21.9537 56.5035C20.7903 57.68 22.0226 57.7202 21.6898 58.4966C21.4746 58.9987 20.9215 59.1928 20.1532 59.32C18.8906 59.5308 19.0856 60.5299 19.2672 58.5653C18.2215 57.5545 19.516 56.9571 19.3344 55.9429C19.2974 55.7404 18.5056 55.1798 18.3022 54.8619C18.1341 54.5991 17.7827 54.6493 17.6415 54.323C17.5137 54.0251 17.9374 53.6754 17.818 53.3189C17.6381 52.7834 17.5221 52.4705 17.3759 52.2646H15.5282C15.9469 52.8989 16.3537 53.7892 16.3218 53.7373C16.4075 53.8762 17.3187 54.7146 17.312 54.6912C17.4313 55.1765 16.853 55.7806 16.9236 56.122C17.1153 57.0558 17.2699 57.2867 17.6095 58.2523C17.7071 58.5268 17.9542 59.7451 17.8146 60.0295C17.6633 60.3391 16.4932 60.3308 16.5521 60.5751C16.5992 60.7659 17.5154 60.4295 17.3523 60.9734C17.4011 60.8111 14.7902 61.3449 14.6961 61.3382C13.7025 62.0327 14.8322 64.0358 14.0286 65.1068C11.4278 64.7102 11.7136 65.875 12.1188 68.0923C12.2533 68.8303 12.5408 69.6604 12.561 70.4435C12.5727 70.8535 11.9305 70.8485 11.9759 71.2133C12.0465 71.7756 12.5122 71.8325 12.7963 72.281C13.7294 73.7587 15.0911 75.6681 14.2337 77.2244C14.2724 77.1541 13.6689 77.2696 13.5192 77.5374C13.4738 77.6194 13.4402 78.4745 13.5243 78.3657C13.4234 78.4946 13.0031 78.9933 12.9275 79.082C12.8316 79.1958 12.1306 78.8778 11.8868 79.0519C11.1639 79.5673 11.3471 80.163 10.362 80.6366C9.21036 81.1906 9.56678 81.1989 8.44543 80.4693C7.13579 79.6141 6.91555 78.4243 5.63281 78.769V80.8743C6.02453 81.0215 6.36244 81.2157 6.51375 81.5119C6.66842 81.8148 6.14053 82.2716 6.12708 82.2499C6.02285 82.0859 6.29184 82.9862 6.31201 83.0531C6.3221 83.0632 8.62027 84.0689 7.20808 84.1342C7.25011 84.4789 7.40646 85.8043 7.48211 85.9767C7.64014 86.0587 7.78472 86.0403 7.91922 85.9181C8.71946 86.4017 8.54125 87.543 9.00526 88.1957C8.81697 87.9296 10.5217 89.2014 10.2006 89.0793C11.448 89.5545 11.5354 89.0291 12.793 88.7496C13.6958 88.5488 14.5313 88.9906 15.2324 88.8333C16.2276 88.6107 15.3349 88.1572 15.3366 88.1455C15.2324 88.5471 14.7414 87.9815 14.7213 87.8794C14.6322 87.4426 15.2122 87.4108 15.2155 87.4493C15.2441 87.7505 15.2088 86.0804 15.1466 86.2193C15.2979 85.8796 16.4848 85.729 16.2764 85.2688C16.1284 84.9425 14.849 83.7292 14.4472 83.5066C14.3682 83.5217 14.2623 83.5418 14.1631 83.5585C13.5293 82.9628 17.4213 78.0997 18.2534 79.5991C20.1347 80.2166 18.9444 75.3033 18.8082 74.813C18.7477 74.5954 19.1579 74.3578 19.1142 74.1519C19.094 74.0582 18.5594 73.7704 18.5594 73.7654C18.8116 72.0768 18.6754 73.2801 19.6404 73.2583C19.9783 73.2499 20.5516 73.0357 20.9231 73.0341C20.9231 73.1027 22.4833 73.6867 22.0815 73.7269C22.8145 73.6516 23.5693 73.0173 24.1846 72.783C27.7992 71.4075 23.7005 72.6324 23.5895 72.2425C23.4466 71.7371 24.9227 70.7933 24.8975 70.713C24.726 70.4586 24.4822 70.323 24.1611 70.3063C24.0686 70.1339 23.9879 69.985 23.9022 69.8277C23.4416 69.9064 23.1322 70.4268 22.8246 70.4937C22.221 70.6259 22.1605 70.2327 21.5973 70.2846C20.6474 70.3716 18.1307 71.5062 17.665 71.123C15.4291 72.0183 15.7115 68.3801 16.0343 67.1184C16.0797 66.9393 16.5907 65.808 16.6681 65.6239C16.9001 65.0734 15.8493 65.219 16.6429 64.6617C17.1556 64.3019 19.6337 64.7253 20.3717 64.5513C20.4827 64.9094 20.7096 65.2173 20.7046 65.6122C21.2947 65.9553 22.4816 67.8865 23.344 67.4196C23.3743 67.023 23.4365 66.6264 23.1911 66.2431C24.4721 65.0633 26.0995 65.6524 25.1278 63.5673C24.9008 63.0786 23.0868 61.6026 23.1238 61.1491C23.1927 60.2889 26.1415 59.074 26.4677 59.9793C26.7333 60.7157 23.9711 61.5875 25.8524 62.4427C25.9516 62.3741 26.0608 62.2954 26.1903 62.2051C27.1788 62.4159 28.28 61.1374 28.1943 60.2237C28.169 59.9107 27.4545 58.8196 27.3167 58.3828ZM10.409 86.0453C10.2863 85.724 10.3788 84.7584 10.6293 84.5475C10.6797 84.5057 13.5411 84.0053 13.647 84.007C14.7011 85.8177 11.1824 88.0568 10.409 86.0453ZM17.8953 76.5115C18.0097 76.7341 17.7138 77.2562 17.4431 76.9801C17.3221 76.6705 17.4717 76.5149 17.8953 76.5115ZM16.352 77.7164C16.4949 77.3466 17.3574 78.1699 16.6731 78.2586C16.3924 78.1699 16.2865 77.9892 16.352 77.7164ZM15.3988 78.3691C15.2593 78.0762 15.0693 77.8219 14.8255 77.6026C14.8003 77.5859 16.6933 77.6947 15.3988 78.3691ZM21.9335 57.3955C21.6494 57.0491 22.3269 56.8566 22.4026 57.1478C22.3891 57.3788 22.2328 57.4624 21.9335 57.3955Z" fill="#C9C9C1"/>
<path d="M18.6462 83.8508C19.2582 83.7956 19.8012 83.0576 20.4216 83.5814C20.9007 83.9847 20.2484 84.8047 20.6939 85.29C21.7799 86.4731 23.7503 82.5957 25.6198 84.4214C26.7125 85.4874 25.3945 86.6505 25.0028 87.4036C24.0933 89.154 24.1151 89.0603 22.2927 89.2896C22.3062 89.3013 21.1495 88.16 20.9141 88.7557C20.6687 89.3749 23.1283 90.7271 23.3905 91.1103C24.2799 92.4123 24.1336 93.5519 25.6652 94.5125C26.5041 95.0379 27.6086 95.3475 28.1163 96.1123C29.0342 97.4946 28.4004 97.9916 27.4523 99.2082C27.3867 99.9429 29.5823 101.762 30.3405 102.046C30.5843 102.138 31.0029 101.759 31.1862 101.815C31.5745 101.938 32.0066 102.207 32.4033 102.312C33.1246 102.503 33.6491 103.206 34.3535 102.41C36.1507 102.545 34.9974 103.166 35.2344 104.287C35.4194 105.167 35.8582 105.564 36.4449 106.212C36.7055 106.498 39.7804 108.986 38.7683 109.632C38.5817 109.751 36.8164 109.359 36.6567 109.284C35.838 108.903 36.1171 108.869 35.4715 108.232C34.8192 107.587 33.5449 105.455 32.5261 105.417C31.7746 105.388 31.7998 105.601 31.3173 106.163C31.1357 106.824 30.9071 107.47 30.6314 108.098C30.3271 108.305 29.9841 108.327 29.6042 108.163C28.9653 108.819 28.4257 110.148 29.6765 110.876C30.4868 111.348 31.1172 110.7 32.0284 110.799C32.5815 110.859 32.9985 111.155 33.3986 111.465H46.6295C46.6177 111.408 46.6076 111.348 46.5992 111.284C46.5236 110.596 48.4283 110.933 46.7354 109.731C45.9721 109.997 43.8808 109.703 43.3831 108.861C43.5664 108.513 45.0021 108.011 44.7667 107.619C44.3279 106.893 43.2116 107.795 42.6938 107.974C42.4013 108.074 40.1183 108.976 39.9485 108.76C39.6929 108.437 40.9942 107.589 41.1152 107.32C41.5456 106.361 40.9555 106.349 41.0362 105.362C41.169 103.723 43.8791 103.027 43.9009 101.836C43.9547 99.0375 41.164 101.593 40.7655 101.754C39.4727 102.277 38.4119 101.231 37.7562 102.272C35.8514 102.465 36.8484 100.457 36.8786 99.6952C36.9408 98.1138 36.3541 98.6727 35.4446 97.3925C34.6292 97.6469 35.1235 98.4083 34.4561 98.8099C33.9937 99.0877 32.9464 99.1563 32.4084 99.0877C30.7087 98.8685 31.5157 98.8585 31.2652 97.0695C31.0954 95.8546 30.7121 94.5526 29.9656 93.6138C29.1469 92.5846 27.8793 92.1947 28.3332 90.4961C27.4791 90.548 25.4701 90.5346 25.3071 89.5657C25.1339 88.5348 27.5817 87.5123 28.113 87.0036C28.1399 86.9785 29.0695 85.6732 29.0662 85.7318C29.162 84.5302 28.3618 85.3251 27.7902 84.3428C26.6402 82.3614 30.2279 84.895 30.1505 84.9369C30.1438 84.8164 30.1354 84.6808 30.127 84.5419C30.6465 83.7738 30.7255 81.2084 31.2702 80.8486C30.9575 81.0779 32.8472 81.6234 32.9279 81.6401C33.6861 81.8092 35.2681 81.4728 35.801 81.8811C35.9473 81.9932 38.6002 87.3199 38.97 83.829C39.0608 82.9639 37.7209 82.4133 37.4317 81.8811C37.0047 81.0963 37.0619 80.2963 37.0299 79.4479C36.956 79.3743 35.6379 78.2146 36.27 77.9585C36.4953 77.8665 37.0047 78.7049 37.2081 78.2681C37.2334 78.2146 36.6769 77.2239 36.6214 77.1988C35.8935 76.8523 34.2442 77.6004 33.6558 77.987C31.9057 79.1417 32.8505 80.9557 29.8261 79.3793C29.6815 79.1617 29.8715 77.8882 28.9519 78.7551C28.9586 79.4864 29.7101 79.3157 29.1872 79.9667C28.8241 80.4168 27.2455 79.8094 27.0336 79.6621C26.4704 79.2705 26.5495 78.4907 26.0703 78.1075C25.4937 77.6472 25.1474 78.412 24.8851 78.1894C24.5051 77.8665 24.7119 76.5243 23.5939 77.2824C23.5805 77.2925 23.1585 79.0412 23.1854 79.1166C25.1188 78.899 22.1902 80.3315 21.627 80.4202C21.1714 80.4921 19.5339 79.7893 19.0312 80.5273C16.7414 80.6294 17.3702 83.0107 18.6462 83.8508ZM31.3812 108.444C31.1021 108.18 31.1374 108.039 31.4871 108.024C31.783 108.253 31.7494 108.394 31.3812 108.444ZM39.3046 108.775C39.6744 108.867 39.3533 109.242 39.165 109.194C38.928 108.934 38.9734 108.796 39.3046 108.775ZM22.8425 83.1295C22.8172 83.419 22.0523 84.803 21.6085 83.9177C21.4084 83.5178 22.6256 83.1094 22.8425 83.1295Z" fill="#C9C9C1"/>
<path d="M86.8384 77.5468C86.7593 77.505 86.6955 77.4464 86.6568 77.3577C86.2331 76.3837 86.0953 75.4181 86.8384 75.3144V73.3246C86.5744 73.4117 86.3609 73.4886 86.2617 73.5321C85.1101 74.0325 86.7207 74.5279 84.9807 74.4693C84.4477 74.4509 84.3317 73.7229 83.4659 73.8367C82.3345 73.9857 81.7898 75.2608 81.6923 76.1729C81.2384 76.4072 80.7559 76.5042 80.2481 76.4641C79.8178 76.787 79.8211 76.5042 79.4479 76.6281C78.7653 76.854 78.809 76.9494 78.1551 77.4179C76.5378 76.5661 77.5784 73.1305 75.9796 72.8644C75.1592 72.7272 74.707 73.6844 74.2026 74.0392C72.856 74.9864 73.2511 74.8475 71.8288 74.7688C70.3762 74.6885 68.7825 74.0007 67.3316 73.7129C66.6575 73.579 63.7877 73.2008 65.3193 74.6952C64.8468 75.1621 63.7793 75.7679 63.6465 76.4155C63.623 76.5327 64.0315 80.052 63.9794 79.9733C65.4218 82.1472 67.4191 77.7543 68.88 78.9341C69.6618 79.0596 68.6883 79.2889 68.9203 79.6754C69.3961 80.4687 70.0602 80.1557 70.5931 80.7214C71.3463 81.5213 70.6015 84.162 72.5198 83.6817C72.3903 83.7135 73.3385 82.527 73.5369 82.3982C74.021 82.0819 74.5002 82.1605 75.0163 81.9363C75.7762 81.605 76.4453 81.1749 77.2691 80.8937C77.8037 80.7113 79.7959 80.1541 80.0262 79.6068C80.5054 78.4739 78.3551 78.4806 80.1759 78.1208C80.0985 78.1359 81.24 78.407 81.3729 78.412C82.1529 78.4438 82.9565 77.8714 83.5752 77.8949C84.3099 77.9216 85.7271 78.7115 85.6346 79.7374C85.5455 80.713 83.9366 80.539 83.8122 81.3857C83.7769 81.6301 84.6158 82.4099 84.7688 82.5806C85.4548 83.3454 85.7137 83.409 86.1121 84.3444C86.4635 84.4281 86.6736 84.4984 86.8384 84.5553V77.5468ZM75.0197 78.2513C72.9838 78.0321 73.5755 74.5312 75.5644 75.2843C76.8841 75.5738 76.3528 78.3952 75.0197 78.2513ZM77.5717 78.7065C77.6574 79.6671 76.3915 79.0613 76.5714 78.8437C76.6521 78.745 77.8625 77.8832 77.9752 77.9719C78.3047 78.2279 77.7129 78.6178 77.5717 78.7065Z" fill="#C9C9C1"/>
<path d="M44.3487 63.8812C44.0662 63.605 41.8521 63.928 41.5327 63.9481C41.489 63.9515 40.1037 64.9639 39.67 64.5137C39.364 64.1958 40.3088 62.9005 40.4702 62.6378C41.3932 61.1434 41.331 62.3416 40.8216 60.5309C40.413 59.075 39.7641 57.1086 41.6437 57.0199C41.6672 57.2107 41.5697 57.3362 41.3495 57.3965C41.795 58.1111 41.6033 58.178 42.2741 58.1663C42.2254 58.1679 43.7451 56.7622 43.7502 56.8426C43.7351 56.6116 41.9009 54.99 41.5293 54.8327C40.4601 54.3792 38.9756 54.7591 37.8055 54.3842C37.5735 54.3106 37.3617 54.0663 37.2911 54.0428C38.0695 54.3106 36.1815 52.9317 36.1042 53.1894C35.9815 52.8898 35.9041 52.5551 35.7511 52.2656H28.3203C28.6717 52.4112 29.1138 52.4782 29.3929 52.5468C30.7748 52.8865 30.6286 52.8898 31.7466 53.9776C32.2526 54.4713 32.0525 54.724 32.7637 54.9365C33.4445 55.1406 33.843 53.9993 34.7525 54.4846C34.8584 54.7005 34.9828 54.9315 34.998 55.2126C34.5709 55.5105 34.4718 55.6628 34.6567 56.1581C35.1963 57.6006 36.1328 55.8017 36.1613 55.8067C37.0944 55.9791 37.6559 57.691 38.5637 58.3922C37.2188 58.4742 38.6394 60.4271 37.587 60.9493C37.4895 60.9978 34.1691 59.5636 33.9186 59.4599C33.1117 59.7326 32.6863 59.331 31.8861 59.833C31.5633 60.0355 31.175 60.7049 30.948 60.817C30.5008 61.0396 29.7577 60.715 29.4198 61.3408C29.0718 61.9851 30.2806 63.4645 31.0035 63.4946C31.9012 63.5331 30.679 62.2663 30.9278 61.8061C32.3047 59.254 32.4173 65.9395 33.7169 66.2608C34.8265 66.5353 35.3191 65.24 35.9478 64.6744C36.5177 64.1623 37.1095 63.4143 37.9938 63.8075C38.5553 64.0569 38.4931 64.9405 38.9487 65.1547C38.9975 65.3973 37.7837 67.2415 37.6139 67.608C37.3247 68.2322 37.392 69.5944 36.121 69.5743C35.235 69.5609 35.2417 68.4112 34.233 68.4665C32.9133 68.5384 33.6732 69.181 33.4177 70.1215C33.2479 70.7491 32.53 70.8964 32.5787 71.6578C32.6056 72.0895 33.1487 72.2619 33.2563 72.6083C33.4294 73.1723 33.6833 74.8608 34.3053 75.0432C34.8635 75.2055 36.2269 72.4175 36.5463 71.8653C37.1078 70.893 36.3194 70.8512 37.893 70.6018C39.1606 70.401 39.754 70.2939 40.8855 69.9241C41.1662 69.832 42.876 70.9834 42.8121 69.3317C42.8054 69.1559 41.2183 68.428 41.0553 67.8958C40.6854 66.6993 42.1363 65.3756 43.1046 64.9907C43.2593 64.9288 43.4207 64.4552 43.725 64.3263C43.957 64.2276 44.4765 64.733 44.611 64.6493C45.1624 64.3029 45.5154 63.9063 44.3487 63.8812Z" fill="#C9C9C1"/>
<path d="M51.1625 96.5058C50.6649 96.6397 48.5163 95.9753 49.3334 97.1284C49.2342 97.2488 49.1585 97.3392 49.0678 97.448C49.8058 98.8236 48.4003 97.1752 48.165 96.5226C47.3782 94.3404 48.2524 96.2397 49.1653 94.4441C49.1064 94.1178 48.8727 93.9337 48.5432 93.8383C48.8307 91.8101 46.699 91.9875 45.4902 92.272C45.5171 92.1163 45.5373 92.0008 45.5574 91.882C45.4196 91.4737 45.9391 90.9164 45.3591 90.9382C44.8665 89.33 44.1352 92.5464 43.2408 91.9406C43.1248 91.9624 43.3904 93.8551 43.4728 94.0442C43.5905 94.3136 43.4745 94.6466 43.6913 94.9277C43.8544 95.1403 44.305 94.9796 44.3571 95.0549C45.1153 96.1527 45.0565 95.3461 44.89 96.8154C44.7992 97.6137 44.421 97.381 44.6479 98.5542C44.7774 99.2219 45.3406 99.7942 45.2952 100.539C45.2532 101.21 44.6479 101.777 44.8228 102.247C44.9421 102.567 48.6054 104.855 47.9683 105.491C47.7833 105.345 47.1781 104.846 46.9444 105.101C47.2487 104.769 47.5833 107.146 47.5412 107.01C48.9854 107.134 52.3679 109.023 51.5492 105.869C51.2247 104.615 49.6024 104.495 49.1972 103.613C48.7719 102.689 49.9403 101.714 50.2126 100.971C51.0616 101.399 53.7364 100.942 54.0592 99.9097C54.2845 99.1884 53.3699 98.7366 53.4002 98.0354C53.385 98.3901 54.4896 96.6129 54.1752 96.7937C54.466 96.6263 55.157 97.8747 55.9455 96.8639C56.4935 96.1611 55.4663 94.0425 54.7854 93.7212C53.7179 93.2191 52.7748 94.2784 52.257 94.7453C52.2116 94.7922 51.1591 96.4339 51.1625 96.5058ZM52.8134 99.1516C52.7798 99.1432 52.7445 99.1348 52.7109 99.1265C52.6352 98.9039 52.7025 98.7366 52.9093 98.6261C53.0303 98.8269 52.9984 99.001 52.8134 99.1516Z" fill="#C9C9C1"/>
<path d="M86.8389 89.832C86.8171 89.8303 86.7952 89.8287 86.7717 89.8253C85.6756 89.663 86.1413 89.0037 86.8389 88.4029V85.891C86.5128 86.0332 86.5397 86.6156 86.2522 86.9001C86.2657 86.8867 86.8423 87.6816 86.0908 87.936C85.5562 88.1167 85.4066 87.3938 85.1157 87.1946C85.4385 87.4155 83.8078 85.7203 83.9944 86.1303C83.6481 85.3706 84.1978 85.4392 84.0953 84.6811C84.0062 84.01 83.2328 83.1599 83.2311 82.3717C83.4009 82.3248 83.4884 82.2261 83.4951 82.0755C83.3455 81.9282 83.0512 82.3617 82.6646 82.1257C81.8862 81.6521 81.3348 80.7769 80.5564 81.4915C80.4387 81.3107 80.2739 81.2137 80.0604 81.2036C79.7578 81.3325 80.9884 86.0801 79.9175 86.4851C79.6334 86.5922 79.2434 85.6868 78.8685 85.5948C78.3288 85.4626 77.7017 85.7554 77.3907 85.7069C76.5098 85.568 75.802 84.3631 75.1447 84.2728C72.5792 83.9247 73.5996 88.8062 74.4604 90.0496C74.995 90.8194 75.7263 91.2494 76.2593 91.6126C76.6073 91.8502 76.9603 91.8318 77.3504 92.2435C77.6832 92.5949 77.8362 93.2024 77.9522 93.3396C79.1307 94.7621 81.9383 95.3511 79.7864 92.7171C78.8769 92.8744 77.7085 92.2284 78.7726 91.4051C79.4535 92.1381 80.0403 91.6862 80.1209 90.8177C80.1966 90.0144 79.2064 89.3383 78.739 88.7894C79.1677 87.4189 78.8567 86.4683 80.4538 86.9587C81.1431 87.1695 81.5735 88.0247 82.0728 88.2958C82.2745 88.4045 84.2314 88.9568 84.1978 88.8781C84.3575 89.2614 83.6985 89.335 83.5136 89.3869C83.443 90.3759 85.7546 92.5514 86.733 92.374C86.7683 92.3673 86.802 92.3556 86.8356 92.3456V89.832H86.8389ZM78.3271 89.9475C78.3406 90.5784 76.619 90.9265 77.004 89.9324C77.2175 89.3819 78.5507 88.9652 78.3271 89.9475Z" fill="#C9C9C1"/>
<path d="M18.691 93.2538C18.4069 93.458 18.0942 93.4831 17.7529 93.3325C17.7697 93.3425 21.3809 89.8316 18.5346 88.6233C18.1564 88.4627 16.8534 88.1079 16.4668 88.2334C15.912 88.4125 16.571 88.9111 16.3222 89.127C15.5959 89.7613 13.824 90.7085 15.9725 91.0231C16.0532 90.9511 16.1541 90.8624 16.265 90.7637C16.5155 91.0783 16.2213 92.1426 16.5374 92.3602C15.7657 93.5567 17.0216 94.5189 17.1342 95.7121C17.225 96.6744 16.0717 97.6232 16.3777 98.1403C17.6621 98.234 18.2236 99.4272 18.8103 99.9795C19.2189 100.366 18.4539 100.478 19.3786 100.856C19.8863 101.064 20.6311 100.003 21.2565 100.128C21.3304 100.143 20.2276 102.719 22.8048 102.444C24.9954 102.21 24.6962 100.351 23.8589 98.952C23.0284 97.563 21.786 96.6794 20.4831 95.851C19.1583 95.0059 19.3349 94.4637 18.691 93.2538Z" fill="#C9C9C1"/>
<path d="M45.6482 88.4863C46.018 86.7007 46.5493 88.8846 47.6269 88.5951C48.3481 88.4009 48.1128 87.6529 48.6306 87.2881C48.8727 87.1174 49.5115 87.1726 49.8663 87.0454C51.8416 86.3325 55.3704 85.3067 52.2771 83.1262C51.6735 83.0659 50.6783 83.9361 50.2983 84.3562C50.9775 85.6832 47.9363 84.3846 48.0825 83.9177C50.7186 82.8316 48.523 81.2251 46.482 81.8727C46.7578 81.7857 47.7917 83.5998 46.7325 84.234C46.2668 84.5118 45.6633 83.9294 45.1758 84.065C44.7286 84.1905 44.2209 84.8381 43.851 84.8532C42.3295 82.7463 42.4304 85.0892 42.111 86.376C41.8487 87.4303 40.1608 88.7507 40.761 89.7314C41.1947 90.4409 41.4553 90.4208 41.8504 89.7949C42.2152 89.2193 40.1793 88.9331 41.7613 88.2955C43.1785 87.7232 42.7011 89.236 43.5215 89.5489C44.6832 89.9891 44.705 88.8026 45.6482 88.4863ZM52.2031 84.8415C51.8988 84.967 50.7556 85.8171 50.574 85.5862C50.1907 85.0958 51.887 84.2173 52.2031 84.8415ZM43.2088 85.0958C43.3635 85.0005 43.4895 84.9118 43.6493 84.9971C44.0057 85.2682 44.0847 85.546 43.888 85.8305C43.2693 85.9493 43.2844 85.638 43.2088 85.0958ZM46.9763 86.9902C46.8368 86.9316 46.6922 86.5049 46.9645 86.5467C47.3109 86.6003 47.1209 86.9149 46.9763 86.9902Z" fill="#C9C9C1"/>
<path d="M54.1568 81.1502C54.7687 81.0414 56.2532 81.0732 56.766 80.6682C57.5645 80.039 57.0703 78.9964 57.5881 78.148C57.8907 77.6509 59.629 77.1924 59.4844 76.3306C59.2155 74.7274 58.0134 75.5758 57.4569 76.2218C56.1002 75.7013 58.2639 74.3324 58.4556 74.048C59.2491 72.8698 59.2306 73.6179 58.2068 72.3042C57.151 72.9836 56.0347 72.1385 54.9822 73.0071C54.6174 73.3083 54.3451 75.1591 54.2039 75.6478C53.6575 77.5422 52.094 79.5721 54.1568 81.1502Z" fill="#C9C9C1"/>
<path d="M69.0136 69.5528C70.034 71.3233 70.6325 69.6314 71.88 69.9343C73.082 70.2272 72.7525 71.4187 74.3933 71.0254C75.4121 70.7811 77.4497 66.6895 76.1535 66.1389C75.392 65.8159 75.276 67.148 74.2588 66.4351C73.0518 65.5883 74.2303 65.7657 73.8789 65.0813C73.5242 64.3901 73.4788 64.6947 72.9139 63.9466C70.7687 61.1051 69.5162 64.3717 72.2952 65.6017C72.2868 65.8477 72.3036 66.1054 72.5104 66.2929C71.9691 67.3237 72.0447 67.3973 71.0814 67.4777C70.493 67.5262 68.8791 66.3765 68.7479 66.4451C68.3596 66.6476 69.5852 68.1136 69.5784 68.0684C69.7213 68.942 69.2136 68.7713 69.0136 69.5528Z" fill="#C9C9C1"/>
<path d="M43.4743 76.5326C42.9666 75.219 43.1902 74.9997 41.9159 75.0248C41.6099 75.0299 41.8268 75.639 41.6351 75.7026C41.082 75.885 40.6701 75.6273 40.117 75.7495C39.5437 75.875 38.8393 76.3803 38.2425 76.1628C37.691 75.962 37.5734 74.8876 37.343 74.8441C37.0169 74.7822 38.0239 78.1542 38.1332 78.4036C38.3686 78.9341 39.4563 80.1858 40.4331 80.4586C40.7458 80.5456 42.0857 80.6142 42.3025 80.6109C42.8876 80.6025 42.8876 81.1046 43.6256 80.5992C43.6307 80.5958 43.8912 79.334 43.9064 79.2654C44.0577 78.5726 44.9907 77.7877 43.4575 77.8212C43.2305 77.5769 43.2036 77.2572 43.0776 77.0012C43.1044 76.7552 43.3785 76.7652 43.4743 76.5326ZM42.6186 76.121C42.5261 76.1795 42.5278 76.1327 42.5833 76.0657C42.5951 76.0841 42.6068 76.1026 42.6186 76.121Z" fill="#C9C9C1"/>
<path d="M11.3518 91.4164C11.5636 91.2993 10.918 92.8857 10.8793 93.0079C10.7028 93.5618 11.6426 94.5676 10.1615 94.33C10.0051 94.3048 9.00147 93.0129 8.81654 92.9008C7.02104 91.8131 7.69855 93.0431 6.20902 93.6304C6.11488 93.5317 6.04091 93.4514 5.96693 93.3744C5.89801 93.361 5.77696 93.3844 5.63574 93.4313V94.7466C5.9787 95.0596 6.06444 95.6687 5.95853 96.1473C6.78063 97.4292 7.72041 96.6259 8.7039 96.3448C9.4806 96.1222 11.3181 96.1775 11.915 95.8411C13.3372 95.0395 13.5003 90.2216 11.3518 91.4164Z" fill="#C9C9C1"/>
<path d="M50.5264 71.6679C50.9753 70.8261 51.4713 72.1599 51.9739 71.8369C52.8448 71.2796 51.8377 71.0704 52.0765 70.627C52.8969 69.1041 55.4035 69.2681 54.6335 67.0591C54.3175 66.1538 53.9443 65.6869 52.8885 65.7388C51.5032 65.8057 52.4648 66.0668 51.673 67.0324C50.4306 68.5435 48.8604 67.0508 47.7256 68.7376C47.8752 69.899 47.5154 69.2865 48.4132 70.0312C48.7326 70.2973 50.2793 70.3425 50.1364 71.0135C50.1095 71.1441 47.2296 71.7633 48.9159 72.2854C49.6489 72.513 49.8506 71.5524 50.5264 71.6679ZM50.2776 70.0379C50.3549 70.1651 50.4323 70.2923 50.5096 70.4195C50.4087 70.6805 49.7363 70.3107 50.2776 70.0379Z" fill="#C9C9C1"/>
<path d="M6.67948 70.423C6.40881 69.6783 6.02382 69.6097 5.63379 69.8189V71.9224C6.32139 71.5744 6.93839 71.1409 6.67948 70.423Z" fill="#C9C9C1"/>
<path d="M39.2127 91.4753C39.0126 91.5322 38.8647 91.4854 38.7672 91.3331C38.6814 90.98 39.8499 91.0386 39.5842 90.5984C39.6582 90.7206 37.708 89.8989 37.9535 89.8989C37.3415 89.8973 36.6169 90.2838 36.1916 90.7541C35.8974 90.6871 35.6099 90.6235 35.309 90.5549C34.6365 92.1514 34.7357 94.9746 36.9734 95.0181C37.8476 95.0348 39.517 94.014 39.7641 93.1371C40.0365 92.1648 39.8448 92.466 39.2127 91.4753Z" fill="#C9C9C1"/>
<path d="M11.1548 67.1883C11.106 66.9724 9.31221 65.2353 9.08862 65.0563C8.32032 64.4438 7.48981 64.5843 6.95352 64.2229C6.29954 63.7811 7.01404 62.5494 5.63379 63.033V66.2411C5.64219 66.2411 5.64892 66.2411 5.65733 66.2427C6.78035 66.3114 7.00731 65.5332 7.71005 67.2284C7.75544 67.3355 7.3923 68.9621 8.11017 68.6442C8.26484 68.4752 8.30014 68.2777 8.2144 68.0534C8.90032 67.7689 9.89558 68.9454 10.2654 68.599C10.0872 67.5782 11.4171 68.3329 11.1548 67.1883Z" fill="#C9C9C1"/>
<path d="M55.0361 93.1404C55.2396 93.6977 56.4281 94.2633 56.9157 94.6717C57.2267 94.9327 56.8854 95.3578 57.2721 95.6021C57.3965 95.6808 59.8931 96.1058 59.7233 96.1627C59.883 95.9251 59.8527 95.6741 59.6375 95.4097C60.1015 94.014 62.3358 96.4556 62.8704 95.2105C63.3092 94.1914 61.4851 94.024 61.0396 93.4735C60.7017 93.6944 59.1349 94.5127 58.955 93.5605C59.1769 93.2509 60.0326 92.9246 59.93 92.4844C59.814 92.5062 59.7115 92.5279 59.5921 92.5497C58.9583 92.1046 58.4405 91.7029 57.6722 91.651C56.0936 91.5423 56.2096 92.6468 55.0361 93.1404Z" fill="#C9C9C1"/>
<path d="M28.8282 71.5125C29.0635 71.0005 28.6735 70.4248 28.0397 70.711C27.2764 71.0557 27.8917 71.9192 27.8178 72.3058C27.5387 73.745 27.0545 74.6219 28.4886 75.979C28.618 75.9138 28.7525 75.8468 28.9038 75.7715C31.1129 77.1555 30.3059 74.3825 30.005 73.5592C29.9899 73.5174 29.7192 72.5183 29.6973 72.4815C29.467 72.1083 29.0938 71.9142 28.8282 71.5125Z" fill="#C9C9C1"/>
<path d="M65.4846 69.0255C64.6609 68.9134 64.2053 67.6382 63.247 68.8046C62.8082 69.3385 63.1982 70.5685 63.5143 70.9383C64.0355 71.5508 65.1417 72.0411 65.8511 71.2462C65.7772 71.3299 65.7435 68.6691 65.8982 68.8297C65.7318 68.813 65.5939 68.8783 65.4846 69.0255Z" fill="#C9C9C1"/>
<path d="M58.323 68.5837C58.4525 68.485 59.7151 66.768 58.9535 66.7195C58.1314 66.6676 58.3567 68.2557 57.9061 68.398C57.2353 68.6089 56.8234 66.3062 55.9879 68.075C55.4953 69.1176 56.9932 70.1016 57.8103 70.3543C58.5433 69.6648 58.9518 69.4422 58.323 68.5837Z" fill="#C9C9C1"/>
<path d="M50.1235 79.5481C50.0949 79.3088 50.0714 79.1147 50.0445 78.8904C47.3848 78.8971 50.0159 74.9628 46.7393 76.2731C47.1142 77.8478 48.3498 80.5505 50.1235 79.5481Z" fill="#C9C9C1"/>
<path d="M31.9182 88.2585C30.9986 90.3989 35.3176 89.209 34.5493 87.5439C34.5829 87.6175 33.4733 87.2326 33.3977 87.231C32.4192 87.2059 32.3688 87.2745 31.9182 88.2585Z" fill="#C9C9C1"/>
<path d="M13.7006 75.224C12.8735 74.8073 12.6162 73.3782 11.6042 73.7095C10.1399 74.1898 12.2817 74.9061 12.4414 75.1035C12.6751 75.3964 12.6213 76.8239 13.5678 76.6381C14.0436 76.5461 13.477 75.6708 13.7006 75.224Z" fill="#C9C9C1"/>
<path d="M66.7338 67.571C66.7859 67.7601 66.8313 67.9191 66.875 68.0764C66.675 68.2923 66.1807 68.1601 66.2311 68.637C66.3354 68.632 66.4329 68.6052 66.5253 68.5601C68.1359 70.5983 68.5881 67.7685 68.0518 66.9385C67.8047 66.5586 66.7876 67.5091 66.7338 67.571Z" fill="#C9C9C1"/>
<path d="M50.9173 76.7001C49.1487 76.4575 49.2714 77.9101 50.4668 78.0038C51.4553 78.0808 51.7092 77.1771 50.9173 76.7001Z" fill="#C9C9C1"/>
<path d="M7.38833 72.3792C7.28241 72.1298 7.09412 72.0579 6.82513 72.1616C6.38298 72.5449 8.01877 73.9924 8.44243 73.3297C8.93333 72.5616 8.01709 72.252 7.38833 72.3792Z" fill="#C9C9C1"/>
<path d="M9.34764 75.4903C8.90717 75.5573 8.7878 75.0837 8.25823 75.2895C7.86315 75.4435 8.0649 76.0259 8.37087 76.148C8.86682 76.3472 10.195 75.7531 9.34764 75.4903Z" fill="#C9C9C1"/>
<path d="M32.9508 93.6442C33.3661 93.4802 33.3661 93.4802 33.7477 93.497C35.2894 91.7867 32.5658 92.4444 32.9508 93.6442Z" fill="#C9C9C1"/>
<path d="M22.5959 87.4824C22.8346 86.7662 21.9587 86.3294 21.7452 87.2816C21.5519 88.1468 22.1537 88.0096 22.5959 87.4824Z" fill="#C9C9C1"/>
<path d="M30.4524 71.0958C31.5048 71.3569 30.7516 70.6389 30.8492 70.2607C30.7937 70.4749 29.0637 70.2775 30.4524 71.0958Z" fill="#C9C9C1"/>
<path d="M27.2857 70.8094C27.8035 70.4363 28.0456 70.0447 27.6724 69.561C26.8839 69.9108 26.5645 70.294 27.2857 70.8094Z" fill="#C9C9C1"/>
<path d="M34.0234 90.1516C33.0315 89.6964 34.0301 91.9489 34.0486 91.3314C34.0587 90.9749 34.753 90.8226 34.0234 90.1516Z" fill="#C9C9C1"/>
<path d="M82.0627 69.1514C82.3368 69.1915 81.0826 69.0426 81.2137 69.4409C81.2003 69.4024 82.5436 69.7739 82.6696 69.6199C82.6579 69.3505 82.4561 69.1932 82.0627 69.1514Z" fill="#C9C9C1"/>
<path d="M84.8206 70.4181C84.7752 70.7427 84.9214 70.9101 85.256 70.9201C85.9402 70.8314 85.0105 69.7035 84.8206 70.4181Z" fill="#C9C9C1"/>
<path d="M44.4158 73.2211C44.4258 73.0069 44.3351 72.8897 44.1468 72.8696C43.8475 72.9818 43.7988 73.1625 43.9971 73.4135C44.177 73.4788 44.3166 73.4152 44.4158 73.2211Z" fill="#C9C9C1"/>
<path d="M32.2442 71.8521C32.3047 71.5894 31.7718 71.3769 31.6709 71.6764C31.5532 72.0279 32.182 72.1232 32.2442 71.8521Z" fill="#C9C9C1"/>
<path d="M44.1373 72.2268C44.3256 72.1365 44.3441 71.9808 44.1911 71.7599C43.9019 71.5859 43.9759 72.1783 44.1373 72.2268Z" fill="#C9C9C1"/>
<path d="M44.7686 71.5876C44.9888 71.7031 45.1502 71.6663 45.2561 71.4788C45.0813 71.1743 44.9199 71.2111 44.7686 71.5876Z" fill="#C9C9C1"/>
<path d="M61.755 72.6636C61.555 72.7439 61.5785 72.8627 61.829 73.0167C62.0308 72.9614 62.0072 72.8443 61.755 72.6636Z" fill="#C9C9C1"/>
</g>
<path d="M28.4372 51.2757C28.5866 52.9197 29.6926 57.0447 33.5187 60.3925C38.3013 64.5773 42.0377 64.7267 44.1301 64.7267C46.2225 64.7267 49.9589 64.5773 54.7415 60.3925C58.5675 57.0447 59.6735 52.9197 59.823 51.2757L59.9423 47.815C59.9821 48.5703 60.2902 49.4822 61.3176 49.4822C62.9616 49.4822 62.2932 45.7375 62.9616 44.4007C64.1572 42.0094 65.5023 38.273 63.1109 37.0774C62.2784 36.6611 60.6899 36.411 59.9724 41.1936V26.466C60.2713 23.5267 57.0431 17.1997 44.1301 17.1997C31.2171 17.1997 27.9888 23.5267 28.2877 26.466V41.7105C27.5703 36.9279 25.9818 36.6611 25.1492 37.0774C22.7579 38.273 24.103 42.0094 25.2986 44.4007C25.9669 45.7375 25.2986 49.4822 26.9426 49.4822C27.9699 49.4822 28.278 48.5703 28.3179 47.815L28.4372 51.2757Z" fill="white"/>
<path d="M25.4454 29.1561C25.7443 32.5936 24.5486 30.9496 25.1464 34.5365C25.74 35.342 25.6834 36.1101 26.3475 37.1407C27.6926 37.888 27.982 40.7854 28.2071 41.6857C29.1849 42.0028 28.7334 38.3626 29.3312 32.1453C30.0785 24.3735 32.1709 21.8328 34.5622 21.235C36.9535 20.6371 38.1491 22.4306 42.6328 22.5801C47.1165 22.7295 46.3692 21.5339 51.0024 21.235C57.3393 20.9958 59.1228 24.8219 59.2224 26.7648C59.1726 28.4089 58.804 33.3708 59.5214 35.2838C60.2387 37.1969 59.2224 41.561 60.1192 41.4115C60.2686 40.8137 60.8837 37.974 61.631 37.3762C62.0794 37.0175 62.6772 37.0773 63.1255 37.2268C63.275 36.7784 63.3973 35.8181 63.4245 35.5827C63.8728 31.6969 64.9018 23.1181 64.304 19.8899C63.5567 15.8545 61.4643 14.36 60.4181 13.7622C60.8665 13.4632 60.4181 12.1181 59.9697 12.5665C59.5214 13.0149 56.8311 13.6127 56.0839 13.4632C55.3366 13.3138 56.3828 11.5203 54.4398 10.1752C52.4969 8.8301 52.3475 8.97956 51.0024 9.12902C49.6573 9.27847 44.5757 8.38173 43.0812 8.08281C41.5866 7.7839 40.5404 7.93336 39.9426 8.68064C39.3448 9.42792 37.1029 9.57737 36.2062 9.57737C35.4888 9.57737 34.2135 10.6734 33.6655 11.2214C27.3883 14.6589 26.641 16.9007 26.1926 18.6942C25.4454 20.0393 25.1464 25.7186 25.4454 29.1561Z" fill="#C9C9C1"/>
</g>
<defs>
<linearGradient id="paint0_linear_1_24890" x1="45.9234" y1="56.5063" x2="45.9234" y2="72.6476" gradientUnits="userSpaceOnUse">
<stop offset="0.0260417" stop-color="#FAFAFA"/>
<stop offset="1" stop-color="#F4F4F4"/>
</linearGradient>
</defs>
</svg>
