<svg width="22" height="24" viewBox="0 0 22 24" fill="none" xmlns="http://www.w3.org/2000/svg">
<path d="M21 17.75C21.5523 17.75 22 17.3023 22 16.75C22 16.1977 21.5523 15.75 21 15.75V17.75ZM1 15.75C0.447715 15.75 0 16.1977 0 16.75C0 17.3023 0.447715 17.75 1 17.75V15.75ZM14.5 19.75C14.5 19.1977 14.0523 18.75 13.5 18.75C12.9477 18.75 12.5 19.1977 12.5 19.75H14.5ZM9.5 19.75C9.5 19.1977 9.05229 18.75 8.5 18.75C7.94772 18.75 7.5 19.1977 7.5 19.75H9.5ZM3 8.75V13.75H5V8.75H3ZM17 8.75V13.75H19V8.75H17ZM17 13.75C17 15.9591 18.7909 17.75 21 17.75V15.75C19.8954 15.75 19 14.8546 19 13.75H17ZM3 13.75C3 14.8546 2.10457 15.75 1 15.75V17.75C3.20914 17.75 5 15.9591 5 13.75H3ZM11 2.75C14.3137 2.75 17 5.43629 17 8.75H19C19 4.33172 15.4183 0.75 11 0.75V2.75ZM5 8.75C5 5.43629 7.68629 2.75 11 2.75V0.75C6.58172 0.75 3 4.33172 3 8.75H5ZM21 15.75H1V17.75H21V15.75ZM11 23.25C12.933 23.25 14.5 21.683 14.5 19.75H12.5C12.5 20.5784 11.8284 21.25 11 21.25V23.25ZM7.5 19.75C7.5 21.683 9.067 23.25 11 23.25V21.25C10.1716 21.25 9.5 20.5784 9.5 19.75H7.5Z" fill="#383636"/>
</svg>
