<svg width="24" height="24" viewBox="0 0 24 24" fill="none" xmlns="http://www.w3.org/2000/svg">
<path fill-rule="evenodd" clip-rule="evenodd" d="M12 0C5.37258 0 0 5.37258 0 12C0 18.6274 5.37258 24 12 24C18.6274 24 24 18.6274 24 12C24 5.37258 18.6274 0 12 0ZM12.9772 15.7879C12.8588 15.9126 12.6278 15.9378 12.6278 15.9378H11.8628C11.8628 15.9378 10.175 16.0374 8.68811 14.5183C7.06664 12.8609 5.63487 9.57257 5.63487 9.57257C5.63487 9.57257 5.55223 9.35687 5.64175 9.25302C5.74255 9.13564 6.01738 9.12827 6.01738 9.12827L7.84607 9.11659C7.84607 9.11659 8.01823 9.14425 8.14157 9.23335C8.24361 9.3071 8.30058 9.44414 8.30058 9.44414C8.30058 9.44414 8.59608 10.1779 8.98736 10.8416C9.75176 12.1376 10.1074 12.4209 10.3665 12.282C10.7447 12.0798 10.6314 10.4501 10.6314 10.4501C10.6314 10.4501 10.6382 9.85894 10.441 9.59531C10.2883 9.39129 10.0003 9.33168 9.87322 9.31509C9.76992 9.30157 9.93895 9.06682 10.1581 8.96173C10.4874 8.8038 11.0683 8.79458 11.7551 8.80134C12.2904 8.80687 12.4444 8.83944 12.6535 8.88922C13.1388 9.00417 13.1236 9.37257 13.0909 10.1676C13.0812 10.4054 13.0698 10.6814 13.0698 11.0001C13.0698 11.0717 13.0677 11.1481 13.0655 11.2266C13.0542 11.634 13.0412 12.1004 13.3146 12.274C13.4548 12.3625 13.7973 12.2869 14.6543 10.8588C15.0607 10.1816 15.3649 9.38576 15.3649 9.38576C15.3649 9.38576 15.4319 9.2438 15.5352 9.18296C15.641 9.1209 15.7837 9.13995 15.7837 9.13995L17.7082 9.12827C17.7082 9.12827 18.2867 9.06006 18.38 9.31693C18.4783 9.58548 18.164 10.2135 17.3777 11.2422C16.6318 12.2183 16.2688 12.5777 16.3021 12.8956C16.3265 13.1278 16.5624 13.3379 17.0152 13.7501C17.9604 14.6115 18.2137 15.0647 18.2746 15.1736C18.2796 15.1827 18.2834 15.1893 18.2861 15.1937C18.7099 15.8838 17.8159 15.9378 17.8159 15.9378L16.1062 15.9612C16.1062 15.9612 15.7393 16.0325 15.256 15.7068C15.0028 15.5363 14.7554 15.2579 14.5198 14.9927C14.1599 14.5877 13.8275 14.2136 13.5437 14.302C13.0673 14.4507 13.0817 15.4579 13.0817 15.4579C13.0817 15.4579 13.0855 15.6736 12.9772 15.7879Z" fill="#5B8388"/>
</svg>
