<svg width="63" height="63" viewBox="0 0 63 63" fill="none" xmlns="http://www.w3.org/2000/svg">
<path d="M57.3212 37.9794V31.3199C57.3212 20.6302 51.7855 10.7875 41.1678 9.54816C38.351 9.21937 35.1209 9.01489 31.4436 9.01489C27.7663 9.01489 24.5362 9.21937 21.7194 9.54816C11.1017 10.7875 5.56601 20.6302 5.56601 31.32V37.9794C5.56601 49.2116 11.639 59.3675 22.8241 60.3949C25.3724 60.6289 28.2381 60.7701 31.4436 60.7701C34.6491 60.7701 37.5148 60.6289 40.0632 60.3949C51.2482 59.3675 57.3212 49.2115 57.3212 37.9794Z" fill="#655D5D"/>
<path d="M57.3212 37.9794V31.3199C57.3212 20.6302 51.7855 10.7875 41.1678 9.54816C38.351 9.21937 35.1209 9.01489 31.4436 9.01489C27.7663 9.01489 24.5362 9.21937 21.7194 9.54816C11.1017 10.7875 5.56601 20.6302 5.56601 31.32V37.9794C5.56601 49.2116 11.639 59.3675 22.8241 60.3949C25.3724 60.6289 28.2381 60.7701 31.4436 60.7701C34.6491 60.7701 37.5148 60.6289 40.0632 60.3949C51.2482 59.3675 57.3212 49.2115 57.3212 37.9794Z" fill="url(#paint0_linear_1_18289)"/>
<path d="M62.6207 38.7382V23.7582C62.6207 13.0684 57.1581 3.18583 46.6031 1.49366C42.5021 0.836191 37.5237 0.38916 31.5676 0.38916C25.6115 0.38916 20.6331 0.836193 16.5321 1.49367C5.97708 3.18583 0.514465 13.0684 0.514465 23.7582V38.7382C0.514465 49.9703 6.52082 60.1804 17.6567 61.6479C21.5339 62.1588 26.1456 62.4954 31.5676 62.4954C36.9895 62.4954 41.6013 62.1588 45.4785 61.6479C56.6144 60.1804 62.6207 49.9703 62.6207 38.7382Z" fill="#E9E8E5"/>
<path opacity="0.5" d="M15.1386 14.1909C11.4206 18.1301 9.14136 23.442 9.14136 29.2862C9.14136 32.3201 9.75561 35.2106 10.8665 37.84M50.7748 39.2059C52.2833 36.2255 53.1333 32.8551 53.1333 29.2862C53.1333 23.442 50.854 18.1301 47.136 14.1909" stroke="white" stroke-width="0.862587" stroke-linecap="round" stroke-linejoin="round"/>
<g opacity="0.5" clip-path="url(#clip0_1_18289)">
<path d="M12.1973 46.7655C11.8936 46.2971 11.7555 45.8011 11.7279 45.2775C11.7003 44.754 11.8384 44.258 12.0869 43.7896C12.3354 43.3212 12.722 42.9354 13.1914 42.6599C13.9369 42.219 14.6824 42.0813 15.4832 42.2466C16.284 42.4119 16.8914 42.8803 17.3608 43.5967C17.7474 44.2029 17.8855 44.8367 17.775 45.498C17.6646 46.1593 17.3884 46.7379 16.8638 47.2063L16.2011 46.1317C16.3392 45.9388 16.4496 45.746 16.5325 45.5255C16.5877 45.3051 16.6153 45.0847 16.5877 44.8642C16.5601 44.6438 16.4772 44.4234 16.3392 44.2305C16.0907 43.8172 15.7041 43.5692 15.2347 43.459C14.7653 43.3763 14.2959 43.459 13.8541 43.7345C13.4123 44.0101 13.1361 44.3683 12.9981 44.8367C12.8876 45.3051 12.9429 45.746 13.1914 46.1593C13.3847 46.4899 13.6608 46.7104 13.9921 46.8206C14.3235 46.9308 14.6824 46.9584 15.0414 46.8481L15.7041 47.9228C15.0138 48.1983 14.3511 48.2258 13.716 48.0054C13.0809 47.785 12.5839 47.3717 12.1973 46.7655Z" fill="white"/>
<path d="M16.9186 50.403L18.5753 51.8909L17.8022 52.7727L15.2066 50.4581L19.0723 46.1597L20.0112 46.9863L16.9186 50.403Z" fill="white"/>
<path d="M22.9655 55.0594C22.358 55.2522 21.7506 55.1696 21.1431 54.8665C20.5356 54.5634 20.1214 54.095 19.9005 53.5163C19.6796 52.9377 19.7349 52.3315 20.0386 51.7253L21.6677 48.5015L22.7998 49.0801L21.1983 52.2488C21.0326 52.5519 21.005 52.855 21.0879 53.1581C21.1707 53.4337 21.364 53.6541 21.6677 53.8194C21.9715 53.9848 22.2752 54.0123 22.5513 53.9021C22.8274 53.8194 23.0483 53.599 23.214 53.2959L24.8155 50.1272L25.92 50.6782L24.2909 53.9021C24.0148 54.5083 23.573 54.894 22.9655 55.0594Z" fill="white"/>
<path d="M29.5379 54.0956C29.7588 54.261 29.9245 54.4814 30.0349 54.7569C30.1454 55.0049 30.1454 55.308 30.0902 55.6111C30.0073 56.0795 29.7588 56.4377 29.3722 56.6857C28.9857 56.9337 28.5163 57.0439 28.0192 56.9613L25.5894 56.548L26.5834 50.8442L28.9581 51.2576C29.4551 51.3402 29.8417 51.5606 30.1178 51.8913C30.3939 52.2219 30.5044 52.6077 30.4215 53.021C30.3663 53.269 30.2835 53.4894 30.1178 53.6823C29.9521 53.8476 29.7588 53.9854 29.5379 54.0956ZM28.1021 55.7764C28.2954 55.804 28.4887 55.7764 28.6267 55.6938C28.7648 55.5836 28.8752 55.4458 28.9028 55.2529C28.9305 55.06 28.9028 54.8947 28.7924 54.7569C28.6819 54.6192 28.5439 54.5365 28.323 54.4814L27.2185 54.2885L26.9976 55.556L28.1021 55.7764ZM29.1513 52.9659C29.179 52.8832 29.179 52.8006 29.1513 52.7179C29.1237 52.6353 29.0961 52.5802 29.0685 52.4975C29.0133 52.4424 28.9581 52.3873 28.9028 52.3322C28.82 52.2771 28.7372 52.2495 28.6543 52.2495L27.6327 52.0842L27.4118 53.2966L28.4334 53.4619C28.6267 53.4894 28.7924 53.4619 28.9304 53.3792C29.0685 53.2966 29.1237 53.1588 29.1513 52.9659Z" fill="white"/>
<path d="M41.3296 55.1973L40.1147 55.5555L38.4856 52.0837L37.9057 56.1893L37.602 56.2719L34.8683 53.1583L35.393 56.9332L34.1504 57.2914L33.3773 51.4775L34.5922 51.1193L37.1049 54.0676L37.602 50.21L38.8169 49.8518L41.3296 55.1973Z" fill="white"/>
<path d="M46.3258 51.5601L45.3317 50.9263L43.5093 52.3316L43.8683 53.4337L42.819 54.2328L41.0794 48.2811L42.0182 47.5647L47.4303 50.7059L46.3258 51.5601ZM42.4876 49.1353L43.1503 51.2294L44.3377 50.2926L42.4876 49.1353Z" fill="white"/>
<path d="M45.8836 42.9912L46.574 41.9717L51.3785 45.1955L50.7986 46.0497L46.3254 46.215L49.3352 48.2265L48.6449 49.246L43.8403 46.0221L44.4754 45.0853L48.8382 44.9475L45.8836 42.9912Z" fill="white"/>
<path d="M21.1427 14.8309C20.5353 15.134 19.983 15.2167 19.4584 15.1065C18.9337 14.9687 18.5196 14.6381 18.2434 14.087L19.3755 13.5083C19.4308 13.6186 19.5136 13.7288 19.6241 13.8114C19.7069 13.8941 19.8173 13.9216 19.9278 13.9492C20.0382 13.9768 20.1487 13.9768 20.2591 13.9492C20.3696 13.9216 20.48 13.8941 20.6181 13.839C20.839 13.7288 21.0047 13.5634 21.1151 13.3706C21.2256 13.1777 21.2256 12.9848 21.1427 12.7919C21.1151 12.7093 21.0599 12.6542 20.9771 12.599C20.8942 12.5715 20.839 12.5439 20.7562 12.5164C20.6733 12.5164 20.5905 12.5164 20.4524 12.5164C20.3144 12.5439 20.2315 12.5439 20.1487 12.5715C20.0659 12.599 19.9278 12.6266 19.7621 12.6542C19.6241 12.6817 19.5412 12.7093 19.4584 12.7368C19.4032 12.7368 19.3203 12.7644 19.1823 12.7644C19.0442 12.7919 18.9337 12.7919 18.8785 12.8195C18.7957 12.8195 18.7128 12.8195 18.5748 12.8195C18.4643 12.8195 18.3539 12.8195 18.271 12.7919C18.1882 12.7644 18.1054 12.7368 17.9949 12.7093C17.8845 12.6817 17.8016 12.6266 17.7188 12.5439C17.636 12.4888 17.5531 12.4062 17.4979 12.2959C17.4151 12.2133 17.3598 12.1031 17.277 11.9929C17.0285 11.4969 17.0009 11.0285 17.1942 10.5876C17.3875 10.1467 17.774 9.78852 18.3539 9.48542C18.9337 9.18232 19.4584 9.09966 19.9554 9.23743C20.4248 9.3752 20.8114 9.6783 21.0599 10.2018L19.9554 10.7529C19.845 10.5325 19.6793 10.4223 19.486 10.3947C19.2927 10.3672 19.0718 10.3947 18.8509 10.5049C18.6576 10.6151 18.4919 10.7254 18.4091 10.8907C18.2987 11.056 18.2987 11.1938 18.3815 11.3591C18.4091 11.4418 18.4643 11.4969 18.5472 11.5244C18.63 11.552 18.6852 11.5795 18.7405 11.6071C18.7957 11.6071 18.9061 11.6071 19.0166 11.6071C19.127 11.6071 19.2375 11.5795 19.3203 11.552C19.4032 11.5244 19.5136 11.4969 19.6793 11.4693C19.845 11.4418 19.983 11.3867 20.0935 11.3867C20.1763 11.3591 20.3144 11.3591 20.48 11.3316C20.6457 11.304 20.7838 11.304 20.8942 11.304C21.0047 11.304 21.1151 11.3316 21.2808 11.3591C21.4189 11.3867 21.5569 11.4418 21.6674 11.4969C21.7778 11.552 21.8883 11.6622 21.9987 11.7724C22.1092 11.8826 22.192 12.0204 22.2748 12.1857C22.4681 12.5439 22.5234 12.9021 22.4681 13.2328C22.4129 13.591 22.2748 13.8941 22.0539 14.1421C21.8054 14.4176 21.5293 14.6381 21.1427 14.8309Z" fill="white"/>
<path d="M23.8487 13.5355L22.0815 8.02467L23.2689 7.63892L25.0361 13.1498L23.8487 13.5355Z" fill="white"/>
<path d="M27.1631 11.4688L29.3445 11.1106L29.5378 12.2678L26.1138 12.8465L25.1474 7.11521L26.39 6.89478L27.1631 11.4688Z" fill="white"/>
<path d="M33.2656 6.50918H34.6463L32.3544 12.268L31.1671 12.2405L28.9857 6.42651L30.3663 6.45407L31.7746 10.5596L33.2656 6.50918Z" fill="white"/>
<path d="M36.4955 11.6617L38.7321 12.2127L38.456 13.3425L34.9769 12.5158L36.3299 6.89478L39.6986 7.7214L39.4225 8.85112L37.2687 8.32759L36.9926 9.42976L38.953 9.89818L38.6769 11.0004L36.7164 10.5319L36.4955 11.6617Z" fill="white"/>
<path d="M42.0995 14.9687L41.9339 12.7093L41.2159 12.3511L40.36 14.1421L39.2278 13.591L41.7406 8.35571L43.8667 9.37522C44.1981 9.54054 44.4742 9.76098 44.6951 10.0365C44.916 10.3121 45.0264 10.6152 45.0541 10.9734C45.0817 11.304 45.0264 11.6347 44.8608 11.9929C44.6951 12.3511 44.4742 12.5991 44.1705 12.7644C43.8667 12.9573 43.5354 13.0399 43.1764 13.0399L43.3697 15.5749L42.0995 14.9687ZM42.348 9.95386L41.6853 11.304L42.5966 11.7449C42.8175 11.8551 43.0384 11.8827 43.2316 11.8275C43.4249 11.7724 43.563 11.6347 43.6734 11.4418C43.7287 11.304 43.7563 11.1662 43.7563 11.056C43.7563 10.9183 43.7011 10.808 43.6182 10.6978C43.5354 10.5876 43.3973 10.5049 43.2593 10.4223L42.348 9.95386Z" fill="white"/>
</g>
<g filter="url(#filter0_d_1_18289)">
<path d="M40.9232 33.0167H36.8838L35.2965 34.6492H39.3359L40.9232 33.0167Z" fill="white"/>
<path d="M31.488 36.7539L22.3789 27.4924H26.0928L31.488 32.9778L36.8831 27.4924H40.597L31.488 36.7539Z" fill="white"/>
<path d="M43.1433 30.5674H39.1039L37.5166 32.2H41.556L43.1433 30.5674Z" fill="white"/>
<path d="M22.2098 33.0167H26.2492L27.8365 34.6492H23.7971L22.2098 33.0167Z" fill="white"/>
<path d="M19.9897 30.5674H24.0291L25.6164 32.2H21.577L19.9897 30.5674Z" fill="white"/>
</g>
<g filter="url(#filter1_d_1_18289)">
<path fill-rule="evenodd" clip-rule="evenodd" d="M31.5678 24.4045L28.4807 27.4917L31.5678 30.5788L34.655 27.4917L31.5678 24.4045ZM31.5678 26.1631L30.2394 27.4915L31.5678 28.82L32.8962 27.4915L31.5678 26.1631Z" fill="white"/>
</g>
<g filter="url(#filter2_d_1_18289)">
<path fill-rule="evenodd" clip-rule="evenodd" d="M31.5677 15.9155C23.469 15.9155 16.9037 22.4808 16.9037 30.5795C16.9037 38.6782 23.469 45.2435 31.5677 45.2435C39.6664 45.2435 46.2317 38.6782 46.2317 30.5795C46.2317 22.4808 39.6664 15.9155 31.5677 15.9155ZM17.8757 30.5795C17.8757 28.5076 18.3359 26.5431 19.1597 24.7828L19.9105 25.1178C19.1323 26.7759 18.6975 28.627 18.6975 30.5798C18.6975 32.5312 19.1318 34.3812 19.909 36.0384L19.1583 36.3733C18.3354 34.6138 17.8757 32.6503 17.8757 30.5795ZM25.9035 41.7475L20.4001 36.2441C19.5357 34.5432 19.0485 32.6184 19.0485 30.5798C19.0485 28.538 19.5372 26.6103 20.4042 24.9074L25.8955 19.4161C27.5984 18.5492 29.526 18.0604 31.5678 18.0604C33.6094 18.0604 35.5369 18.5491 37.2396 19.4158L42.7318 24.9081C43.5986 26.6108 44.0872 28.5382 44.0872 30.5798C44.0872 32.6182 43.6001 34.5428 42.7359 36.2435L37.2316 41.7478C35.5308 42.612 33.6062 43.0992 31.5678 43.0992C29.5292 43.0992 27.6044 42.6119 25.9035 41.7475ZM26.1065 42.2374L25.7716 42.9878C27.5318 43.8114 29.496 44.2715 31.5677 44.2715C33.6394 44.2715 35.6035 43.8115 37.3637 42.9879L37.0288 42.2375C35.371 43.0154 33.5202 43.4502 31.5678 43.4502C29.6153 43.4502 27.7644 43.0154 26.1065 42.2374ZM43.2266 36.0386L43.977 36.3735C44.8 34.6139 45.2598 32.6504 45.2598 30.5795C45.2598 28.5075 44.7995 26.543 43.9757 24.7827L43.225 25.1176C44.0033 26.7757 44.4382 28.627 44.4382 30.5798C44.4382 32.5313 44.0039 34.3814 43.2266 36.0386ZM37.0273 18.9213L37.3623 18.1705C35.6025 17.3473 33.6388 16.8875 31.5677 16.8875C29.4965 16.8875 27.5328 17.3473 25.773 18.1705L26.1081 18.9215C27.7655 18.1439 29.6159 17.7094 31.5678 17.7094C33.5196 17.7094 35.3699 18.1438 37.0273 18.9213Z" fill="white"/>
</g>
<defs>
<filter id="filter0_d_1_18289" x="19.6038" y="27.4924" width="23.9254" height="10.0333" filterUnits="userSpaceOnUse" color-interpolation-filters="sRGB">
<feFlood flood-opacity="0" result="BackgroundImageFix"/>
<feColorMatrix in="SourceAlpha" type="matrix" values="0 0 0 0 0 0 0 0 0 0 0 0 0 0 0 0 0 0 127 0" result="hardAlpha"/>
<feOffset dy="0.385894"/>
<feGaussianBlur stdDeviation="0.192947"/>
<feColorMatrix type="matrix" values="0 0 0 0 0 0 0 0 0 0 0 0 0 0 0 0 0 0 0.18 0"/>
<feBlend mode="normal" in2="BackgroundImageFix" result="effect1_dropShadow_1_18289"/>
<feBlend mode="normal" in="SourceGraphic" in2="effect1_dropShadow_1_18289" result="shape"/>
</filter>
<filter id="filter1_d_1_18289" x="28.0948" y="24.4045" width="6.9461" height="6.9461" filterUnits="userSpaceOnUse" color-interpolation-filters="sRGB">
<feFlood flood-opacity="0" result="BackgroundImageFix"/>
<feColorMatrix in="SourceAlpha" type="matrix" values="0 0 0 0 0 0 0 0 0 0 0 0 0 0 0 0 0 0 127 0" result="hardAlpha"/>
<feOffset dy="0.385894"/>
<feGaussianBlur stdDeviation="0.192947"/>
<feColorMatrix type="matrix" values="0 0 0 0 0 0 0 0 0 0 0 0 0 0 0 0 0 0 0.18 0"/>
<feBlend mode="normal" in2="BackgroundImageFix" result="effect1_dropShadow_1_18289"/>
<feBlend mode="normal" in="SourceGraphic" in2="effect1_dropShadow_1_18289" result="shape"/>
</filter>
<filter id="filter2_d_1_18289" x="16.5179" y="15.9155" width="30.0997" height="30.0997" filterUnits="userSpaceOnUse" color-interpolation-filters="sRGB">
<feFlood flood-opacity="0" result="BackgroundImageFix"/>
<feColorMatrix in="SourceAlpha" type="matrix" values="0 0 0 0 0 0 0 0 0 0 0 0 0 0 0 0 0 0 127 0" result="hardAlpha"/>
<feOffset dy="0.385894"/>
<feGaussianBlur stdDeviation="0.192947"/>
<feColorMatrix type="matrix" values="0 0 0 0 0 0 0 0 0 0 0 0 0 0 0 0 0 0 0.18 0"/>
<feBlend mode="normal" in2="BackgroundImageFix" result="effect1_dropShadow_1_18289"/>
<feBlend mode="normal" in="SourceGraphic" in2="effect1_dropShadow_1_18289" result="shape"/>
</filter>
<linearGradient id="paint0_linear_1_18289" x1="57.3212" y1="-10.6839" x2="10.7556" y2="63.3129" gradientUnits="userSpaceOnUse">
<stop stop-color="#FFECEA"/>
<stop offset="0.297056" stop-color="#EEA69F"/>
<stop offset="0.706" stop-color="#BE6459"/>
<stop offset="1" stop-color="#451918"/>
</linearGradient>
<clipPath id="clip0_1_18289">
<rect width="39.679" height="50.8926" fill="white" transform="translate(11.7288 6.42749)"/>
</clipPath>
</defs>
</svg>
